<ttFont>
<head>
    <!-- Most of this table will be recalculated by the compiler -->
    <tableVersion value="1.0"/>
    <fontRevision value="1.00099"/>
    <checkSumAdjustment value="0x8f343fe"/>
    <magicNumber value="0x5f0f3cf5"/>
    <flags value="00000000 00000011"/>
    <unitsPerEm value="1000"/>
    <created value="Fri Mar 11 16:08:33 2016"/>
    <modified value="Fri Mar 11 16:08:33 2016"/>
    <xMin value="-445"/>
    <yMin value="-386"/>
    <xMax value="1075"/>
    <yMax value="854"/>
    <macStyle value="00000000 00000000"/>
    <lowestRecPPEM value="3"/>
    <fontDirectionHint value="2"/>
    <indexToLocFormat value="0"/>
    <glyphDataFormat value="0"/>
  </head>
          <CharString index="0">
            44 202 rmoveto
            -120 59 -90 121 82 57 41 57 18 vhcurveto
            -25 13 rlineto
            -40 -23 -44 -26 -50 hhcurveto
            -68 -62 42 139 hvcurveto
            5 0 5 5 vvcurveto
            270 hlineto
            2 15 1 21 12 vvcurveto
            98 -66 46 -81 -114 -77 -85 -138 vhcurveto
            179 186 rmoveto
            60 36 -41 -61 -7 -1 -51 callsubr
            38 59 hhcurveto
            return
          </CharString>
          <CharString index="1">
            8 callgsubr
            -435 vlineto
            -13 -6 43 callsubr
            return
          </CharString>
          <CharString index="2">
            502 hmoveto
            -60 callsubr
            -54 -14 -45 -43 vhcurveto
            -4 47 -12 11 -35 -1 -44 -6 -36 -12 rlinecurve
            -102 callgsubr
            193 -50 callgsubr
            -1 callgsubr
            60 callsubr
            36 42 14 46 -48 callgsubr
            -45 -7 rlineto
            -32 vlineto
            return
          </CharString>
          <CharString index="3">
            260 568 rmoveto
            -218 -72 callsubr
            218 32 vlineto
            -58 11 rlineto
            -13 2 -1 callgsubr
            435 -40 callsubr
            58 12 rlineto
            return
          </CharString>
          <CharString index="4">
            rmoveto
            36 -21 27 -29 -21 -15 -14 -21 -17 10 -8 8 -5 vhcurveto
            6 -4 10 -4 -17 vvcurveto
            -22 -19 -20 -19 -15 vhcurveto
            18 -19 rlineto
            38 20 34 37 46 vvcurveto
            endchar
          </CharString>
          <CharString index="5">
            352 203 rmoveto
            -120 -37 -54 -79 -96 -28 79 105 120 37 55 80 95 28 -79 -106 vhcurveto
            -307 3 rmoveto
            -123 50 -91 130 107 88 68 149 124 -50 92 -131 -106 -88 -68 -151 vhcurveto
            return
          </CharString>
          <CharString index="6">
            -3 -11 -8 -6 -11 -3 rlinecurve
            -43 -10 rlineto
            -32 181 32 vlineto
            -72 14 43 130 rlineto
            229 hlineto
            47 -130 -73 -14 rlineto
            -32 196 32 vlineto
            -41 10 -11 3 -7 6 -4 11 rlinecurve
            return
          </CharString>
          <CharString index="7">
            389 hmoveto
            32 vlineto
            -70 13 rlineto
            -14 2 -6 7 14 vvcurveto
            149 vlineto
            153 291 5 11 8 4 11 3 rlinecurve
            46 10 rlineto
            32 -182 -32 vlineto
            69 -13 -132 -255 -144 255 70 13 rlineto
            32 -203 -32 vlineto
            45 -11 11 -3 8 -5 5 -10 rlinecurve
            168 -292 rlineto
            -147 vlineto
            -14 16 callgsubr
            -70 -13 rlineto
            -32 vlineto
            return
          </CharString>
          <CharString index="8">
            105 0 32 221 36 248 31 -31 37 17 callgsubr
            219 67 hintmask 11011100
            290 289 rmoveto
            -17 -55 0 1 -36 hvcurveto
            242 vlineto
            1 13 33 4 33 hhcurveto
            111 29 -46 -72 -89 -45 -40 -66 -1 hvcurveto
            -24 -289 rmoveto
            32 vlineto
            -63 11 rlineto
            -14 3 -7 6 14 vvcurveto
            187 104 vlineto
            18 -18 18 -34 19 -37 36 -71 rcurveline
            -57 28 17 -36 23 hhcurveto
            97 32 hlineto
            -42 9 -17 4 -8 4 -10 19 rlinecurve
            -59 111 -21 38 -17 26 -23 19 rlinecurve
            47 11 76 35 116 vvcurveto
            99 -53 51 -140 vhcurveto
            hintmask 11101100
            -48 -32 -6 -43 hhcurveto
            -110 -32 hlineto
            7 callsubr
            -7 -14 vvcurveto
            -435 vlineto
            -14 59 callsubr
            -58 -11 rlineto
            -32 vlineto
            return
          </CharString>
          <CharString index="9">
            44 202 rmoveto
            -123 63 -87 117 67 52 27 48 25 vhcurveto
            -20 18 rlineto
            -27 -24 -38 -21 -46 hhcurveto
            -79 -50 59 123 112 42 58 78 28 23 -7 -11 14 hvcurveto
            10 -8 2 -9 3 -13 14 -56 rcurveline
            32 hlineto
            5 35 4 46 -2 34 rrcurveto
            14 -28 -51 11 -44 hhcurveto
            -135 -62 -100 -123 hvcurveto
            return
          </CharString>
          <CharString index="10">
            rmoveto
            28 -20 20 -28 -28 -20 -20 -28 -28 22 callgsubr
            20 20 28 vhcurveto
            endchar
          </CharString>
          <CharString index="11">
            -4 28 27 -2 25 hhcurveto
            84 43 52 117 40 hvcurveto
            125 372 4 13 7 5 11 3 rlinecurve
            31 9 rlineto
            30 -156 -30 vlineto
            62 -11 -102 -321 -117 321 65 11 rlineto
            30 -182 -30 vlineto
            31 -9 11 -3 7 -6 4 -10 rlinecurve
            133 -355 rlineto
            31 hlineto
            return
          </CharString>
          <CharString index="12">
            rmoveto
            25 -17 18 -25 -25 -17 -18 -25 -69 callsubr
            172 hmoveto
            25 -17 18 -25 -25 -17 -18 -25 -69 callsubr
            return
          </CharString>
          <CharString index="13">
            150 508 4 13 7 4 11 3 rlinecurve
            43 12 rlineto
            32 -184 -32 vlineto
            76 -15 -129 -450 -135 450 75 15 rlineto
            32 -196 -32 vlineto
            38 -12 12 -3 6 -6 4 -11 rlinecurve
            15 -41 -118 -392 -138 450 76 15 rlineto
            32 -202 -32 vlineto
            42 -12 12 -3 7 -6 3 -11 rlinecurve
            163 -508 rlineto
            60 hlineto
            118 397 rlineto
            return
          </CharString>
          <CharString index="14">
            rmoveto
            108 80 116 -80 23 26 -111 111 -56 -4 -102 -110 rlineto
            return
          </CharString>
          <CharString index="15">
            25 -1 26 -10 -28 vvcurveto
            -29 -29 -26 -48 -3 vhcurveto
            3 -29 rlineto
            12 hlineto
            67 56 37 54 35 -23 22 -30 6 hvcurveto
            1 -7 -7 1 -4 hhcurveto
            return
          </CharString>
          <CharString index="16">
            -48 callsubr
            24 callgsubr
            187 63 -5 57 hintmask 1101010001010000
            -65 callgsubr
            hintmask 1101100010100000
            -26 callsubr
            hintmask 1101001010100000
            49 vlineto
            hintmask 1101010010100000
            -66 callgsubr
            hintmask 1101010001100000
            -24 callsubr
            hintmask 1101010100100000
            -17 callgsubr
            hintmask 1101010001010000
            -17 callsubr
            hintmask 1011010100100000
            1 callgsubr
            hintmask 1101010010010000
            -28 callsubr
            hintmask 1101010001010000
            -71 -63 -33 -89 vhcurveto
            hintmask 1101010010100000
            -47 callgsubr
            return
          </CharString>
          <CharString index="17">
            55 38 71 61 28 37 -47 39 rcurveline
            -128 -154 rlineto
            endchar
          </CharString>
          <CharString index="18">
            -30 vlineto
            52 -6 -20 callsubr
            -8 -13 vvcurveto
            -295 vlineto
            -114 -21 -39 -88 -60 vhcurveto
            16 -29 34 14 36 16 28 24 rlinecurve
            43 37 12 39 109 vvcurveto
            366 vlineto
            return
          </CharString>
          <CharString index="19">
            221 101 vlineto
            34 29 -2 -6 18 hvcurveto
            12 -5 6 -6 3 -10 15 -70 rcurveline
            return
          </CharString>
          <CharString index="20">
            59 -12 rlineto
            12 -2 7 -9 return
          </CharString>
          <CharString index="21">
            rmoveto
            101 105 111 -104 25 22 -109 143 -55 -6 -97 -140 rlineto
            endchar
          </CharString>
          <CharString index="22">
            -38 -1 -53 -6 -38 -13 rrcurveto
            -27 55 callgsubr
            8 -7 -13 vvcurveto
            -515 vlineto
            -13 -8 38 callsubr
            -56 -7 rlineto
            -32 213 -2 callsubr
            -7 7 14 vvcurveto
            return
          </CharString>
          <CharString index="23">
            302 0 39 173 39 19 44 214 40 -36 36 -32 32 hstemhm
            0 185 184 60 218 33 hintmask 1100100110000000
            700 hmoveto
            9 47 6 49 1 44 -32 4 rcurveline
            -26 -75 -4 -10 -5 -7 -12 46 callsubr
            -32 -2 -35 hhcurveto
            -123 hlineto
            hintmask 1110100110000000
            233 vlineto
            -18 callsubr
            -3 44 rrcurveto
            -509 hlineto
            hintmask 1100011110000000
            -32 vlineto
            94 -16 -197 -460 -5 -10 -7 -6 -11 -2 rlinecurve
            -46 -10 rlineto
            -32 185 32 vlineto
            -72 11 72 169 rlineto
            184 -146 hlineto
            -13 -6 -8 -14 -2 vhcurveto
            -58 -11 rlineto
            -32 vlineto
            hintmask 1101000110000000
            29 528 rmoveto
            49 -277 -167 hlineto
            return
          </CharString>
          <CharString index="24">
            vlineto
            -75 -10 rlineto
            -29 vlineto
            75 -8 rlineto
            -305 -76 callsubr
            return
          </CharString>
          <CharString index="25">
            157 412 rmoveto
            -9 10 -36 -1 -44 -7 -36 -11 rlinecurve
            -30 vlineto
            52 -6 rlineto
            16 -2 5 -8 -16 vvcurveto
            -279 vlineto
            -14 -68 callgsubr
            226 31 vlineto
            -77 8 rlineto
            -14 1 -8 8 14 vvcurveto
            return
          </CharString>
          <CharString index="26">
            156 0 31 241 41 224 31 -31 37 hstemhm
            121 62 308 66 hintmask 11011100
            47 272 rmoveto
            74 -207 hlineto
            -12 -7 37 callsubr
            -58 -11 rlineto
            -32 110 vlineto
            43 46 -5 32 hhcurveto
            171 -4 112 105 204 vvcurveto
            175 -83 99 -189 vhcurveto
            hintmask 11101100
            -46 -41 -6 -46 hhcurveto
            -109 -32 hlineto
            61 -12 rlineto
            11 -3 6 -8 -10 vvcurveto
            -190 -74 vlineto
            136 -276 rmoveto
            235 140 41 -140 vlineto
            hintmask 11011100
            220 vlineto
            1 20 28 3 34 hhcurveto
            151 75 -73 -176 -175 -75 -78 -133 -4 hvcurveto
            hintmask 11101100
            -30 -1 -46 3 -24 4 rrcurveto
            endchar
          </CharString>
          <CharString index="27">
            165 412 rmoveto
            -9 10 -39 -1 -46 -5 -39 -13 rlinecurve
            return
          </CharString>
          <CharString index="28">
            266 hmoveto
            32 vlineto
            -63 11 rlineto
            -14 3 -7 6 14 vvcurveto
            131 vlineto
            85 93 18 -26 18 -29 21 -35 rlinecurve
            68 -117 rlineto
            -52 31 22 -31 15 hhcurveto
            101 32 hlineto
            -42 10 -17 4 -7 5 -14 21 rlinecurve
            -95 150 -33 52 -22 34 -23 27 rlinecurve
            161 176 8 8 7 3 11 2 rlinecurve
            49 12 rlineto
            32 -188 -32 vlineto
            66 -14 -240 -271 rlineto
            250 40 callgsubr
            7 callsubr
            -7 -14 vvcurveto
            -435 vlineto
            -14 59 callsubr
            -58 -11 rlineto
            -32 vlineto
            return
          </CharString>
          <CharString index="29">
            142 rmoveto
            68 -61 34 -83 39 vhcurveto
            -78 35 -43 20 50 vvcurveto
            40 28 31 62 38 27 -12 -12 14 vhcurveto
            10 -8 3 -7 1 -5 12 -59 rcurveline
            38 1 6 35 1 35 -3 42 rlinecurve
            hintmask 11110110
            -27 13 -39 9 -39 3 rrcurveto
            82 -47 -82 vlineto
            -93 -7 -49 -50 -65 vvcurveto
            -79 75 -34 69 -30 vhcurveto
            76 -35 39 -21 -48 vvcurveto
            -47 -36 -36 -66 -48 -36 19 18 -16 vhcurveto
            -7 7 -3 7 -1 6 -11 66 rcurveline
            -40 hlineto
            -5 -41 -2 -38 1 -38 rrcurveto
            hintmask 11111010
            25 -17 49 -19 57 -5 rrcurveto
            -83 47 83 vlineto
            103 8 52 64 63 vvcurveto
            endchar
          </CharString>
          <CharString index="30">
            hmoveto
            22 39 rlineto
            -95 78 -47 103 106 vvcurveto
            134 79 77 100 114 77 -97 -130 -111 -55 -94 -88 -66 vhcurveto
            22 -39 rlineto
            hintmask 11111000
            221 hlineto
            9 47 6 49 44 vvcurveto
            -32 4 -26 -72 -3 -10 -6 -6 -11 46 callsubr
            -33 -2 -34 hhcurveto
            -37 hlineto
            hintmask 11110000
            80 60 72 96 1 125 rrcurveto
            158 2 -113 93 -135 hhcurveto
            -141 -119 -102 -162 -115 60 -93 87 -60 hvcurveto
            -38 hlineto
            -34 -30 2 7 -18 hvcurveto
            -11 4 -5 6 -4 10 -22 72 rcurveline
            -33 -4 rlineto
            -44 5 -49 7 -47 vhcurveto
            endchar
          </CharString>
          <CharString index="31">
            vlineto
            -73 callsubr
            return
          </CharString>
          <CharString index="32">
            155 0 31 506 31 -31 37 17 callgsubr
            308 66 hintmask 10111000
            151 568 rmoveto
            hintmask 11011000
            -109 -32 hlineto
            62 -12 rlineto
            10 -3 6 -8 -10 vvcurveto
            -438 vlineto
            -12 -7 -8 -12 13 callgsubr
            110 vlineto
            43 46 -5 32 hhcurveto
            172 -4 111 105 204 vvcurveto
            hintmask 10111000
            175 -83 99 -189 vhcurveto
            -46 -41 -6 -46 hhcurveto
            31 -531 rmoveto
            496 vlineto
            1 20 29 3 33 hhcurveto
            151 75 -73 -176 -175 -75 -78 -132 -4 hvcurveto
            -31 -1 -46 3 -24 4 rrcurveto
            return
          </CharString>
          <CharString index="33">
            -75 callgsubr
            334.5 return
          </CharString>
          <CharString index="34">
            -13 -68 callgsubr
            return
          </CharString>
          <CharString index="35">
            -32 hlineto
            -106 callsubr
            return
          </CharString>
          <CharString index="36">
            89 0 -6 callsubr
            171 35 hintmask 10111000
            -41 callgsubr
            hintmask 11011000
            -8 callgsubr
            hintmask 10111000
            0 callgsubr
            hintmask 11011000
            7 callgsubr
            hintmask 10111000
            -59 callsubr
            return
          </CharString>
          <CharString index="37">
            126 rmoveto
            -85 80 -49 99 104 78 54 83 68 -53 35 -68 33 vhcurveto
            hintmask 11011000
            57 21 44 51 55 vvcurveto
            68 -66 48 -89 -91 -68 -52 -75 -55 37 -38 45 -27 vhcurveto
            hintmask 11100100
            -68 -23 -41 -50 -62 vvcurveto
            hintmask 11011000
            201 158 rmoveto
            -64 30 -52 26 54 vvcurveto
            43 34 35 62 60 39 -33 -54 -44 -27 -34 -49 -24 vhcurveto
            hintmask 11100100
            -19 -254 rmoveto
            -65 -55 33 70 45 23 40 53 27 hvcurveto
            12 -7 13 -6 13 -5 rrcurveto
            60 -26 56 -21 -62 vvcurveto
            -54 -43 -34 -67 vhcurveto
            endchar
          </CharString>
          <CharString index="38">
            26 callgsubr
            25 17 18 25 vhcurveto
            return
          </CharString>
          <CharString index="39">
            -74 callsubr
            52 0 -20 return
          </CharString>
          <CharString index="40">
            -190 0 -68 callsubr
            return
          </CharString>
          <CharString index="41">
            -172 rmoveto
            hintmask 10101110
            -13 215 rlineto
            -40 21 39 -12 30 hhcurveto
            46 56 29 64 28 hvcurveto
            hintmask 11010110
            -66 7 24 -27 39 hhcurveto
            25 27 10 16 21 hvcurveto
            30 -48 vlineto
            -29 -15 21 68 1 hvcurveto
            6 279 -10 10 -54 -13 rlineto
            hintmask 10101110
            2 -279 rlineto
            -59 -26 -49 -24 -39 hhcurveto
            -42 -52 28 90 hvcurveto
            247 vlineto
            -9 10 -57 -14 rlineto
            4 -136 4 -94 -76 vvcurveto
            -92 -2 -77 -1 -116 vhcurveto
            10 -11 rlineto
            endchar
          </CharString>
          <CharString index="42">
            -17 -3 -22 -7 -23 -10 -31 13 -31 7 -24 flex1
            -82 -105 -76 -114 hvcurveto
            -50 return
          </CharString>
          <CharString index="43">
            -36 -32 51 -50 hhcurveto
            -50 -30 -46 -39 -12 hvcurveto
            23 -13 rlineto
            20 13 18 26 26 hhcurveto
            return
          </CharString>
          <CharString index="44">
            hmoveto
            33 vlineto
            -43 8 -16 4 -6 5 -10 18 rlinecurve
            -44 80 -15 28 -19 28 -28 12 rlinecurve
            61 13 41 42 8 64 rrcurveto
            hintmask 11111000
            87 35 hlineto
            hintmask 11110100
            -86 hlineto
            -2 41 -14 33 -33 21 rrcurveto
            139 34 -355 -36 100 hlineto
            74 21 -37 -56 2 hvcurveto
            -197 -35 196 hlineto
            -64 -7 -36 -32 -66 hhcurveto
            -87 -37 98 hlineto
            21 -11 15 -25 15 -28 43 -84 rcurveline
            -34 17 15 -20 18 hhcurveto
            endchar
          </CharString>
          <CharString index="45">
            -12 callgsubr
            hintmask 11011110
            -61 callgsubr
            hintmask 11100110
            37 33 -52 52 hhcurveto
            48 36 46 39 12 hvcurveto
            endchar
          </CharString>
          <CharString index="46">
            -12 10 rlineto
            -65 callsubr
            -24 callgsubr
          </CharString>
          <CharString index="47">
            -60 callgsubr
            201 -15 callsubr
            return
          </CharString>
          <CharString index="48">
            21 95 3 13 6 6 12 4 rlinecurve
            5 14 32 3 37 hhcurveto
            47 -464 hlineto
            -14 16 callgsubr
            -85 -13 rlineto
            -32 vlineto
            return
          </CharString>
          <CharString index="49">
            -46 -7 rlineto
            -32 return
          </CharString>
          <CharString index="50">
            -14 -2 vhcurveto
            -58 callsubr
            return
          </CharString>
          <CharString index="51">
            13 7 8 13 2 vhcurveto
            return
          </CharString>
          <CharString index="52">
            -25 -21 109 -143 55 5 98 140 rlineto
            endchar
          </CharString>
          <CharString index="53">
            rmoveto
            -39 -48 38 -31 82 -38 62 -28 rlinecurve
            15 26 rlineto
            return
          </CharString>
          <CharString index="54">
            90 97 rmoveto
            -84 53 -21 55 61 callgsubr
            vhcurveto
            -21 18 rlineto
            -22 -19 -27 -13 -35 hhcurveto
            -39 -24 15 66 hvcurveto
            248 143 44 -143 121 -36 vlineto
            return
          </CharString>
          <CharString index="55">
            4 49 0 42 -2 44 rrcurveto
            -393 hlineto
            return
          </CharString>
          <CharString index="56">
            -4 -1 -7 hvcurveto
            -205 hlineto
            82 11 41 return
          </CharString>
          <CharString index="57">
            -54 28 -24 29 26 19 21 25 24 -15 13 -14 7 vhcurveto
            -10 6 -6 4 17 vvcurveto
            32 27 31 32 25 vhcurveto
            -15 20 rlineto
            -62 -34 -39 -53 -60 vvcurveto
            return
          </CharString>
          <CharString index="58">
            50 23 rmoveto
            -14 29 50 -17 56 hhcurveto
            93 62 44 75 75 -64 30 -66 25 hvcurveto
            return
          </CharString>
          <CharString index="59">
            8 -201 38 163 52 -26 -21 128 37 199 56 -37 37 -7 -20 return
          </CharString>
          <CharString index="60">
            0 53 callsubr
            return
          </CharString>
          <CharString index="61">
            -44 -84 -37 callgsubr
            return
          </CharString>
          <CharString index="62">
            51 -8 45 -30 31 -10 -21 365 50 0 -20 return
          </CharString>
          <CharString index="63">
            rmoveto
            39 30 62 54 28 36 -46 36 rcurveline
            -104 -137 rlineto
            177 -19 rmoveto
            42 28 67 55 30 33 -44 40 rcurveline
            -114 -136 rlineto
            endchar
          </CharString>
          <CharString index="64">
            258 hmoveto
            -36 callsubr
            134 44 -134 77 vlineto
            75 41 28 73 29 43 -4 -18 41 vhcurveto
            return
          </CharString>
          <CharString index="65">
            -17 -8 44 -29 31 -10 -21 166 35 165 49 return
          </CharString>
          <CharString index="66">
            105 0 32 144 38 292 64 0 -20 return
          </CharString>
          <CharString index="67">
            vlineto
            -56 callsubr
            return
          </CharString>
          <CharString index="68">
            vlineto
            -9 10 -38 -1 -53 -6 -38 -13 rlinecurve
            -27 42 callgsubr
            -7 -13 vvcurveto
            return
          </CharString>
          <CharString index="69">
            99 rmoveto
            218 hlineto
            hintmask 10110000
            -99 62 vlineto
            hintmask 01110000
            99 81 48 vlineto
            -81 -2 rlineto
            125 vlineto
            -54 -3 -7 -124 -188 -6 59 71 61 103 102 177 rlinecurve
            -8 20 rlineto
            -61 hlineto
            -64 -128 -72 -123 -72 -119 rrcurveto
            endchar
          </CharString>
          <CharString index="70">
            rmoveto
            234 46 -234 hlineto
            endchar
          </CharString>
          <CharString index="71">
            32 vlineto
            -71 -69 callgsubr
            return
          </CharString>
          <CharString index="72">
            rmoveto
            23 64 17 72 7 60 -61 8 rcurveline
            -17 -197 rlineto
            endchar
          </CharString>
          <CharString index="73">
            -23 callsubr
            hintmask 11010110
            -64 callsubr
            hintmask 11100110
            36 32 -50 50 hhcurveto
            hintmask 11101110
            50 30 46 39 12 hvcurveto
            endchar
          </CharString>
          <CharString index="74">
            0 -75 callgsubr
            return
          </CharString>
          <CharString index="75">
            rmoveto
            -202 hlineto
            97 292 rlineto
            endchar
          </CharString>
          <CharString index="76">
            37 34 60 71 21 43 -49 29 rcurveline
            -90 -160 rlineto
            152 -17 rmoveto
            return
          </CharString>
          <CharString index="77">
            rmoveto
            47 -34 35 -56 -46 -49 -31 -49 -1 vhcurveto
            -50 33 -36 59 49 44 32 52 1 vhcurveto
            -139 1 rmoveto
            26 17 20 30 32 14 -25 -24 -29 -16 -18 -30 -33 -14 25 25 vhcurveto
            endchar
          </CharString>
          <CharString index="78">
            621 90 rmoveto
            -25 13 rlineto
            -40 -24 -47 -26 -48 hhcurveto
            -66 -63 42 139 hvcurveto
            5 0 5 5 vvcurveto
            270 hlineto
            3 15 1 21 12 vvcurveto
            98 -66 46 -83 -62 -51 -26 -46 -33 vhcurveto
            return
          </CharString>
          <CharString index="79">
            -3 16 18 -2 21 hhcurveto
            100 hlineto
            67 16 -24 -35 hvcurveto
            return
          </CharString>
          <CharString index="80">
            577 rmoveto
            43 -25 22 -25 -24 -19 -19 -26 -13 5 -13 16 -12 vhcurveto
            5 -4 6 -5 -11 vvcurveto
            -23 -21 -33 -28 -20 vhcurveto
            13 -20 rlineto
            61 32 36 51 51 vvcurveto
            endchar
          </CharString>
          <CharString index="81">
            97 71 59 93 33 -9 29 -17 22 hvcurveto
            90 hlineto
            return
          </CharString>
          <CharString index="82">
            0 -188 47 -20 -21 203 -21 383 30 return
          </CharString>
          <CharString index="83">
            -28 -16 -25 -22 -40 vvcurveto
            -27 12 -19 20 -11 vhcurveto
            return
          </CharString>
          <CharString index="84">
            rmoveto
            -23 13 rlineto
            -20 -13 -19 -27 -25 hhcurveto
            return
          </CharString>
          <CharString index="85">
            -44 -48 49 -56 hhcurveto
            -49 -39 -37 -40 -20 hvcurveto
            23 -19 rlineto
            25 18 27 19 28 hhcurveto
            return
          </CharString>
          <CharString index="86">
            39 32 65 67 24 42 -47 33 rcurveline
            -101 -155 rlineto
            endchar
          </CharString>
          <CharString index="87">
            rlineto
            13 -2 7 return
          </CharString>
          <CharString index="88">
            rmoveto
            28 -19 19 -28 -28 -19 -19 -28 -27 19 -20 28 28 19 20 27 vhcurveto
            endchar
          </CharString>
          <CharString index="89">
            -62 callgsubr
            -88 callsubr
            33 hlineto
            4 49 0 42 return
          </CharString>
          <CharString index="90">
            127 94 60 93 hvcurveto
            -209 -115 rmoveto
            return
          </CharString>
          <CharString index="91">
            hmoveto
            15 38 -208 532 rlineto
            -62 hlineto
            -198 -532 14 -38 rlineto
            42 53 rmoveto
            hintmask 11010000
            164 454 176 -454 rlineto
            endchar
          </CharString>
          <CharString index="92">
            vlineto
            101 -28 59 -96 -51 return
          </CharString>
          <CharString index="93">
            rmoveto
            91 102 100 -102 25 20 -98 143 -55 -5 -86 -140 rlineto
            endchar
          </CharString>
          <CharString index="94">
            305 570 rmoveto
            -61 hlineto
            return
          </CharString>
          <CharString index="95">
            0 15 callsubr
            return
          </CharString>
          <CharString index="96">
            6 -13 -20 4 -14 hhcurveto
            -55 -59 -42 -36 -29 hvcurveto
            return
          </CharString>
          <CharString index="97">
            6 -8 -13 vvcurveto
            return
          </CharString>
          <CharString index="98">
            0 99.5 -33.5 33.5 return
          </CharString>
          <CharString index="99">
            0 -3 callsubr
            return
          </CharString>
          <CharString index="100">
            vlineto
            -13 -7 -8 return
          </CharString>
          <CharString index="101">
            32 374 162 -36 36 hstemhm
            239 61 return
          </CharString>
          <CharString index="102">
            15 -8 37 359 37 return
          </CharString>
          <CharString index="103">
            28 7 6 16 hvcurveto
            return
          </CharString>
          <CharString index="104">
            15 callsubr
            hstem
            120 return
          </CharString>
          <CharString index="105">
            31 vlineto
            -56 51 callgsubr
            return
          </CharString>
          <CharString index="106">
            vlineto
            13 6 8 13 return
          </CharString>
          <CharString index="107">
            0 38 226 37 -34 37 226 38 hstemhm
            31 57 156 58 83 56 156 59 return
          </CharString>
          <CharString index="108">
            -141 1 rmoveto
            27 19 21 30 34 13 -26 -24 -30 -16 -20 -31 -34 -15 27 25 vhcurveto
            return
          </CharString>
          <CharString index="109">
            35 hstem
            87 56 vstem
            261 -136 rmoveto
            32 vlineto
            -97 7 rlineto
            -14 1 25 callsubr
            return
          </CharString>
          <CharString index="110">
            vlineto
            -14 -8 -7 -14 -1 vhcurveto
            -96 -7 rlineto
            -32 vlineto
            49 -6 70 -4 46 1 rrcurveto
            endchar
          </CharString>
          <CharString index="111">
            vlineto
            28 36 43 14 45 hhcurveto
            70 16 -44 -84 hvcurveto
            return
          </CharString>
          <CharString index="112">
            30 -53 -67 -64 -26 -45 -47 -51 -32 50 69 vhcurveto
            return
          </CharString>
          <CharString index="113">
            35 608 -20 30 -20 hstemhm
            97 60 return
          </CharString>
          <CharString index="114">
            58 36 callsubr
            return
          </CharString>
          <CharString index="115">
            -31 -27 51 -44 hhcurveto
            -51 -30 -46 -39 -12 hvcurveto
            23 -13 rlineto
            20 13 19 26 26 hhcurveto
            return
          </CharString>
          <CharString index="116">
            87 rmoveto
            27 -5 29 -4 16 vhcurveto
            -34 hlineto
            -2 -17 -4 -29 -3 -14 rrcurveto
            -27 -6 return
          </CharString>
          <CharString index="117">
            7 6 14 1 vhcurveto
            97 8 rlineto
            31 vlineto
            -49 6 -71 4 -45 -1 -9 -10 rcurveline
            return
          </CharString>
          <CharString index="118">
            44 48 -49 56 hhcurveto
            49 39 37 40 20 hvcurveto
            return
          </CharString>
          <CharString index="119">
            vlineto
            -13 59 callsubr
            return
          </CharString>
          <CharString index="120">
            -167 -21 188 return
          </CharString>
          <CharString index="121">
            -6 37 callsubr
            return
          </CharString>
          <CharString index="122">
            32 504 32 return
          </CharString>
          <CharString index="123">
            rmoveto
            28 -19 19 -28 -28 -19 -19 -28 -28 19 -20 28 28 19 20 28 vhcurveto
            return
          </CharString>
          <CharString index="124">
            -58 callsubr
            101 52 callgsubr
            vhcurveto
            return
          </CharString>
          <CharString index="125">
            39 497 32 hstem
            120 62 return
          </CharString>
          <CharString index="126">
            hstemhm
            89 68 callgsubr
            return
          </CharString>
          <CharString index="127">
            51 -1 52 -4 -20 hstemhm
            return
          </CharString>
          <CharString index="128">
            -187 29 97 30 return
          </CharString>
          <CharString index="129">
            -20 21 -20 hstemhm
            return
          </CharString>
          <CharString index="130">
            vhcurveto
            176 vlineto
            148 65 rlineto
            42 vlineto
            -148 -65 rlineto
            64 vlineto
            return
          </CharString>
          <CharString index="131">
            -8 37 -29 53 callsubr
            -34 46 return
          </CharString>
          <CharString index="132">
            -7 7 14 vvcurveto
            return
          </CharString>
          <CharString index="133">
            vvcurveto
            64 29 23 55 10 vhcurveto
            51 9 -4 32 rlineto
            -18 -16 0 return
          </CharString>
          <CharString index="134">
            49 38 19 63 5 vhcurveto
            80 7 2 -31 7 -29 11 -25 rlinecurve
            return
          </CharString>
          <CharString index="135">
            0 16 328.5 154.5 -51 51 hstemhm
            return
          </CharString>
          <CharString index="136">
            -1 vhcurveto
            -47 -7 rlineto
            -32 210 32 vlineto
            -62 7 rlineto
            -13 1 return
          </CharString>
          <CharString index="137">
            rmoveto
            39 hlineto
            14 263 rlineto
            -67 hlineto
            return
          </CharString>
          <CharString index="138">
            6 -22 -28 4 -30 hhcurveto
            -123 -88 return
          </CharString>
          <CharString index="139">
            -13 13 callgsubr
            return
          </CharString>
          <CharString index="140">
            8 39 4 53 -3 40 rrcurveto
            return
          </CharString>
          <CharString index="141">
            44 callsubr
            60 return
          </CharString>
          <CharString index="142">
            -41 -8 45 352 36 return
          </CharString>
          <CharString index="143">
            -12 -20 callsubr
            return
          </CharString>
          <CharString index="144">
            -8 -13 -2 vhcurveto
            return
          </CharString>
          <CharString index="145">
            -7 -13 -2 vhcurveto
            return
          </CharString>
          <CharString index="146">
            -159 -21 171 56 -56 59 365 -20 30 -20 hstemhm
            return
          </CharString>
          <CharString index="147">
            191 6 10 6 4 11 3 rlinecurve
            45 10 rlineto
            31 return
          </CharString>
          <CharString index="148">
            84 -52 61 -82 -67 -70 -55 -104 -84 51 -61 83 vhcurveto
            return
          </CharString>
          <CharString index="149">
            0 165 -36 36 61 36 207 30 -30 36 hstemhm
            return
          </CharString>
          <CharString index="150">
            -8 32 callsubr
            return
          </CharString>
          <CharString index="151">
            hstemhm
            39 66 180 return
          </CharString>
          <CharString index="152">
            28 -19 20 -28 -28 return
          </CharString>
          <CharString index="153">
            -4 rlinecurve
            -7 -18 return
          </CharString>
          <CharString index="154">
            hmoveto
            -60 callgsubr
            return
          </CharString>
          <CharString index="155">
            vvcurveto
            -64 -28 -23 -55 -10 vhcurveto
            -51 -8 3 -33 rlineto
            return
          </CharString>
          <CharString index="156">
            vlineto
            9 -10 45 -1 71 4 49 6 rlinecurve
            endchar
          </CharString>
          <CharString index="157">
            -17 -18 -25 -25 17 -18 return
          </CharString>
          <CharString index="158">
            -30 0 37 342 34 return
          </CharString>
          <CharString index="159">
            -9 54 2 26 162 38 197 39 hstemhm
            return
          </CharString>
          <CharString index="160">
            -75 callgsubr
            333.5 44 return
          </CharString>
          <CharString index="161">
            32 vlineto
            -47 7 rlineto
            -13 44 callgsubr
            return
          </CharString>
          <CharString index="162">
            106 52 474 hstem
            253 50 vstem
            253 return
          </CharString>
          <CharString index="163">
            33.5 235.5 11 return
          </CharString>
          <CharString index="164">
            -20 19 callsubr
            return
          </CharString>
          <CharString index="165">
            vlineto
            -13 -7 37 callsubr
            return
          </CharString>
          <CharString index="166">
            -7 38 callsubr
            return
          </CharString>
          <CharString index="167">
            273 vlineto
            28 return
          </CharString>
          <CharString index="168">
            65 -38 58 195 61 -46 66 hintmask 11100100
            return
          </CharString>
          <CharString index="169">
            -24 -50 -41 25 callgsubr
            47 vhcurveto
            return
          </CharString>
          <CharString index="170">
            vlineto
            13 7 9 13 2 vhcurveto
            58 12 rlineto
            return
          </CharString>
          <CharString index="171">
            0 37 165 37 96 35 95 34 hstemhm
            return
          </CharString>
          <CharString index="172">
            -56 vlineto
            3 -101 -112 4 rlineto
            -37 vlineto
            return
          </CharString>
          <CharString index="173">
            17 18 25 vhcurveto
            endchar
          </CharString>
        <CharString name=".notdef">
          194 0 92 329 94 hstem
          64 96 325 94 vstem
          160 141 rmoveto
          125 115 -125 123 41 42 121 -128 119 128 44 -42 -127 -122 127 -124 -41 -41 -123 128 -118 -128 rlineto
          -139 -92 rmoveto
          515 515 -515 hlineto
          endchar
        </CharString>
        <CharString name="A">
          -41 callsubr
          -26 callgsubr
          hintmask 11010100
          -13 callsubr
          hintmask 11101010
          -176 -508 -101 callsubr
          -121 152 -32 callsubr
        </CharString>
        <CharString name="AE">
          -84 callsubr
          endchar
        </CharString>
        <CharString name="Aacute">
          -41 callsubr
          -26 callgsubr
          hintmask 11010100
          -13 callsubr
          hintmask 11101010
          -176 -508 -101 callsubr
          -81 635 -92 callgsubr
          -40 -483 -32 callsubr
        </CharString>
        <CharString name="Abreve">
          -41 callsubr
          63 53 -26 callgsubr
          hintmask 11011010
          -13 callsubr
          hintmask 11101101
          -176 -508 -101 callsubr
          -82 654 -79 callgsubr
          -39 -502 -32 callsubr
        </CharString>
        <CharString name="Acircumflex">
          -41 callsubr
          82 -20 -26 callgsubr
          hintmask 11011010
          -13 callsubr
          hintmask 11101101
          -176 -508 -101 callsubr
          -327 544 -93 callsubr
          228 -415 -32 callsubr
        </CharString>
        <CharString name="Adieresis">
          -41 callsubr
          72 86 hstemhm
          3 181 -35 84 88 84 -47 196 hintmask 1101101100000000
          -13 callsubr
          hintmask 1101110010000000
          -176 -508 -101 callsubr
          hintmask 1110101100000000
          -258 603 -95 callsubr
          -35 -451 -32 callsubr
        </CharString>
        <CharString name="Agrave">
          -41 callsubr
          82 -20 -26 callgsubr
          hintmask 11011010
          -13 callsubr
          hintmask 11101101
          -176 -508 -101 callsubr
          -302 689 -54 callsubr
          23 -418 -32 callsubr
        </CharString>
        <CharString name="Amacron">
          -41 callsubr
          90 46 hstemhm
          3 181 -181 551 -394 234 -36 196 hintmask 1101101000000000
          -13 callsubr
          hintmask 1101110010000000
          -176 -508 -101 callsubr
          hintmask 1110100100000000
          -331 578 rmoveto
          234 46 -234 hlineto
          210 -472 -32 callsubr
        </CharString>
        <CharString name="Aogonek">
          105 62 callgsubr
          32 144 38 292 64 0 -20 hstemhm
          3 181 174 59 hintmask 11101110
          535 30 callgsubr
          -8 -18 -19 -4 -16 hhcurveto
          -31 -22 14 30 40 43 39 53 22 hvcurveto
          41 32 hlineto
          -41 10 -11 3 -7 6 -4 11 rlinecurve
          -186 508 rlineto
          -61 hlineto
          -176 -508 -3 -11 -8 -6 -11 -3 rlinecurve
          -43 -10 rlineto
          -32 181 32 vlineto
          -72 14 43 130 rlineto
          229 hlineto
          47 -130 -73 -14 rlineto
          -32 100 52 callgsubr
          50 callgsubr
          vhcurveto
          -165 374 rmoveto
          -202 hlineto
          hintmask 11110110
          97 292 rlineto
          endchar
        </CharString>
        <CharString name="Aring">
          105 0 32 144 38 355 -20 148 34 hstemhm
          3 181 0 45 96 45 -12 196 hintmask 11110110
          370 48 callgsubr
          -39 21 -31 39 -11 vhcurveto
          hintmask 11111001
          -176 -507 -101 callsubr
          hintmask 11110110
          -186 507 36 10 28 29 1 40 rlinecurve
          1 callsubr
          141 -435 -32 callsubr
        </CharString>
        <CharString name="Atilde">
          -41 callsubr
          67 50 -33 -20 55 50 -26 callgsubr
          hintmask 1101011010000000
          -13 callsubr
          hintmask 1101100101000000
          -176 -508 -101 callsubr
          -63 640 -12 callgsubr
          hintmask 1101011010000000
          -61 callgsubr
          hintmask 1101100010000000
          37 33 -52 52 hhcurveto
          hintmask 1101100101000000
          48 36 46 39 12 hvcurveto
          -58 -488 rmoveto
          -202 hlineto
          hintmask 1110011010000000
          97 292 rlineto
          endchar
        </CharString>
        <CharString name="B">
          87 0 31 245 38 222 32 -28 28 -28 34 hstemhm
          120 61 211 61 -27 67 hintmask 11001110
          453 441 rmoveto
          86 -53 47 -129 vhcurveto
          hintmask 11010101
          -41 -34 -6 -45 hhcurveto
          -109 hlineto
          hintmask 11100101
          -32 vlineto
          62 -12 rlineto
          10 -3 6 -8 -10 vvcurveto
          -439 vlineto
          -11 -7 -8 -10 -2 vhcurveto
          -61 -11 rlineto
          -32 106 vlineto
          57 25 -4 36 hhcurveto
          173 54 75 96 80 -52 54 -88 1 hvcurveto
          hintmask 11001110
          67 18 33 55 66 vvcurveto
          -272 94 rmoveto
          15 27 5 36 hhcurveto
          99 34 -36 -72 -81 -43 -37 -76 -17 -40 -1 1 -35 hvcurveto
          hintmask 11001101
          85 -283 rmoveto
          -26 -37 3 3 -22 hvcurveto
          238 vlineto
          37 47 1 23 hhcurveto
          96 42 -35 -85 -85 -45 -40 -115 hvcurveto
          endchar
        </CharString>
        <CharString name="C">
          70 -9 36 513 36 hstem
          49 70 vstem
          -103 callgsubr
          -176 83 -108 176 hvcurveto
          endchar
        </CharString>
        <CharString name="Cacute">
          70 -9 36 513 36 hstem
          49 70 vstem
          -103 callgsubr
          -176 83 -108 176 hvcurveto
          129 706 -92 callgsubr
          endchar
        </CharString>
        <CharString name="Ccaron">
          70 -9 36 513 36 hstem
          49 70 vstem
          -103 callgsubr
          -176 83 -108 176 hvcurveto
          108 755 -76 callgsubr
        </CharString>
        <CharString name="Ccedilla">
          70 21 callsubr
          22 36 513 36 hstemhm
          49 70 191 61 hintmask 10111000
          -103 callgsubr
          -165 73 -105 154 -13 hvcurveto
          hintmask 11111100
          -17 -53 rlineto
          -92 callsubr
          hintmask 10111000
          7 22 rlineto
          endchar
        </CharString>
        <CharString name="Ccircumflex">
          70 -9 36 513 36 56 -20 hstem
          49 70 vstem
          -103 callgsubr
          -176 83 -108 176 hvcurveto
          -117 615 -93 callsubr
          endchar
        </CharString>
        <CharString name="Cdotaccent">
          70 -9 36 513 36 46 96 hstem
          49 70 137 96 vstem
          -103 callgsubr
          -176 83 -108 176 hvcurveto
          44 679 -97 callsubr
        </CharString>
        <CharString name="D">
          -75 callsubr
          endchar
        </CharString>
        <CharString name="Dcaron">
          -75 callsubr
          221 709 -76 callgsubr
        </CharString>
        <CharString name="Dcroat">
          -81 callsubr
        </CharString>
        <CharString name="E">
          -91 callgsubr
          endchar
        </CharString>
        <CharString name="Eacute">
          -91 callgsubr
          -2 264 -92 callgsubr
          endchar
        </CharString>
        <CharString name="Ebreve">
          -45 callgsubr
          45 53 -89 callgsubr
          -3 283 -79 callgsubr
          endchar
        </CharString>
        <CharString name="Ecaron">
          -91 callgsubr
          -23 313 -76 callgsubr
        </CharString>
        <CharString name="Ecircumflex">
          -45 callgsubr
          64 -20 -89 callgsubr
          -248 173 -93 callsubr
          endchar
        </CharString>
        <CharString name="Edieresis">
          -45 callgsubr
          54 86 17 callgsubr
          -45 84 88 84 7 33 hintmask 1110010010000000
          433 433 rmoveto
          -52 callsubr
          hintmask 1101010010000000
          -105 callgsubr
          hintmask 1110010010000000
          -88 callsubr
          hintmask 1110101100000000
          -179 232 -95 callsubr
          endchar
        </CharString>
        <CharString name="Edotaccent">
          -45 callgsubr
          54 96 17 callgsubr
          35 96 87 33 hintmask 11100111
          433 433 rmoveto
          -52 callsubr
          hintmask 11010111
          -105 callgsubr
          hintmask 11101111
          -88 callsubr
          -87 237 -97 callsubr
        </CharString>
        <CharString name="Egrave">
          -45 callgsubr
          64 -20 -89 callgsubr
          -223 318 -54 callsubr
          endchar
        </CharString>
        <CharString name="Emacron">
          -45 callgsubr
          72 46 17 callgsubr
          -34 234 18 33 hintmask 11101101
          433 433 rmoveto
          -52 callsubr
          hintmask 11011101
          -105 callgsubr
          hintmask 11101101
          -88 callsubr
          hintmask 11101011
          -252 207 -37 callsubr
        </CharString>
        <CharString name="Eng">
          194 -180 38 -17 -21 180 32 -6 -21 531 32 hstemhm
          120 45 324 45 hintmask 01101110
          534 18 rmoveto
          483 vlineto
          13 7 7 12 3 vhcurveto
          52 12 rlineto
          32 -198 -32 vlineto
          62 36 callsubr
          -9 -12 vvcurveto
          -389 vlineto
          -308 456 rlineto
          -139 -72 callsubr
          209 32 vlineto
          -66 11 rlineto
          -13 2 -1 callgsubr
          413 vlineto
          hintmask 10011110
          323 -474 -5 -55 -21 -42 -39 -24 rlinecurve
          -23 -13 -33 -8 -31 -5 3 -35 rcurveline
          -2 17 12 -1 14 hhcurveto
          hintmask 01101110
          121 31 84 114 hvcurveto
          endchar
        </CharString>
        <CharString name="Eogonek">
          55 62 callgsubr
          39 231 44 218 36 -32 32 17 callgsubr
          105 58 55 33 hintmask 11110111
          464 -160 rmoveto
          -13 27 rlineto
          -32 callgsubr
          43 54 43 54 15 hvcurveto
          9 47 6 49 1 44 -32 4 rcurveline
          -26 -75 -4 -10 -5 -7 -12 46 callsubr
          -32 -2 -35 hhcurveto
          -123 233 hlineto
          -18 callsubr
          -2 44 rrcurveto
          -393 hlineto
          hintmask 11101111
          -87 callgsubr
          349 -2 vlineto
          -55 -23 15 callgsubr
          46 vhcurveto
          hintmask 11110111
          33 35 11 16 23 hvcurveto
          endchar
        </CharString>
        <CharString name="Eth">
          -81 callsubr
        </CharString>
        <CharString name="Euro">
          88 59 callgsubr
          117 67 vstem
          470 20 rmoveto
          8 37 2 42 -1 36 -35 3 rcurveline
          -22 -65 -4 -11 -5 -6 -10 -7 rlinecurve
          -11 -16 -27 -11 -33 hhcurveto
          -80 -45 55 96 -14 hvcurveto
          174 37 -177 hlineto
          -1 9 0 10 10 vvcurveto
          12 0 12 1 11 vhcurveto
          182 36 -178 hlineto
          106 16 53 51 71 hhcurveto
          29 30 -8 -10 16 hvcurveto
          9 -6 6 -6 2 -10 15 -72 rcurveline
          34 hlineto
          5 39 4 45 -2 38 rrcurveto
          17 -40 -50 7 -39 hhcurveto
          -115 -85 -65 -126 -24 hvcurveto
          -80 -36 75 hlineto
          -1 -13 -1 -14 -15 vvcurveto
          -8 0 -7 1 -7 vhcurveto
          -80 -37 83 hlineto
          -120 17 74 -65 123 hhcurveto
          50 53 12 15 32 hvcurveto
          endchar
        </CharString>
        <CharString name="Euro.tf">
          -21 59 callgsubr
          68 66 vstem
          2 178 rmoveto
          70 hlineto
          -122 16 69 -63 120 hhcurveto
          47 48 10 16 31 hvcurveto
          7 37 3 43 -2 40 -35 3 rcurveline
          -21 -68 -3 -10 -7 -9 -9 -7 rlinecurve
          -11 -14 -25 -10 -33 hhcurveto
          -73 -42 54 97 -11 hvcurveto
          163 37 -166 hlineto
          -1 8 0 9 9 vvcurveto
          13 0 13 1 12 vhcurveto
          168 36 -164 hlineto
          105 15 50 52 64 hhcurveto
          26 26 -8 -10 15 hvcurveto
          9 -6 5 -6 2 -10 15 -72 rcurveline
          34 hlineto
          6 39 3 45 -1 38 rrcurveto
          17 -38 -47 7 -37 hhcurveto
          -109 -80 -63 -128 -23 hvcurveto
          -70 -36 66 hlineto
          -1 -13 -1 -14 -15 -8 0 -7 -7 vvcurveto
          -66 hlineto
          endchar
        </CharString>
        <CharString name="F">
          14 0 32 230.5 44.5 225 36 -32 32 17 callgsubr
          218 33 hintmask 11101100
          366 260 rmoveto
          50 vlineto
          -184 -6 rlineto
          228 101 vlineto
          34 29 -2 -6 18 hvcurveto
          12 -5 6 -6 3 -10 15 -70 rcurveline
          33 hlineto
          -52 callsubr
          hintmask 11011100
          -87 callgsubr
          251 32 vlineto
          -92 49 callgsubr
          200 vlineto
          endchar
        </CharString>
        <CharString name="G">
          129 -8 -35 callgsubr
          hstemhm
          48 70 317 63 hintmask 01111100
          -42 callgsubr
          hintmask 10111100
          -96 callgsubr
          hintmask 01111100
          39 -46 rlineto
          endchar
        </CharString>
        <CharString name="Gbreve">
          129 -8 -35 callgsubr
          37 53 hstemhm
          48 70 317 63 hintmask 01111110
          -42 callgsubr
          hintmask 10111110
          -96 callgsubr
          hintmask 01111110
          39 -46 rlineto
          -42 719 -79 callgsubr
          endchar
        </CharString>
        <CharString name="Gcircumflex">
          129 -8 -35 callgsubr
          56 -20 hstemhm
          48 70 317 63 hintmask 01111110
          -42 callgsubr
          hintmask 10111110
          -96 callgsubr
          hintmask 01111110
          39 -46 rlineto
          -287 609 -93 callsubr
          endchar
        </CharString>
        <CharString name="Gcommaaccent">
          129 -167 -21 180 -35 callgsubr
          hstemhm
          48 70 175 52 90 63 hintmask 10111101
          -42 callgsubr
          hintmask 11011101
          -96 callgsubr
          hintmask 10111111
          39 -46 rlineto
          -136 -101 -103 callsubr
        </CharString>
        <CharString name="Gdotaccent">
          129 -8 -35 callgsubr
          46 96 hstemhm
          48 70 141 96 80 63 hintmask 01111101
          -42 callgsubr
          hintmask 10111101
          -96 callgsubr
          hintmask 01111111
          39 -46 rlineto
          -126 673 -97 callsubr
        </CharString>
        <CharString name="H">
          65 callgsubr
          -72 callgsubr
          endchar
        </CharString>
        <CharString name="Hbar">
          206 0 32 222 39 91 36 116 32 hstem
          121 62 290 62 vstem
          46 384 rmoveto
          75 -317 hlineto
          -14 -7 37 callsubr
          -58 -11 rlineto
          -32 216 32 vlineto
          -57 11 rlineto
          -13 2 -6 8 13 vvcurveto
          188 290 -187 vlineto
          -14 14 callsubr
          -54 -11 rlineto
          -32 213 32 vlineto
          -58 11 rlineto
          -13 2 -7 8 14 vvcurveto
          317 75 36 -75 80 63 callsubr
          32 -212 -32 vlineto
          53 -12 rlineto
          13 -3 6 -7 -13 vvcurveto
          -81 -290 81 -1 callsubr
          2 vhcurveto
          56 12 rlineto
          32 -215 -32 vlineto
          7 callsubr
          -9 -13 vvcurveto
          -80 -75 vlineto
          137 -127 rmoveto
          91 290 -91 vlineto
          endchar
        </CharString>
        <CharString name="Hcircumflex">
          65 callgsubr
          64 -20 -72 callgsubr
          -397 70 -93 callsubr
          endchar
        </CharString>
        <CharString name="I">
          -147 0 32 504 32 -90 callgsubr
          endchar
        </CharString>
        <CharString name="IJ">
          121 -8 callsubr
          62 218 62 vstem
          -104 callsubr
          222 -12 -82 callgsubr
          endchar
        </CharString>
        <CharString name="Iacute">
          -147 0 32 504 32 -90 callgsubr
          24 161 -92 callgsubr
          endchar
        </CharString>
        <CharString name="Iacute_J.NLD">
          135 -8 callsubr
          62 233 62 vstem
          -104 callsubr
          24 161 -92 callgsubr
          213 -173 -82 callgsubr
          78 173 -92 callgsubr
          endchar
        </CharString>
        <CharString name="Ibreve">
          -147 -12 callsubr
          45 53 -90 callgsubr
          23 180 -79 callgsubr
          endchar
        </CharString>
        <CharString name="Icircumflex">
          -147 -12 callsubr
          64 -20 -90 callgsubr
          -222 70 -93 callsubr
          endchar
        </CharString>
        <CharString name="Idieresis">
          -147 -12 callsubr
          54 86 hstemhm
          23 84 13 62 13 84 hintmask 11101000
          260 568 rmoveto
          hintmask 11111000
          -218 -32 hlineto
          hintmask 11101000
          -106 callsubr
          218 32 vlineto
          -58 11 rlineto
          -13 2 -1 callgsubr
          435 -40 callsubr
          58 12 rlineto
          hintmask 11111100
          -153 129 -95 callsubr
          endchar
        </CharString>
        <CharString name="Idotaccent">
          -147 -12 callsubr
          54 96 hstemhm
          103 96 -79 62 hintmask 11001000
          -104 callsubr
          hintmask 11110000
          -61 134 -97 callsubr
        </CharString>
        <CharString name="Igrave">
          -147 -12 callsubr
          64 -20 -90 callgsubr
          -197 215 -54 callsubr
          endchar
        </CharString>
        <CharString name="Imacron">
          -147 -12 callsubr
          72 46 -90 callgsubr
          -226 104 -37 callsubr
        </CharString>
        <CharString name="Iogonek">
          -147 62 callgsubr
          15 callsubr
          hstemhm
          58 58 4 62 hintmask 11101000
          235 30 callgsubr
          hintmask 11110000
          -8 -18 -20 -4 -16 hhcurveto
          -30 -23 14 30 40 41 39 53 22 hvcurveto
          hintmask 11101000
          50 32 hlineto
          -58 11 rlineto
          -13 2 -1 callgsubr
          435 40 callgsubr
          8 callgsubr
          -435 vlineto
          -13 14 callsubr
          hintmask 11110000
          -14 callgsubr
          112 -2 vlineto
          -49 -23 -47 29 callgsubr
          47 vhcurveto
          hintmask 11101000
          32 35 11 16 23 hvcurveto
          endchar
        </CharString>
        <CharString name="Itilde">
          -147 -12 callsubr
          49 43 callgsubr
          120 62 hintmask 11011100
          -104 callsubr
          hintmask 11100100
          42 166 -12 callgsubr
          hintmask 11011100
          -61 callgsubr
          hintmask 11100100
          37 33 -52 52 hhcurveto
          48 36 46 39 12 hvcurveto
          endchar
        </CharString>
        <CharString name="J">
          -167 536 32 hstem
          112 62 vstem
          194 524 -82 callgsubr
          endchar
        </CharString>
        <CharString name="Jacute">
          -167 536 32 hstem
          112 62 vstem
          194 524 -82 callgsubr
          79 173 -92 callgsubr
          endchar
        </CharString>
        <CharString name="Jcircumflex">
          -167 536 32 64 -20 hstem
          112 62 vstem
          194 524 -82 callgsubr
          -167 82 -93 callsubr
          endchar
        </CharString>
        <CharString name="K">
          117 -8 callsubr
          62 174 188 vstem
          -79 callsubr
          endchar
        </CharString>
        <CharString name="Kcommaaccent">
          117 13 callsubr
          15 callsubr
          17 callgsubr
          134 52 -12 188 hintmask 11110100
          -79 callsubr
          hintmask 11111000
          326 -104 -103 callsubr
        </CharString>
        <CharString name="L">
          41 0 18 callsubr
          253 32 vstem
          -94 callgsubr
          endchar
        </CharString>
        <CharString name="Lacute">
          41 0 18 callsubr
          253 32 vstem
          -94 callgsubr
          -126 536 -92 callgsubr
          endchar
        </CharString>
        <CharString name="Lcaron">
          41 0 18 callsubr
          144.5 69.5 39 32 vstem
          -94 callgsubr
          -86 238 -35 callsubr
        </CharString>
        <CharString name="Lcommaaccent">
          41 13 callsubr
          18 callsubr
          87 52 114 32 vstem
          -94 callgsubr
          -114 -265 -103 callsubr
        </CharString>
        <CharString name="Ldot">
          41 0 39 219 95 183 32 17 callgsubr
          156 94 3 32 hintmask 10110100
          -94 callgsubr
          hintmask 11111000
          -3 144 rmoveto
          -52 callgsubr
        </CharString>
        <CharString name="Lslash">
          42 0 39 497 32 hstem
          121 62 253 32 vstem
          41 200 rmoveto
          80 34 rlineto
          -169 6 callgsubr
          -10 rlineto
          -32 409 vlineto
          10 48 5 60 1 49 -32 4 rcurveline
          -30 -92 -3 -11 -7 -6 -11 46 callsubr
          -31 -2 -36 hhcurveto
          -117 217 hlineto
          166 71 rlineto
          48 vlineto
          -166 -75 rlineto
          201 -40 callsubr
          76 12 rlineto
          32 -236 -32 vlineto
          59 -11 rlineto
          13 -6 callgsubr
          -224 vlineto
          -80 -32 rlineto
          endchar
        </CharString>
        <CharString name="M">
          329 -12 callsubr
          hstemhm
          25 195 -195 737 -204 204 hintmask 11010000
          616 499 rmoveto
          -2 14 6 9 14 2 67 12 rcurveline
          32 -176 vlineto
          -131 -441 -151 441 rlineto
          -175 -32 hlineto
          67 -12 13 -2 7 -9 -2 -13 rlinecurve
          hintmask 11101000
          -53 -435 -1 -13 -7 -8 -12 -2 rlinecurve
          -55 -10 rlineto
          -32 195 32 vlineto
          -73 12 53 458 168 -477 rlineto
          40 hlineto
          144 475 75 -456 -69 -12 rlineto
          -32 204 32 vlineto
          -54 10 -12 2 -8 8 -1 12 rlinecurve
          endchar
        </CharString>
        <CharString name="N">
          194 -8 callsubr
          45 324 45 vstem
          -99 callgsubr
          endchar
        </CharString>
        <CharString name="Nacute">
          194 -8 callsubr
          45 324 45 vstem
          -99 callgsubr
          -104 173 -92 callgsubr
          endchar
        </CharString>
        <CharString name="Ncaron">
          194 -8 callsubr
          45 324 45 vstem
          -99 callgsubr
          -125 222 -76 callgsubr
        </CharString>
        <CharString name="Ncommaaccent">
          194 13 callsubr
          -3 callsubr
          45 171 52 101 45 vstem
          -99 callgsubr
          -165 -628 -103 callsubr
        </CharString>
        <CharString name="Ntilde">
          194 -12 callsubr
          49 43 callgsubr
          120 45 324 45 hintmask 11011110
          -99 callgsubr
          hintmask 11100110
          -86 178 -62 callsubr
        </CharString>
        <CharString name="O">
          -7 callgsubr
          hstem
          49 69 346 70 vstem
          -104 callgsubr
          endchar
        </CharString>
        <CharString name="OE">
          319 -8 35 -27 27 -27 39 231 44 218 36 -29 34 hstemhm
          49 68 269 61 218 32 4 32 hintmask 0101011110000000
          300 27 rmoveto
          -121 -62 93 164 169 66 86 118 29 29 -5 -15 27 hvcurveto
          -471 vlineto
          -15 -26 -29 -6 -31 hhcurveto
          hintmask 0011101101000000
          417 -27 rmoveto
          10 47 5 49 1 44 -32 4 rcurveline
          -26 -75 -3 -10 -6 -7 -11 46 callsubr
          -33 -2 -34 hhcurveto
          -123 233 hlineto
          -62 callgsubr
          221 100 vlineto
          hintmask 0011101110000000
          34 30 -2 -6 17 hvcurveto
          11 -4 8 -6 2 -11 16 -70 rcurveline
          32 hlineto
          4 49 1 42 -3 44 rrcurveto
          -313 -1 hlineto
          hintmask 1001011110000000
          4 -27 -27 2 -23 hhcurveto
          -156 -104 -98 -203 -186 87 -94 157 29 33 3 6 31 hvcurveto
          -1 vlineto
          endchar
        </CharString>
        <CharString name="Oacute">
          -7 callgsubr
          hstem
          49 69 346 70 vstem
          -104 callgsubr
          133 159 -92 callgsubr
          endchar
        </CharString>
        <CharString name="Obreve">
          -7 callgsubr
          37 53 hstem
          49 69 346 70 vstem
          -104 callgsubr
          132 178 -79 callgsubr
          endchar
        </CharString>
        <CharString name="Ocircumflex">
          -7 callgsubr
          56 -20 hstem
          49 69 346 70 vstem
          -104 callgsubr
          -113 68 -93 callsubr
          endchar
        </CharString>
        <CharString name="Odieresis">
          -7 callgsubr
          46 86 hstem
          49 69 46 84 88 84 44 70 vstem
          -104 callgsubr
          -44 127 -95 callsubr
          endchar
        </CharString>
        <CharString name="Ograve">
          -7 callgsubr
          56 -20 hstem
          49 69 346 70 vstem
          -104 callgsubr
          -88 213 -54 callsubr
          endchar
        </CharString>
        <CharString name="Ohungarumlaut">
          -7 callgsubr
          hstem
          49 69 346 70 vstem
          -104 callgsubr
          -97 61 -44 callsubr
        </CharString>
        <CharString name="Omacron">
          -7 callgsubr
          64 46 hstem
          49 69 57 234 55 70 vstem
          -104 callgsubr
          -117 102 -37 callsubr
        </CharString>
        <CharString name="Oslash">
          133 -8 36 512 36 hstem
          49 67 351 67 vstem
          534 293 rmoveto
          110 -31 83 -61 47 vhcurveto
          33 63 -36 19 -32 -61 rlineto
          14 -30 -36 8 -40 hhcurveto
          -148 -104 -106 -195 -109 32 -84 60 -47 hvcurveto
          -40 -78 36 -19 39 76 rlineto
          -14 30 36 -8 40 hhcurveto
          150 102 109 192 hvcurveto
          -418 -9 rmoveto
          172 65 84 111 37 32 -9 -18 25 vhcurveto
          -218 -431 rlineto
          -35 44 -17 68 90 vvcurveto
          175 -256 rmoveto
          -38 -31 9 19 -26 hvcurveto
          219 430 rlineto
          35 -43 17 -68 -90 vvcurveto
          -172 -66 -85 -110 vhcurveto
          endchar
        </CharString>
        <CharString name="Otilde">
          -7 callgsubr
          41 43 callgsubr
          49 69 346 70 hintmask 11011110
          -104 callgsubr
          hintmask 11100110
          151 164 -62 callsubr
        </CharString>
        <CharString name="P">
          56 0 32 191 37 277 31 -31 36 17 callgsubr
          225 67 hintmask 11011100
          182 533 rmoveto
          21 24 4 36 hhcurveto
          98 46 -32 -90 -119 -70 -36 -75 -32 -21 1 2 -27 hvcurveto
          107 -231 rmoveto
          -88 49 callgsubr
          161 vlineto
          -2 27 26 -1 26 hhcurveto
          119 94 70 122 100 -46 58 -146 hvcurveto
          hintmask 11101100
          -65 -16 -5 -50 hhcurveto
          -109 -32 hlineto
          62 -12 rlineto
          10 -3 6 -9 -10 vvcurveto
          -437 vlineto
          -12 -7 -8 -12 13 callgsubr
          247 vlineto
          endchar
        </CharString>
        <CharString name="Q">
          133 -150 52 90 39 -28 28 507 38 hstemhm
          49 68 348 69 hintmask 11011100
          505 -150 rmoveto
          36 32 13 9 14 hvcurveto
          -7 31 rlineto
          -1 -8 -12 0 -11 hhcurveto
          -52 -33 27 29 -36 hvcurveto
          hintmask 10111100
          -21 17 -21 16 -27 12 rrcurveto
          107 32 68 101 157 vvcurveto
          175 -80 108 -153 -148 -104 -106 -195 vhcurveto
          hintmask 11011100
          -175 81 -108 152 vhcurveto
          -29 79 41 -113 103 hhcurveto
          -213 688 rmoveto
          116 57 -89 -164 -172 -65 -82 -110 -116 -57 89 164 172 65 82 110 hvcurveto
          endchar
        </CharString>
        <CharString name="R">
          -99 callsubr
          endchar
        </CharString>
        <CharString name="Racute">
          -99 callsubr
          356 697 -92 callgsubr
          endchar
        </CharString>
        <CharString name="Rcaron">
          -99 callsubr
          335 746 -76 callgsubr
        </CharString>
        <CharString name="Rcommaaccent">
          105 13 callsubr
          32 221 36 248 31 -31 37 17 callgsubr
          124 52 43 67 hintmask 11101101
          290 289 rmoveto
          -17 -55 0 1 -36 hvcurveto
          242 vlineto
          1 13 33 4 33 hhcurveto
          111 29 -46 -72 -89 -45 -40 -66 -1 hvcurveto
          -24 -289 rmoveto
          32 vlineto
          -63 11 rlineto
          -14 3 -7 6 14 vvcurveto
          187 104 vlineto
          18 -18 18 -34 19 -37 36 -71 rcurveline
          -57 28 17 -36 23 hhcurveto
          97 32 hlineto
          -42 9 -17 4 -8 4 -10 19 rlinecurve
          -59 111 -21 38 -17 26 -23 19 rlinecurve
          47 11 76 35 116 vvcurveto
          99 -53 51 -140 vhcurveto
          hintmask 11110111
          -48 -32 -6 -43 hhcurveto
          -110 -32 hlineto
          7 callsubr
          -7 -14 vvcurveto
          -435 vlineto
          -14 59 callsubr
          -58 -11 rlineto
          -32 vlineto
          316 -104 -103 callsubr
        </CharString>
        <CharString name="S">
          -93 callgsubr
          endchar
        </CharString>
        <CharString name="Sacute">
          -93 callgsubr
          -50 549 -92 callgsubr
          endchar
        </CharString>
        <CharString name="Scaron">
          -93 callgsubr
          -71 598 -76 callgsubr
        </CharString>
        <CharString name="Scedilla">
          11 21 callsubr
          19 36 518 35 hstemhm
          58 38 -33 58 109 61 54 42 -35 64 hintmask 1011011010000000
          -64 callgsubr
          hintmask 1011011100000000
          -84 callgsubr
          hintmask 1011101010000000
          80 -36 51 -23 -74 vvcurveto
          -66 -41 -40 -79 -49 -41 20 22 -20 vhcurveto
          -9 9 -2 9 -2 7 -13 82 rcurveline
          -38 hlineto
          hintmask 1111101010000000
          -6 -48 -2 -44 2 -45 30 -20 50 -21 63 -6 -16 -50 rcurveline
          -92 callsubr
          hintmask 1011011010000000
          6 19 rlineto
          130 60 79 81 hvcurveto
          endchar
        </CharString>
        <CharString name="Scircumflex">
          11 -12 36 518 35 55 -20 hstemhm
          58 38 -33 58 224 42 -35 64 hintmask 11101010
          -64 callgsubr
          hintmask 11101100
          -84 callgsubr
          hintmask 11110010
          80 -36 51 -23 -74 vvcurveto
          -66 -41 -40 -79 -49 -41 20 22 -20 vhcurveto
          -9 9 -2 9 -2 7 -13 82 rcurveline
          -38 hlineto
          -6 -48 -2 -44 2 -45 rrcurveto
          -23 34 62 -25 77 hhcurveto
          hintmask 11101010
          131 60 79 81 hvcurveto
          -296 458 -93 callsubr
          endchar
        </CharString>
        <CharString name="Scommaaccent">
          11 -167 -21 176 36 518 35 hstemhm
          58 38 -33 58 98 52 74 42 -35 64 hintmask 11101101
          -64 callgsubr
          hintmask 11101110
          -84 callgsubr
          hintmask 11110101
          80 -36 51 -23 -74 vvcurveto
          -66 -41 -40 -79 -49 -41 20 22 -20 vhcurveto
          -9 9 -2 9 -2 7 -13 82 rcurveline
          -38 hlineto
          -6 -48 -2 -44 2 -45 rrcurveto
          -23 34 62 -25 77 hhcurveto
          hintmask 11101101
          131 60 79 81 hvcurveto
          -145 -252 -103 callsubr
        </CharString>
        <CharString name="T">
          -71 callsubr
          endchar
        </CharString>
        <CharString name="Tbar">
          89 0 32 222 41 111 162 -36 36 hstemhm
          31 36 172 61 171 35 hintmask 11011110
          140 254 rmoveto
          99 -186 hlineto
          -14 16 callgsubr
          -85 -13 rlineto
          -32 273 32 vlineto
          -85 13 rlineto
          -14 44 callgsubr
          186 99 41 -99 237 49 vlineto
          38 28 -3 -5 16 hvcurveto
          hintmask 11101110
          -8 callgsubr
          hintmask 11011110
          0 callgsubr
          hintmask 11101110
          7 callgsubr
          hintmask 11011110
          21 95 3 13 6 6 12 4 rlinecurve
          5 14 32 3 37 hhcurveto
          47 -237 -99 hlineto
          endchar
        </CharString>
        <CharString name="Tcaron">
          -71 callsubr
          250 746 -76 callgsubr
        </CharString>
        <CharString name="Thorn">
          53 0 32 90 34 254 37 89 32 hstem
          119 61 221 68 vstem
          262 hmoveto
          32 vlineto
          -62 11 rlineto
          -13 2 -1 callgsubr
          59 vlineto
          -2 27 27 -1 40 hhcurveto
          124 71 52 118 106 -64 49 -117 -37 -33 -2 -4 -38 hvcurveto
          60 -40 callsubr
          62 12 rlineto
          32 -214 -32 vlineto
          52 -12 rlineto
          12 -3 7 -8 -12 vvcurveto
          -435 vlineto
          -13 14 callsubr
          -52 -11 rlineto
          -32 vlineto
          224 156 rmoveto
          -31 -28 2 4 -33 hvcurveto
          242 vlineto
          3 26 31 3 30 hhcurveto
          99 35 -40 -81 -101 -52 -32 -77 hvcurveto
          endchar
        </CharString>
        <CharString name="U">
          -15 callgsubr
          hstem
          101 64 296 48 vstem
          -107 callgsubr
          endchar
        </CharString>
        <CharString name="Uacute">
          -15 callgsubr
          hstem
          101 64 296 48 vstem
          -107 callgsubr
          -127 129 -92 callgsubr
          endchar
        </CharString>
        <CharString name="Ubreve">
          -15 callgsubr
          45 53 hstem
          101 64 296 48 vstem
          -107 callgsubr
          -128 148 -79 callgsubr
          endchar
        </CharString>
        <CharString name="Ucircumflex">
          -15 callgsubr
          64 -20 hstem
          101 64 296 48 vstem
          -107 callgsubr
          -373 38 -93 callsubr
          endchar
        </CharString>
        <CharString name="Udieresis">
          -15 callgsubr
          54 86 hstemhm
          101 64 20 84 88 84 20 48 hintmask 11010010
          -107 callgsubr
          hintmask 11111110
          -304 97 -95 callsubr
          endchar
        </CharString>
        <CharString name="Ugrave">
          -15 callgsubr
          64 -20 hstem
          101 64 296 48 vstem
          -107 callgsubr
          -348 183 -54 callsubr
          endchar
        </CharString>
        <CharString name="Uhungarumlaut">
          -15 callgsubr
          hstem
          101 64 296 48 vstem
          -107 callgsubr
          -357 31 -44 callsubr
        </CharString>
        <CharString name="Umacron">
          -15 callgsubr
          72 46 hstem
          101 64 31 55 127 52 31 48 vstem
          -107 callgsubr
          -377 72 -37 callsubr
        </CharString>
        <CharString name="Uogonek">
          161 -187 42 138 36 507 32 hstem
          101 64 87 58 151 48 vstem
          252 -119 rmoveto
          -47 40 -21 47 32 35 11 16 23 vhcurveto
          -13 27 rlineto
          -32 callgsubr
          41 45 36 74 48 hvcurveto
          52 33 28 61 91 vvcurveto
          292 -1 callsubr
          3 vhcurveto
          45 11 rlineto
          32 -195 -32 vlineto
          64 -12 rlineto
          13 -2 -10 callsubr
          -295 vlineto
          -117 -44 -60 -105 -85 -62 42 141 vhcurveto
          288 vlineto
          13 7 9 12 2 vhcurveto
          67 12 rlineto
          32 -212 -32 vlineto
          44 -11 rlineto
          12 -3 6 -3 callgsubr
          -150 60 -76 139 16 15 1 2 14 vhcurveto
          -2 vlineto
          -44 -23 -49 -38 -52 vvcurveto
          endchar
        </CharString>
        <CharString name="Uring">
          -15 callgsubr
          29 35 96 35 hstemhm
          101 64 55 47 93 46 55 48 hintmask 11011111
          -107 callgsubr
          hintmask 11111111
          -167 113 -30 callsubr
        </CharString>
        <CharString name="Utilde">
          -15 callgsubr
          49 43 callgsubr
          101 64 296 48 hintmask 11011110
          -107 callgsubr
          hintmask 11100110
          -109 134 -62 callsubr
        </CharString>
        <CharString name="V">
          103 536 32 hstemhm
          -2 201 -201 551 -185 185 hintmask 10100000
          253 -2 rmoveto
          58 hlineto
          hintmask 11010000
          173 507 4 11 8 5 11 3 rlinecurve
          42 12 rlineto
          32 -185 -32 vlineto
          76 -15 -150 -452 -168 452 77 15 rlineto
          32 -201 -32 vlineto
          40 -12 12 -3 6 -5 5 -11 rlinecurve
          endchar
        </CharString>
        <CharString name="W">
          355 536 32 -20 callgsubr
          hintmask 10100000
          524 -4 rmoveto
          61 hlineto
          hintmask 11011000
          -94 callsubr
          endchar
        </CharString>
        <CharString name="Wacute">
          355 536 32 -20 callgsubr
          hintmask 10100000
          524 -4 rmoveto
          61 hlineto
          hintmask 11011000
          -94 callsubr
          128 304 -92 callgsubr
          endchar
        </CharString>
        <CharString name="Wcircumflex">
          355 536 32 64 -20 -20 callgsubr
          hintmask 11010000
          524 -4 rmoveto
          61 hlineto
          hintmask 11101100
          -94 callsubr
          -118 213 -93 callsubr
          endchar
        </CharString>
        <CharString name="Wdieresis">
          355 536 32 54 86 hstemhm
          0 202 70 84 -49 196 -59 84 88 184 hintmask 10110110
          524 -4 rmoveto
          61 hlineto
          150 508 4 13 7 4 11 3 rlinecurve
          43 12 rlineto
          32 -184 -32 vlineto
          76 -15 rlineto
          hintmask 10101010
          -129 -450 -135 450 75 15 rlineto
          32 -196 -32 vlineto
          38 -12 12 -3 6 -6 4 -11 rlinecurve
          15 -41 -118 -392 -138 450 76 15 rlineto
          32 -202 -32 vlineto
          42 -12 12 -3 7 -6 3 -11 rlinecurve
          163 -508 rlineto
          60 hlineto
          118 397 rlineto
          hintmask 11110110
          -49 272 -95 callsubr
          endchar
        </CharString>
        <CharString name="Wgrave">
          355 536 32 64 -20 -20 callgsubr
          hintmask 11010000
          524 -4 rmoveto
          61 hlineto
          hintmask 11101100
          -94 callsubr
          -93 358 -54 callsubr
          endchar
        </CharString>
        <CharString name="X">
          90 -12 callsubr
          hstemhm
          10 196 -183 209 90 207 -191 178 hintmask 11001000
          529 hmoveto
          32 vlineto
          -43 11 -10 2 -8 4 -6 10 rlinecurve
          -160 238 rlineto
          hintmask 11010100
          147 211 6 9 7 4 10 3 rlinecurve
          44 12 rlineto
          32 -178 -32 vlineto
          67 -13 -127 -195 -122 195 76 13 rlineto
          32 -209 -32 vlineto
          42 -12 11 -3 7 -5 6 -9 rlinecurve
          149 -225 rlineto
          hintmask 11101000
          -155 -223 -7 -10 -6 -4 -11 -2 rlinecurve
          -49 -11 rlineto
          -32 196 32 vlineto
          -77 12 135 205 131 -205 -73 -12 rlineto
          -32 vlineto
          endchar
        </CharString>
        <CharString name="Y">
          79 -12 callsubr
          hstem
          0 203 34 62 41 182 vstem
          -100 callsubr
          endchar
        </CharString>
        <CharString name="Yacute">
          79 -12 callsubr
          hstem
          0 203 34 62 41 182 vstem
          -100 callsubr
          248 697 -92 callgsubr
          endchar
        </CharString>
        <CharString name="Ycircumflex">
          79 -12 callsubr
          64 -20 hstem
          0 203 34 62 41 182 vstem
          -100 callsubr
          2 606 -93 callsubr
          endchar
        </CharString>
        <CharString name="Ydieresis">
          79 -12 callsubr
          54 86 hstemhm
          0 203 -70 84 20 62 6 84 -49 182 hintmask 11110101
          -100 callsubr
          hintmask 11101010
          71 665 -95 callsubr
          endchar
        </CharString>
        <CharString name="Ygrave">
          79 -12 callsubr
          64 -20 hstem
          0 203 34 62 41 182 vstem
          -100 callsubr
          27 751 -54 callsubr
          endchar
        </CharString>
        <CharString name="Z">
          -85 callgsubr
          endchar
        </CharString>
        <CharString name="Zacute">
          -85 callgsubr
          346 697 -92 callgsubr
          endchar
        </CharString>
        <CharString name="Zcaron">
          -85 callgsubr
          325 746 -76 callgsubr
        </CharString>
        <CharString name="Zdotaccent">
          40 0 39 375 154 -38 38 -28 28 54 96 hstemhm
          209 96 hintmask 10100100
          432 hmoveto
          8 46 5 65 -1 48 -33 3 rcurveline
          -28 -93 -3 -11 -6 -6 -11 -4 rlinecurve
          -7 -19 -31 -2 -35 hhcurveto
          -169 hlineto
          hintmask 10010100
          334 501 rlineto
          hintmask 10100100
          -16 28 rlineto
          -355 hlineto
          hintmask 11000100
          -7 -49 -4 -56 3 -49 rrcurveto
          34 hlineto
          hintmask 10101100
          23 87 3 11 6 6 11 4 rlinecurve
          7 19 31 1 35 hhcurveto
          136 hlineto
          -335 -501 17 -29 rlineto
          261 670 -97 callsubr
        </CharString>
        <CharString name="__periodcentered.CAT">
          -359 223 94 hstem
          -2 94 vstem
          92 270 -19 callsubr
        </CharString>
        <CharString name="__periodcentered.CAT.case">
          259 94 hstem
          -152 94 vstem
          -58 306 -19 callsubr
        </CharString>
        <CharString name="a">
          -17 -8 44 -29 31 135 35 165 49 34 callsubr
          hintmask 10111100
          -100 callgsubr
          hintmask 01111100
          -101 callgsubr
          hintmask 10111100
          -44 callgsubr
          vhcurveto
          endchar
        </CharString>
        <CharString name="aacute">
          -42 callsubr
          212 -20 34 callsubr
          hintmask 10011111
          -100 callgsubr
          hintmask 01011111
          -101 callgsubr
          hintmask 10011111
          -44 callgsubr
          vhcurveto
          19 467 rmoveto
          hintmask 00111111
          -90 callsubr
        </CharString>
        <CharString name="abreve">
          -42 callsubr
          49 53 34 callsubr
          hintmask 10011111
          -100 callgsubr
          hintmask 01011111
          -101 callgsubr
          hintmask 10011111
          -44 callgsubr
          vhcurveto
          hintmask 00111111
          183 586 -81 callgsubr
        </CharString>
        <CharString name="acircumflex">
          -17 -8 44 -29 31 135 35 165 49 34 callsubr
          hintmask 10111100
          -100 callgsubr
          hintmask 01111100
          -101 callgsubr
          hintmask 10111100
          -44 callgsubr
          vhcurveto
          -52 465 -86 callsubr
        </CharString>
        <CharString name="acute">
          -86 634 -20 hstem
          127 175 vstem
          148 459 rmoveto
          -90 callsubr
        </CharString>
        <CharString name="acutecomb">
          634 -20 hstem
          -55 175 vstem
          -34 459 rmoveto
          -90 callsubr
        </CharString>
        <CharString name="acutecomb.case">
          607 140 hstem
          -70 203 vstem
          133 697 -92 callgsubr
          endchar
        </CharString>
        <CharString name="adieresis">
          -42 callsubr
          64 87 hstemhm
          39 66 -19 84 73 84 -42 60 hintmask 1001111001000000
          -100 callgsubr
          hintmask 0101111001000000
          -101 callgsubr
          hintmask 1001111001000000
          -44 callgsubr
          vhcurveto
          hintmask 0011110110000000
          16 537 -97 callgsubr
        </CharString>
        <CharString name="ae">
          20 callgsubr
          44 callsubr
          63 210 64 hintmask 10101111
          -29 callsubr
          hintmask 11110111
          -33 callgsubr
          hintmask 10101111
          -18 callgsubr
          hintmask 11101111
          27 callsubr
          hintmask 10101111
          -39 -38 -55 -16 -40 hhcurveto
          endchar
        </CharString>
        <CharString name="agrave">
          -42 callsubr
          212 -20 34 callsubr
          hintmask 10011111
          -100 callgsubr
          hintmask 01011111
          -101 callgsubr
          hintmask 10011111
          -44 callgsubr
          vhcurveto
          hintmask 00111111
          -6 642 -63 callgsubr
        </CharString>
        <CharString name="amacron">
          -42 callsubr
          73 46 hstemhm
          39 66 -15 234 -39 60 hintmask 1001111010000000
          -100 callgsubr
          hintmask 0101111010000000
          -101 callgsubr
          hintmask 1001111010000000
          -44 callgsubr
          vhcurveto
          hintmask 0011110100000000
          -64 503 -37 callsubr
        </CharString>
        <CharString name="ampersand">
          125 -9 37 -19 32 236 32 236 30 hstemhm
          44 60 -14 59 154 56 68 106 hintmask 10110110
          149 448 rmoveto
          47 27 50 55 53 19 -46 -42 -65 -44 -42 -51 -36 vhcurveto
          -48 67 -11 38 29 vvcurveto
          74 -420 rmoveto
          hintmask 10111010
          -76 -43 46 64 58 35 34 37 28 hvcurveto
          41 -53 70 -83 56 -55 rrcurveto
          hintmask 10110110
          -25 -34 -42 -14 -44 hhcurveto
          hintmask 01110111
          310 249 rmoveto
          32 -181 -32 vlineto
          58 -11 rlineto
          16 -3 1 -13 -7 vvcurveto
          -46 -9 -51 -29 -38 vhcurveto
          -51 51 -64 69 -48 62 rrcurveto
          79 39 54 51 75 vvcurveto
          76 -55 44 -74 -90 -50 -64 -72 -49 24 -48 43 -59 vhcurveto
          hintmask 10111010
          -56 -25 -57 -43 -84 vvcurveto
          -97 78 -43 91 52 59 14 37 45 vhcurveto
          hintmask 01111011
          -35 40 28 -12 31 hhcurveto
          24 22 7 7 19 hvcurveto
          32 vlineto
          -64 -17 5 38 -38 hvcurveto
          43 46 14 53 7 59 2 13 2 6 14 5 rrcurveto
          endchar
        </CharString>
        <CharString name="aogonek">
          -17 -187 42 137 44 -29 31 -10 -21 166 35 165 49 hstemhm
          39 66 119 59 2 60 hintmask 1001111010000000
          401 30 callgsubr
          hintmask 1001111100000000
          -32 callgsubr
          38 39 38 50 22 hvcurveto
          hintmask 1001111010000000
          16 3 16 4 6 3 rrcurveto
          hintmask 1010111010000000
          -101 callgsubr
          hintmask 1100111010000000
          -44 callgsubr
          52 49 23 33 32 vhcurveto
          4 -25 12 -18 20 -7 rrcurveto
          -1 vlineto
          hintmask 1001111100000000
          -49 62 callsubr
          hintmask 1001111010000000
          50 callgsubr
          hvcurveto
          hintmask 1100111010000000
          -228 196 rmoveto
          -45 -23 23 37 49 38 19 63 5 hvcurveto
          79 8 rlineto
          -100 vlineto
          -24 -28 -45 -17 -39 hhcurveto
          endchar
        </CharString>
        <CharString name="approxequal">
          30 106 52 -3 52 35 52 -3 52 hstemhm
          64 352 hintmask 10011000
          416 183 rmoveto
          -23 19 rlineto
          -25 -18 -27 -19 -28 hhcurveto
          hintmask 01011000
          -22 callsubr
          hintmask 10011000
          11 callsubr
          hintmask 01101000
          136 vmoveto
          -23 19 rlineto
          -25 -18 -27 -19 -28 hhcurveto
          hintmask 01011000
          -22 callsubr
          hintmask 01101000
          11 callsubr
          endchar
        </CharString>
        <CharString name="aring">
          -42 callsubr
          45 33 95 34 hstemhm
          39 66 11 46 90 46 -13 60 hintmask 1001111100100000
          -100 callgsubr
          hintmask 0101111100100000
          -101 callgsubr
          hintmask 1001111100100000
          -44 callgsubr
          vhcurveto
          hintmask 0011111111000000
          144 556 -73 callgsubr
        </CharString>
        <CharString name="asciicircum">
          -13 297 260 hstem
          41 355 vstem
          41 317 rmoveto
          29 -20 145 192 150 -192 31 20 -152 240 -57 -4 rlineto
          endchar
        </CharString>
        <CharString name="asciitilde">
          30 173 52 -3 52 hstemhm
          64 352 hintmask 10100000
          416 250 rmoveto
          -23 19 rlineto
          -25 -18 -27 -19 -28 hhcurveto
          hintmask 01100000
          -22 callsubr
          hintmask 10100000
          11 callsubr
          endchar
        </CharString>
        <CharString name="asterisk">
          -13 420 -20 95 -20 178 36 callgsubr
          495 -39 callgsubr
        </CharString>
        <CharString name="at">
          320 -186 42 135 47 -47 53 290 44 139 43 hstemhm
          45 50 113 59 190 55 164 45 hintmask 1011111110000000
          338 -186 rmoveto
          79 68 23 30 38 hvcurveto
          -13 25 rlineto
          -20 -31 -73 -16 -57 hhcurveto
          -146 -108 105 192 228 154 136 175 130 122 -74 -171 hvcurveto
          hintmask 1101111110000000
          -151 -94 -83 -46 -16 -8 10 45 68 19 118 17 83 vhcurveto
          -41 14 -13 -23 rlineto
          16 -31 -33 9 -30 hhcurveto
          -120 -72 -133 -109 hvcurveto
          hintmask 1011111110000000
          -83 41 -62 59 68 57 84 87 33 vhcurveto
          hintmask 1101111110000000
          -6 -36 -3 -28 -20 vvcurveto
          -48 15 -39 44 69 136 96 196 184 -119 93 -159 -210 -188 -161 -259 vhcurveto
          hintmask 1011111110000000
          -193 105 -133 188 vhcurveto
          119 408 rmoveto
          -91 -32 -52 -87 -51 hhcurveto
          -39 -16 52 59 95 42 84 80 26 36 -10 -24 28 hvcurveto
          -5 -22 -7 -27 -10 -29 rrcurveto
          endchar
        </CharString>
        <CharString name="atilde">
          -42 callsubr
          49 51 -1 52 -4 -20 34 callsubr
          hintmask 1001101011000000
          -100 callgsubr
          hintmask 0101101011000000
          -101 callgsubr
          hintmask 1001101011000000
          -44 callgsubr
          vhcurveto
          hintmask 0011110111000000
          198 564 -23 callsubr
          hintmask 0011101011000000
          -64 callsubr
          hintmask 0011110011000000
          36 32 -50 50 hhcurveto
          hintmask 0011110111000000
          50 30 46 39 12 hvcurveto
          endchar
        </CharString>
        <CharString name="b">
          18 -8 37 350 46 219 -20 29 -20 hstemhm
          72 60 225 66 hintmask 11011100
          72 20 rmoveto
          -10 24 54 37 callgsubr
          -40 -22 -30 -29 hvcurveto
          hintmask 11101100
          271 vlineto
          -9 9 rlineto
          hintmask 11011100
          -40 -1 -47 -7 -40 -12 rrcurveto
          -27 vlineto
          56 -8 -20 callsubr
          -7 -13 vvcurveto
          144 -547 rmoveto
          -37 -26 10 11 -21 hvcurveto
          290 vlineto
          24 27 34 15 43 hhcurveto
          75 48 -45 -126 -2 hvcurveto
          -125 -1 -49 -54 -91 hhcurveto
          endchar
        </CharString>
        <CharString name="backslash">
          -107 633 -20 hstem
          28 286 vstem
          314 -105 rmoveto
          -230 738 rlineto
          -56 hlineto
          230 -738 rlineto
          endchar
        </CharString>
        <CharString name="bar">
          -223 -108 795 hstem
          87 53 vstem
          87 -108 rmoveto
          53 795 -53 hlineto
          endchar
        </CharString>
        <CharString name="braceleft">
          -133 -145 37 367 60 372 28 callgsubr
          59 6 71 60 vvcurveto
          55 -27 36 -69 17 vhcurveto
          69 17 27 32 55 60 -6 71 59 26 callsubr
          -2 -26 hvcurveto
          -88 -4 -41 -40 -80 -78 10 -58 -54 vvcurveto
          -42 -6 -39 -96 -7 vhcurveto
          -60 vlineto
          96 -7 6 -39 -41 -55 -10 -58 -78 41 callgsubr
        </CharString>
        <CharString name="braceright">
          -133 -145 37 367 60 372 32 hstem
          145 66 vstem
          82 -143 rmoveto
          87 4 42 40 80 78 -12 58 55 vvcurveto
          41 6 39 98 7 vhcurveto
          60 vlineto
          -98 7 -6 39 42 54 12 58 78 vvcurveto
          80 -42 40 -87 4 vhcurveto
          2 38 callgsubr
          -59 -7 -71 -60 vvcurveto
          -55 27 -36 69 -16 vhcurveto
          -69 -17 -27 -33 -55 -60 7 -71 -59 48 callsubr
          19 16 0 2 26 hvcurveto
          endchar
        </CharString>
        <CharString name="bracketleft">
          -166 -136 -75 callgsubr
          779.5 2 callsubr
          728 vlineto
          15 10 callsubr
          -848 49 callsubr
        </CharString>
        <CharString name="bracketright">
          -166 -136 -75 callgsubr
          779.5 58 callgsubr
          848 23 callgsubr
          -15 vvcurveto
          -728 3 callsubr
        </CharString>
        <CharString name="breve">
          -86 471 53 hstem
          52 260 vstem
          312 578 -81 callgsubr
        </CharString>
        <CharString name="brokenbar">
          -225 -108 795 hstem
          86 53 vstem
          86 345 rmoveto
          53 342 -53 hlineto
          -795 vmoveto
          53 341 -53 hlineto
          endchar
        </CharString>
        <CharString name="bullet">
          -146 152 159 hstem
          69 166 vstem
          235 231 21 callgsubr
        </CharString>
        <CharString name="bulletoperator">
          -123 171 104 hstem
          112 104 vstem
          216 223 rmoveto
          31 -21 21 -31 -31 -21 -21 -31 -30 21 -22 31 31 21 22 30 vhcurveto
          endchar
        </CharString>
        <CharString name="c">
          35 callsubr
          hstem
          44 67 vstem
          -98 callsubr
          endchar
        </CharString>
        <CharString name="cacute">
          35 callsubr
          209 -20 hstem
          44 67 vstem
          -98 callsubr
          151 257 rmoveto
          -90 callsubr
        </CharString>
        <CharString name="caron">
          -86 637 22 callsubr
          54 262 hintmask 01100000
          292 638 rmoveto
          -102 -105 rlineto
          hintmask 10100000
          -111 104 rlineto
          hintmask 01100000
          -55 callsubr
        </CharString>
        <CharString name="ccaron">
          35 callsubr
          212 22 callsubr
          44 67 hintmask 11011000
          -98 callsubr
          295 436 rmoveto
          -102 -105 rlineto
          hintmask 11101000
          -111 104 rlineto
          hintmask 11011000
          -55 callsubr
        </CharString>
        <CharString name="ccedilla">
          -41 21 callsubr
          23 45 352 36 hstemhm
          44 67 112 61 hintmask 10111100
          44 202 rmoveto
          hintmask 11111100
          -111 51 -81 95 -15 vhcurveto
          -18 -56 rlineto
          -92 callsubr
          hintmask 10111100
          7 23 rlineto
          4 hlineto
          67 52 27 48 25 hvcurveto
          -20 18 rlineto
          -27 -24 -38 -21 -46 hhcurveto
          -79 -50 59 123 112 42 58 78 28 23 -7 -11 14 hvcurveto
          10 -8 2 -9 3 -13 14 -56 rcurveline
          32 hlineto
          5 35 4 46 -2 34 rrcurveto
          14 -28 -51 11 -44 hhcurveto
          -135 -62 -100 -123 hvcurveto
          endchar
        </CharString>
        <CharString name="ccircumflex">
          35 callsubr
          hstem
          44 67 vstem
          -98 callsubr
          80 255 -86 callsubr
        </CharString>
        <CharString name="cdotaccent">
          35 callsubr
          61 96 hstem
          44 67 77 96 vstem
          -98 callsubr
          240 332 -97 callsubr
        </CharString>
        <CharString name="cedilla">
          -86 21 callsubr
          hstem
          192 61 vstem
          167 19 rmoveto
          -26 -80 rlineto
          -92 callsubr
          16 50 rlineto
          endchar
        </CharString>
        <CharString name="cent">
          -20 -67 callgsubr
        </CharString>
        <CharString name="cent.tf">
          -21 -67 callgsubr
        </CharString>
        <CharString name="circumflex">
          -86 457 166 hstem
          53 261 vstem
          77 457 -86 callsubr
        </CharString>
        <CharString name="colon">
          -230 -8 95 214 95 hstem
          63 94 vstem
          157 349 16 callsubr
          -310 vmoveto
          -52 callgsubr
        </CharString>
        <CharString name="comma">
          -230 -138 239 hstem
          105 56 vstem
          161 24 rmoveto
          53 -28 24 -28 -27 -18 -21 -24 -24 15 -13 13 -8 vhcurveto
          10 -5 7 -4 -17 vvcurveto
          -32 -20 -37 -40 -34 vhcurveto
          15 -20 rlineto
          61 36 40 60 66 vvcurveto
          endchar
        </CharString>
        <CharString name="copyright">
          278 -37 37 107 46 277 35 106 35 hstem
          45 42 120 59 375 41 vstem
          362 107 rmoveto
          62 44 28 36 21 hvcurveto
          -18 19 rlineto
          -23 -20 -36 -14 -39 hhcurveto
          -72 -38 51 89 83 32 54 67 20 20 -5 -9 14 hvcurveto
          12 -8 2 -8 2 -8 12 -49 rcurveline
          33 hlineto
          6 33 2 34 -1 29 rrcurveto
          12 -17 -46 14 -46 hhcurveto
          -103 -68 -69 -114 -102 56 -73 99 hvcurveto
          -275 178 rmoveto
          166 116 120 161 160 117 -120 -166 -165 -117 -120 -160 -161 -116 120 165 vhcurveto
          -42 hmoveto
          -183 137 -139 182 181 137 139 183 183 -137 138 -181 -182 -137 -138 -183 vhcurveto
          endchar
        </CharString>
        <CharString name="currency">
          63 120 45 232 45 hstem
          100 48 216 52 vstem
          100 277 rmoveto
          -36 11 -32 18 -26 vhcurveto
          -75 -76 37 -38 77 77 rlineto
          -17 25 30 -9 33 hhcurveto
          33 30 10 17 25 hvcurveto
          77 -76 38 37 -76 77 rlineto
          21 28 12 35 37 vvcurveto
          36 -12 33 -19 26 vhcurveto
          75 75 -38 38 -77 -76 rlineto
          16 -26 -30 9 -33 hhcurveto
          -33 -30 -10 -18 -24 hvcurveto
          -78 78 -37 -37 77 -78 rlineto
          -20 -28 -11 -35 -37 vvcurveto
          156 -112 rmoveto
          -60 -48 50 64 61 36 57 70 61 49 -54 -63 -63 -35 -52 -73 hvcurveto
          endchar
        </CharString>
        <CharString name="d">
          40 19 callgsubr
          hintmask 10010111
          -28 callgsubr
          hintmask 01001111
          29 vlineto
          -44 4 rlineto
          -13 1 -9 5 18 vvcurveto
          579 -39 callsubr
          -161 vlineto
          hintmask 00110111
          31 callsubr
          -72 -157 hvcurveto
          hintmask 10010111
          -145 76 -59 87 vhcurveto
          endchar
        </CharString>
        <CharString name="dagger">
          -105 414 35 hstemhm
          139 67 -56 45 hintmask 10100000
          189 -89 rmoveto
          12 467 1 11 8 4 15 3 rlinecurve
          90 18 rlineto
          37 vlineto
          hintmask 11000000
          -112 -4 3 101 rlineto
          56 -67 65 callsubr
          hintmask 10100000
          90 -18 14 -3 7 -3 3 -11 rlinecurve
          12 -468 rlineto
          endchar
        </CharString>
        <CharString name="daggerdbl">
          -90 234 35 145 35 hstemhm
          146 68 -61.5 55 -47.5 40 hintmask 11001000
          196 -90 rmoveto
          8 285 1 14 7 4 16 3 rlinecurve
          95 18 rlineto
          37 vlineto
          hintmask 11010000
          -117 -4 3 109 1 13 7 4 15 3 rlinecurve
          91 18 rlineto
          37 vlineto
          hintmask 11100000
          -112 -4 3 101 rlineto
          56 -68 65 callsubr
          hintmask 11010000
          90 -18 15 -3 7 -4 2 -13 rlinecurve
          3 -109 -117 4 rlineto
          -37 vlineto
          hintmask 11001000
          95 -18 16 -3 7 -4 1 -14 rlinecurve
          8 -284 rlineto
          endchar
        </CharString>
        <CharString name="dcaron">
          53 19 callgsubr
          11 callgsubr
          hintmask 1001011100000000
          -28 callgsubr
          hintmask 0100111100000000
          29 vlineto
          -44 4 rlineto
          -13 1 -9 5 18 vvcurveto
          579 -39 callsubr
          -161 vlineto
          hintmask 0011011100000000
          31 callsubr
          -72 -157 hvcurveto
          hintmask 1001011100000000
          -145 76 -59 87 vhcurveto
          hintmask 0011011110000000
          273 487 -35 callsubr
        </CharString>
        <CharString name="dcroat">
          40 -8 47 -32 31 -10 -21 369 38 71 39 129 -20 hstemhm
          45 66 225 60 hintmask 00111111
          204 485 rmoveto
          132 -81 hlineto
          31 callsubr
          -70 -152 hvcurveto
          hintmask 10011111
          -143 76 -57 87 59 43 26 32 28 vhcurveto
          -30 5 17 -26 38 hhcurveto
          20 -4 callsubr
          hintmask 01011111
          29 vlineto
          -44 4 rlineto
          -13 1 -9 5 18 vvcurveto
          421 52 39 -52 119 -39 callsubr
          -52 -132 vlineto
          hintmask 10011111
          27 -485 rmoveto
          -62 -58 34 130 133 62 40 74 36 34 -10 -12 19 hvcurveto
          -274 vlineto
          -25 -28 -35 -16 -42 hhcurveto
          endchar
        </CharString>
        <CharString name="degree">
          -112 346 41 166 41 hstem
          44 43 163 44 vstem
          168 346 rmoveto
          70 56 53 71 68 -53 56 -73 -68 -56 -53 -71 -68 56 -56 68 hvcurveto
          1 41 rmoveto
          -45 -37 38 45 48 34 35 47 47 35 -37 -46 -49 -33 -34 -48 hvcurveto
          endchar
        </CharString>
        <CharString name="dieresis">
          -86 486 87 hstem
          61 84 73 84 vstem
          145 529 -97 callgsubr
        </CharString>
        <CharString name="divide">
          5 187 81 vstem
          392 200 rmoveto
          47 -329 -47 vlineto
          205 -104 27 callgsubr
          255 vmoveto
          24 -17 16 -24 -24 -16 -16 -24 -24 16 -17 24 24 17 17 24 vhcurveto
          endchar
        </CharString>
        <CharString name="dollar">
          -34 7 35 417 35 82 -20 hstemhm
          56 57 63 47 -25 47 70 63 hintmask 11111010
          378 -78 callsubr
        </CharString>
        <CharString name="dollar.tf">
          -21 7 35 417 35 82 -20 hstemhm
          62 57 63 47 -25 47 70 63 hintmask 11111010
          384 -78 callsubr
        </CharString>
        <CharString name="dotaccent">
          -86 486 96 hstem
          141 96 vstem
          237 534 -97 callsubr
        </CharString>
        <CharString name="dotlessi">
          -67 callsubr
          hstemhm
          105 60 hintmask 10110000
          -80 callsubr
          hintmask 11010000
          -102 callgsubr
          194 -56 callgsubr
          -14 2 -7 8 14 vvcurveto
          endchar
        </CharString>
        <CharString name="dotlessj">
          12 callgsubr
          hstemhm
          96 60 hintmask 10110000
          2 callgsubr
          hintmask 11010000
          -89 callsubr
          endchar
        </CharString>
        <CharString name="e">
          -29 callgsubr
          hstem
          44 65 210 63 vstem
          -107 callsubr
          endchar
        </CharString>
        <CharString name="eacute">
          -29 callgsubr
          209 -20 hstem
          44 65 210 63 vstem
          -107 callsubr
          -32 71 rmoveto
          -90 callsubr
        </CharString>
        <CharString name="ebreve">
          -29 callgsubr
          46 53 hstem
          44 65 210 63 vstem
          -107 callsubr
          132 190 -81 callgsubr
        </CharString>
        <CharString name="ecaron">
          -29 callgsubr
          212 22 callsubr
          44 65 210 63 hintmask 11101110
          -107 callsubr
          112 250 rmoveto
          -102 -105 rlineto
          hintmask 11110110
          -111 104 rlineto
          hintmask 11101110
          -55 callsubr
        </CharString>
        <CharString name="ecircumflex">
          -29 callgsubr
          hstem
          44 65 210 63 vstem
          -107 callsubr
          -103 69 -86 callsubr
        </CharString>
        <CharString name="edieresis">
          -29 callgsubr
          61 87 hstemhm
          44 65 -5 84 73 84 -26 63 hintmask 11111001
          -107 callsubr
          hintmask 11110110
          -35 141 -97 callgsubr
        </CharString>
        <CharString name="edotaccent">
          -29 callgsubr
          61 96 hstem
          44 65 75 96 39 63 vstem
          -107 callsubr
          57 146 -97 callsubr
        </CharString>
        <CharString name="egrave">
          -29 callgsubr
          209 -20 hstem
          44 65 210 63 vstem
          -107 callsubr
          -57 246 -63 callgsubr
        </CharString>
        <CharString name="eight">
          8 -8 37 443 36 hstemhm
          48 61 callsubr
          48 -70 callsubr
        </CharString>
        <CharString name="eight.tf">
          -21 -8 37 443 36 hstemhm
          33 61 callsubr
          33 -70 callsubr
        </CharString>
        <CharString name="ellipsis">
          167 -8 95 hstem
          56 94 111 95 111 95 vstem
          356 39 rmoveto
          45 callsubr
          -20 -20 -28 -27 22 callgsubr
          19 20 27 vhcurveto
          206 hmoveto
          45 callsubr
          -20 -20 -28 -27 22 callgsubr
          19 20 27 vhcurveto
          -412 hmoveto
          -52 callgsubr
        </CharString>
        <CharString name="emacron">
          -29 callgsubr
          70 46 hstemhm
          44 65 -1 234 -23 63 hintmask 11111010
          -107 callsubr
          hintmask 11110100
          -115 107 -37 callsubr
        </CharString>
        <CharString name="emdash">
          359 194 45 hstem
          63 683 vstem
          63 194 rmoveto
          683 45 -683 hlineto
          endchar
        </CharString>
        <CharString name="endash">
          97 193 46 hstem
          63 421 vstem
          63 193 rmoveto
          421 46 -421 hlineto
          endchar
        </CharString>
        <CharString name="eng">
          56 -180 34 -12 -21 179 -75 callgsubr
          341.5 46 hstemhm
          105 60 210 60 hintmask 01111100
          435 4 rmoveto
          259 vlineto
          103 -28 57 -98 -48 -55 -13 -46 -43 vhcurveto
          -4 47 -12 11 -35 -1 -44 -6 -36 -12 rlinecurve
          -102 callgsubr
          193 -50 callgsubr
          -1 callgsubr
          60 callsubr
          35 44 14 42 hhcurveto
          73 16 -42 -86 hvcurveto
          -228 vlineto
          hintmask 10111100
          -72 -7 -41 -20 -22 vhcurveto
          -20 -22 -34 -5 -26 -5 rrcurveto
          hintmask 01111100
          3 -33 rlineto
          -1 13 13 0 12 hhcurveto
          92 34 63 121 hvcurveto
          endchar
        </CharString>
        <CharString name="enspace">
          -28 endchar
        </CharString>
        <CharString name="eogonek">
          -22 -187 42 137 45 196 35 118 39 hstem
          44 65 70 59 81 63 vstem
          179 -119 rmoveto
          -47 40 -21 47 50 callgsubr
          vhcurveto
          -12 27 rlineto
          -32 callgsubr
          42 34 37 62 47 hvcurveto
          23 17 16 23 8 25 -25 13 rcurveline
          -40 -23 -44 -26 -50 hhcurveto
          -68 -62 42 139 hvcurveto
          5 0 5 5 vvcurveto
          270 hlineto
          2 15 1 21 12 vvcurveto
          98 -66 46 -81 -114 -77 -85 -138 -120 59 -90 121 11 11 1 1 11 vhcurveto
          -2 vlineto
          -36 -23 -42 -38 -50 vvcurveto
          44 505 rmoveto
          60 36 -39 -61 -7 -1 -51 callsubr
          36 59 hhcurveto
          endchar
        </CharString>
        <CharString name="equal">
          6 133 46 89 46 hstem
          64 329 vstem
          393 268 rmoveto
          46 -329 -46 vlineto
          329 -135 rmoveto
          46 -329 -46 vlineto
          endchar
        </CharString>
        <CharString name="estimated">
          72 -6 37 197 40 189 36 hstem
          50 94 243 87 vstem
          452 44 rmoveto
          -19 28 rlineto
          -27 -38 -46 -14 -49 hhcurveto
          -66 -61 26 39 -29 hvcurveto
          132 327 vlineto
          1 16 2 20 21 vvcurveto
          143 -87 65 -112 -143 -82 -106 -141 -159 105 -93 141 52 57 13 37 47 vhcurveto
          -308 356 rmoveto
          33 23 45 24 60 hhcurveto
          49 44 -15 -27 22 hvcurveto
          -147 -243 vlineto
          endchar
        </CharString>
        <CharString name="eth">
          11 -8 36 336 43 170 -20 91 -20 24 -20 hstemhm
          45 66 232 66 hintmask 11101110
          409 233 rmoveto
          hintmask 11110110
          117 -48 116 -96 85 vhcurveto
          89 61 -27 36 -94 -71 rlineto
          hintmask 11101110
          -41 31 -50 25 -56 19 -13 -31 rcurveline
          45 -20 41 -25 34 -28 -102 -72 rcurveline
          27 -36 105 81 44 -43 33 -51 20 -58 rlinecurve
          26 -28 -40 12 -37 hhcurveto
          -78 -92 -54 -155 -126 60 -80 112 119 73 90 151 hvcurveto
          -183 -205 rmoveto
          -87 -28 80 89 122 50 45 66 40 39 -15 -30 27 hvcurveto
          7 -30 3 -31 -34 vvcurveto
          -123 -33 -73 -84 vhcurveto
          endchar
        </CharString>
        <CharString name="exclam">
          -217 -8 86 hstemhm
          73 86 -78 70 hintmask 10100000
          81 568 rmoveto
          18 -405 rlineto
          35 hlineto
          17 405 rlineto
          55 -70 vlineto
          hintmask 11000000
          78 -588 rmoveto
          -5 callgsubr
        </CharString>
        <CharString name="exclamdown">
          -230 339 86 hstemhm
          67 86 -77 69 hintmask 10100000
          145 -206 rmoveto
          55 vlineto
          -17 405 rlineto
          -36 hlineto
          -16 -405 rlineto
          -55 vlineto
          hintmask 11000000
          77 588 rmoveto
          25 -17 18 -26 -25 -18 -18 -25 -26 18 -17 25 26 17 17 26 vhcurveto
          endchar
        </CharString>
        <CharString name="f">
          -134 -47 callsubr
          180 60 hstem
          106 60 vstem
          106 463 rmoveto
          -50 -83 callsubr
          226 32 vlineto
          -78 -69 callgsubr
          126 44 -126 77 vlineto
          76 27 27 70 24 33 -2 -6 28 vhcurveto
          8 44 rlineto
          15 -28 -29 9 -30 hhcurveto
          -78 -85 -76 -114 hvcurveto
          endchar
        </CharString>
        <CharString name="f_b">
          327 24 callsubr
          168 60 -9 -20 hstemhm
          106 60 216 60 225 65 hintmask 0110101110000000
          265 hmoveto
          32 vlineto
          -78 -69 callgsubr
          134 44 -134 77 vlineto
          75 36 28 74 28 39 -4 -17 39 vhcurveto
          hintmask 1001011110000000
          -552 vlineto
          -10 24 53 -18 62 hhcurveto
          137 74 92 143 141 -72 57 -92 -57 -40 -22 -30 -29 hvcurveto
          271 vlineto
          -11 9 rlineto
          hintmask 0110101110000000
          -17 -3 -22 -7 -23 -10 -29 13 -28 7 -24 flex1
          -82 -100 -76 -114 hvcurveto
          -50 -83 callsubr
          vlineto
          hintmask 1001101110000000
          486 29 rmoveto
          -37 -25 10 11 -21 hvcurveto
          290 vlineto
          24 27 33 15 43 hhcurveto
          75 49 -45 -126 -2 67 callgsubr
        </CharString>
        <CharString name="f_f">
          150 -47 callsubr
          162 60 -42 60 hstemhm
          106 60 225 60 hintmask 11011100
          254 hmoveto
          32 vlineto
          -67 -69 callgsubr
          225 -308 vlineto
          -13 16 callgsubr
          -45 -7 rlineto
          -32 225 32 vlineto
          -78 -69 callgsubr
          126 44 -126 77 vlineto
          76 27 27 70 24 32 -2 -6 28 vhcurveto
          9 44 rlineto
          15 -29 -29 9 -29 hhcurveto
          -78 -85 -76 -114 hvcurveto
          -50 -225 59 vlineto
          hintmask 11101100
          -83 callgsubr
          endchar
        </CharString>
        <CharString name="f_f_b">
          612 24 callsubr
          150 60 -42 60 -9 -20 hstemhm
          106 60 225 60 216 60 225 65 hintmask 0110010111100000
          254 hmoveto
          32 vlineto
          -67 -69 callgsubr
          225 -308 -76 callsubr
          226 32 vlineto
          -78 -69 callgsubr
          133 44 -133 77 vlineto
          75 39 28 70 28 40 -4 -17 39 vhcurveto
          hintmask 1001001111100000
          -552 vlineto
          -10 24 53 37 callgsubr
          -39 -22 -29 -29 hvcurveto
          270 vlineto
          hintmask 0110010111100000
          -12 9 rlineto
          -17 -3 -21 -7 -23 -10 -29 13 -29 7 -23 flex1
          -79 -103 -76 -114 hvcurveto
          -50 -225 59 vlineto
          hintmask 0110100111100000
          -83 callgsubr
          hintmask 1001010111100000
          771 29 rmoveto
          -37 -26 10 11 -20 hvcurveto
          291 vlineto
          24 27 34 14 42 hhcurveto
          75 48 -45 -126 -1 67 callgsubr
        </CharString>
        <CharString name="f_f_h">
          647 -47 callsubr
          -36 46 152 45 callgsubr
          211 60 hintmask 1100101111000000
          -71 callgsubr
          -511 12 callsubr
          -45 -7 rlineto
          -32 191 32 vlineto
          -45 7 60 callgsubr
          hintmask 1010011111000000
          272 vlineto
          29 36 44 14 45 -48 callgsubr
          -45 -7 rlineto
          -32 193 54 callsubr
          201 -15 callsubr
          -54 -14 -44 -42 vhcurveto
          278 vlineto
          -11 10 rlineto
          hintmask 1100101111000000
          -65 callsubr
          -225 59 vlineto
          hintmask 1101001111000000
          -83 callgsubr
          endchar
        </CharString>
        <CharString name="f_f_k">
          611 -47 callsubr
          -30 30 162 45 callgsubr
          99 192 hintmask 1100101110000000
          -71 callgsubr
          -510 58 callsubr
          -45 -7 rlineto
          -32 193 32 vlineto
          -47 7 60 callgsubr
          67 vlineto
          77 81 12 -20 12 -23 15 -27 rlinecurve
          45 -80 rlineto
          -37 20 15 -23 18 hhcurveto
          97 32 hlineto
          -48 10 -10 2 -10 7 -9 14 rlinecurve
          -81 132 -13 21 -10 15 -13 19 rlinecurve
          hintmask 1010101111000000
          102 108 8 8 8 3 12 2 rlinecurve
          44 10 rlineto
          hintmask 1100101111000000
          30 -192 vlineto
          hintmask 1010011111000000
          -30 vlineto
          75 -12 -174 -193 rlineto
          465 vlineto
          -11 10 rlineto
          hintmask 1100101110000000
          -65 callsubr
          -225 59 vlineto
          hintmask 1101001110000000
          -83 callgsubr
          endchar
        </CharString>
        <CharString name="f_f_l">
          384 -47 callsubr
          162 45 callgsubr
          hintmask 11010111
          -71 callgsubr
          -511 12 callsubr
          -45 -7 rlineto
          -32 202 31 vlineto
          -56 8 60 callgsubr
          hintmask 11001111
          581 vlineto
          -11 10 rlineto
          hintmask 11010111
          -65 callsubr
          -225 59 vlineto
          hintmask 11100111
          -83 callgsubr
          endchar
        </CharString>
        <CharString name="f_h">
          362 -47 callsubr
          -36 46 170 56 callgsubr
          227 60 210 60 hintmask 11010111
          -43 callsubr
          -510 vlineto
          -13 -8 38 callsubr
          -45 -7 rlineto
          -32 191 32 vlineto
          -45 7 rlineto
          -13 44 callgsubr
          hintmask 10101111
          273 vlineto
          28 36 43 14 45 -48 callgsubr
          -45 -7 rlineto
          -32 193 -60 callsubr
          -52 -14 -43 -43 vhcurveto
          277 vlineto
          hintmask 11010111
          -61 callsubr
        </CharString>
        <CharString name="f_k">
          326 -47 callsubr
          -30 30 180 56 callgsubr
          227 60 99 192 hintmask 11010110
          -43 callsubr
          -509 vlineto
          -13 -8 37 callsubr
          -45 -7 rlineto
          -32 193 54 callsubr
          68 vlineto
          76 80 12 -20 12 -23 15 -27 rlinecurve
          45 -80 rlineto
          -37 20 15 -23 18 hhcurveto
          97 32 hlineto
          -48 10 -10 2 -10 7 -8 14 rlinecurve
          -82 132 -13 21 -10 16 -13 18 rlinecurve
          hintmask 10110111
          102 108 8 8 8 3 13 2 rlinecurve
          44 10 rlineto
          hintmask 11010111
          30 -192 vlineto
          hintmask 10101111
          -30 vlineto
          74 -12 -173 -191 rlineto
          463 vlineto
          hintmask 11010110
          -61 callsubr
        </CharString>
        <CharString name="f_l">
          99 -47 callsubr
          180 56 callgsubr
          227 60 hintmask 11101100
          -43 callsubr
          -510 vlineto
          -13 -8 38 callsubr
          -45 -7 rlineto
          -32 202 -2 callsubr
          -7 7 14 vvcurveto
          hintmask 11011100
          581 vlineto
          hintmask 11101100
          -61 callsubr
        </CharString>
        <CharString name="five">
          -27 -8 44 239 45 128 51 hstem
          81 47 177 70 vstem
          59 -43 callgsubr
        </CharString>
        <CharString name="five.tf">
          -21 -8 44 239 45 128 51 hstem
          84 47 177 70 vstem
          62 -43 callgsubr
        </CharString>
        <CharString name="four">
          -16 0 140 -41 41 368 -20 hstemhm
          261 62 hintmask 01110000
          43 -38 callsubr
        </CharString>
        <CharString name="four.dnom">
          -82 -9 callsubr
          235.5 11 hstemhm
          214 48 hintmask 01110000
          51 66 rmoveto
          163 hlineto
          hintmask 10110000
          -66 48 vlineto
          hintmask 01110000
          66 62 41 vlineto
          -70 callgsubr
        </CharString>
        <CharString name="four.numr">
          -82 46 callgsubr
          218 48 vstem
          55 294 rmoveto
          163 -66 48 66 62 41 hlineto
          -70 callgsubr
        </CharString>
        <CharString name="four.tf">
          -21 0 140 -41 41 368 -20 hstemhm
          258 62 hintmask 01110000
          40 -38 callsubr
        </CharString>
        <CharString name="foursuperior">
          -87 46 callgsubr
          215 48 vstem
          52 294 rmoveto
          163 -66 48 66 62 41 hlineto
          -70 callgsubr
        </CharString>
        <CharString name="fraction">
          4 callgsubr
        </CharString>
        <CharString name="g">
          -91 callsubr
          endchar
        </CharString>
        <CharString name="gbreve">
          -48 callsubr
          73 53 24 callgsubr
          187 63 -5 57 hintmask 1101010100101000
          -65 callgsubr
          hintmask 1101100101010000
          -26 callsubr
          hintmask 1101001101010000
          49 vlineto
          hintmask 1101010101010000
          -66 callgsubr
          hintmask 1101010100110000
          -24 callsubr
          hintmask 1101010110010000
          -17 callgsubr
          hintmask 1101010100101000
          -17 callsubr
          hintmask 1011010110010000
          1 callgsubr
          hintmask 1101010101001000
          -28 callsubr
          hintmask 1101010100101000
          -71 -63 -33 -89 vhcurveto
          hintmask 1101010101010000
          -47 callgsubr
          234 295 -81 callgsubr
        </CharString>
        <CharString name="gcircumflex">
          -91 callsubr
          -1 174 -86 callsubr
        </CharString>
        <CharString name="gcommaaccent">
          -48 callsubr
          250 -20 24 callgsubr
          47 52 88 63 -5 57 hintmask 1101010100110100
          -65 callgsubr
          hintmask 1101100101011000
          -26 callsubr
          hintmask 1101001101011000
          49 vlineto
          hintmask 1101010101011000
          -66 callgsubr
          hintmask 1101010100111000
          -24 callsubr
          hintmask 1101010110011000
          -17 callgsubr
          hintmask 1101010100110100
          -17 callsubr
          hintmask 1011010110011000
          1 callgsubr
          hintmask 1101010101010100
          -28 callsubr
          hintmask 1101010100110100
          -71 -63 -33 -89 vhcurveto
          hintmask 1101010101011000
          -47 callgsubr
          57 262 -13 callgsubr
        </CharString>
        <CharString name="gdotaccent">
          -48 callsubr
          88 96 24 callgsubr
          53 96 38 63 -5 57 hintmask 1101010000100100
          -65 callgsubr
          hintmask 1101100001001000
          -26 callsubr
          hintmask 1101001001001000
          49 vlineto
          hintmask 1101010001001000
          -66 callgsubr
          hintmask 1101010000101000
          -24 callsubr
          hintmask 1101010010001000
          -17 callgsubr
          hintmask 1101010000100100
          -17 callsubr
          hintmask 1011010010001000
          1 callgsubr
          hintmask 1101010001000100
          -28 callsubr
          hintmask 1101010000100100
          -71 -63 -33 -89 vhcurveto
          hintmask 1101010101011000
          -47 callgsubr
          159 251 -97 callsubr
        </CharString>
        <CharString name="germandbls">
          84 -9 34 -25 -74 callsubr
          43 189 51 hstemhm
          105 60 90 56 56 64 17 56 hintmask 10111101
          504 113 rmoveto
          66 -48 31 -57 29 vhcurveto
          -49 24 -39 17 41 vvcurveto
          42 37 32 67 15 vhcurveto
          hintmask 01111111
          9 23 7 39 32 vvcurveto
          84 -52 65 -85 -98 -91 -85 -127 vhcurveto
          -28 vlineto
          -74 -10 rlineto
          -29 vlineto
          74 -8 rlineto
          -305 12 callsubr
          -47 -7 rlineto
          -32 127 457 vlineto
          108 38 37 62 71 31 -49 -62 -16 -2 -27 -9 -23 vhcurveto
          -49 -18 -52 -37 -65 vvcurveto
          -64 51 -27 49 -26 vhcurveto
          hintmask 10111101
          56 -29 37 -19 -45 vvcurveto
          -43 -33 -27 -48 -34 -25 13 8 -12 vhcurveto
          -11 8 -3 6 -5 17 -13 51 rcurveline
          -34 hlineto
          -2 -17 -2 -19 -21 vvcurveto
          -15 1 -16 2 -17 vhcurveto
          -14 25 43 -18 55 hhcurveto
          86 66 44 78 hvcurveto
          endchar
        </CharString>
        <CharString name="grave">
          -86 634 -20 hstem
          76 172 vstem
          123 634 -63 callgsubr
        </CharString>
        <CharString name="gravecomb">
          634 -20 hstem
          -106 172 vstem
          -59 634 -63 callgsubr
        </CharString>
        <CharString name="gravecomb.case">
          632 -20 hstem
          -127 197 vstem
          -88 751 -54 callsubr
          endchar
        </CharString>
        <CharString name="greater">
          -26 53 340 hstem
          56 329 vstem
          385 205 rmoveto
          37 vlineto
          -309 151 -20 -44 270 -126 -270 -126 20 -44 rlineto
          endchar
        </CharString>
        <CharString name="greaterequal">
          -7 0 46 379 -20 hstem
          61 329 vstem
          390 247 rmoveto
          36 vlineto
          -309 142 -20 -44 271 -117 -271 -115 20 -44 rlineto
          302 -105 rmoveto
          46 -322 -46 vlineto
          endchar
        </CharString>
        <CharString name="guillemotleft">
          52 40 369 hstem
          43 418 vstem
          237 198 -19 callgsubr
          -194 -49 -19 callgsubr
          endchar
        </CharString>
        <CharString name="guillemotright">
          44 40 369 hstem
          41 410 vstem
          451 198 -10 callgsubr
          12 158 -10 callgsubr
          endchar
        </CharString>
        <CharString name="guilsinglleft">
          -142 40 369 hstem
          43 224 vstem
          43 198 -19 callgsubr
          endchar
        </CharString>
        <CharString name="guilsinglright">
          -142 40 369 hstem
          41 224 vstem
          265 198 -10 callgsubr
          endchar
        </CharString>
        <CharString name="h">
          -74 callgsubr
          endchar
        </CharString>
        <CharString name="hbar">
          64 -33 callsubr
          331.5 46 72 39 119 -20 30 -20 hstemhm
          95 60 210 60 hintmask 11101110
          28 485 rmoveto
          67 -424 hlineto
          -73 callsubr
          192 32 vlineto
          -44 7 rlineto
          -14 44 callgsubr
          263 4 callsubr
          -177 vlineto
          -15 -9 -6 -12 -2 vhcurveto
          -44 -7 rlineto
          -32 192 -60 callgsubr
          191 -15 callsubr
          -52 -14 -43 -43 vhcurveto
          129 125 39 -125 vlineto
          hintmask 11110110
          119 vlineto
          -10 10 rlineto
          hintmask 11101110
          -37 -1 -52 -6 -37 -13 rrcurveto
          -27 vlineto
          55 -8 rlineto
          13 -2 8 -7 -13 vvcurveto
          -52 -67 vlineto
          endchar
        </CharString>
        <CharString name="hcircumflex">
          -74 callgsubr
          1 680 -93 callsubr
          endchar
        </CharString>
        <CharString name="hungarumlaut">
          -86 644 -20 23 -20 hstemhm
          85 280 hintmask 01100000
          106 470 rmoveto
          -31 callsubr
          hintmask 10100000
          -21 callsubr
        </CharString>
        <CharString name="hyphen">
          -54 194 45 hstem
          63 270 vstem
          63 194 rmoveto
          270 45 -270 hlineto
          endchar
        </CharString>
        <CharString name="i">
          -190 0 5 callgsubr
          77 96 -68 60 hintmask 10110100
          -80 callsubr
          hintmask 11010100
          -102 callgsubr
          194 -56 callgsubr
          -14 2 -7 8 14 vvcurveto
          hintmask 10111000
          8 471 -97 callsubr
        </CharString>
        <CharString name="iacute">
          -67 callsubr
          232 -20 hstemhm
          105 60 hintmask 10111000
          -80 callsubr
          hintmask 11011000
          -102 callgsubr
          194 -56 callgsubr
          -14 2 -7 8 14 vvcurveto
          -81 396 rmoveto
          -90 callsubr
        </CharString>
        <CharString name="iacute_j.NLD">
          43 -172 -21 193 -68 callsubr
          232 -20 hstemhm
          105 60 191 60 hintmask 11011110
          -80 callsubr
          hintmask 11101110
          -102 callgsubr
          194 -56 callgsubr
          -14 2 -7 8 14 vvcurveto
          -81 396 rmoveto
          55 38 71 61 28 37 -47 39 rcurveline
          -128 -154 rlineto
          344 -58 rmoveto
          -38 -1 -47 -5 -38 -13 rrcurveto
          -89 callsubr
          -88 47 rmoveto
          -90 callsubr
        </CharString>
        <CharString name="ibreve">
          -67 callsubr
          69 52 hstemhm
          105 60 hintmask 10111000
          -80 callsubr
          hintmask 11011000
          -102 callgsubr
          194 -56 callgsubr
          -14 2 -7 8 14 vvcurveto
          76 515 -4 callgsubr
        </CharString>
        <CharString name="icircumflex">
          -67 callsubr
          hstemhm
          105 60 hintmask 10110000
          -80 callsubr
          hintmask 11010000
          -102 callgsubr
          194 -56 callgsubr
          -14 2 -7 8 14 vvcurveto
          -142 395 -14 callsubr
        </CharString>
        <CharString name="idieresis">
          -67 callsubr
          84 87 hstemhm
          -3 84 24 60 -11 84 hintmask 10110100
          -80 callsubr
          hintmask 11010100
          -102 callgsubr
          194 -56 callgsubr
          -14 2 -7 8 14 vvcurveto
          hintmask 10111010
          -84 466 -97 callgsubr
        </CharString>
        <CharString name="igrave">
          -67 callsubr
          232 -20 hstemhm
          105 60 hintmask 10111000
          -80 callsubr
          hintmask 11011000
          -102 callgsubr
          194 -56 callgsubr
          -14 2 -7 8 14 vvcurveto
          -106 571 -63 callgsubr
        </CharString>
        <CharString name="ij">
          29 -172 -21 193 5 callgsubr
          77 96 -68 60 141 96 -61 60 hintmask 1101101010000000
          -80 callsubr
          hintmask 1110101010000000
          -102 callgsubr
          194 -56 callgsubr
          -14 2 -7 8 14 vvcurveto
          hintmask 1101110010000000
          8 471 rmoveto
          28 -20 20 -28 -28 -20 -20 -28 -28 22 callgsubr
          20 20 28 vhcurveto
          219 -112 rmoveto
          -38 -1 -47 -5 -38 -13 rrcurveto
          hintmask 1110101010000000
          -89 callsubr
          hintmask 1101101100000000
          1 122 -97 callsubr
        </CharString>
        <CharString name="imacron">
          -67 callsubr
          93 46 hstemhm
          11 213 -119 60 hintmask 10110100
          -80 callsubr
          hintmask 11010100
          -102 callgsubr
          194 -56 callgsubr
          -14 2 -7 8 14 vvcurveto
          hintmask 10111000
          -154 432 rmoveto
          213 46 -213 hlineto
          endchar
        </CharString>
        <CharString name="infinity">
          235 79 38 -36 45 182 45 -37 39 hstemhm
          51 47 489 48 hintmask 10011100
          635 225 rmoveto
          hintmask 10101100
          73 -50 55 -72 -61 -53 -39 -63 -45 vhcurveto
          hintmask 01011100
          68 -57 -38 36 -63 hhcurveto
          -87 -58 -66 -80 -74 49 -54 72 61 53 39 62 44 hvcurveto
          hintmask 10011100
          -68 58 38 -35 63 hhcurveto
          87 59 65 81 hvcurveto
          hintmask 01011100
          -447 -99 rmoveto
          -51 -39 44 57 51 32 38 42 50 42 -53 -60 49 hvcurveto
          -48 -43 -41 -29 -41 hhcurveto
          hintmask 10101100
          324 -9 rmoveto
          -49 -42 55 58 -49 hvcurveto
          49 43 41 29 41 hhcurveto
          51 39 -45 -56 -51 -32 -39 -43 hvcurveto
          endchar
        </CharString>
        <CharString name="integral">
          -137 -195 44 760 44 hstemhm
          87 61 19 62 vstemhm
          229 -27 rmoveto
          hintmask 11100000
          140 -81 259 131 vvcurveto
          77 31 29 45 21 24 -5 -12 20 vhcurveto
          15 28 rlineto
          21 -18 -35 12 -34 hhcurveto
          -68 -62 -51 -118 hvcurveto
          hintmask 11110000
          -143 80 -255 -131 vvcurveto
          -77 -31 -29 -48 -21 -24 6 11 -20 vhcurveto
          -15 -27 rlineto
          -21 18 34 -13 36 hhcurveto
          71 62 52 116 hvcurveto
          endchar
        </CharString>
        <CharString name="iogonek">
          -190 62 callgsubr
          5 callgsubr
          39 59 -21 96 -68 60 hintmask 11011001
          216 30 callgsubr
          hintmask 11011100
          -32 callgsubr
          40 43 39 53 22 hvcurveto
          hintmask 11011001
          10 callgsubr
          hintmask 11101001
          -30 vlineto
          53 -6 -20 callsubr
          -3 callgsubr
          -13 -7 -8 -14 -2 vhcurveto
          hintmask 11011100
          17 callsubr
          hintmask 11011001
          50 callgsubr
          hvcurveto
          hintmask 11011010
          -43 694 -97 callsubr
        </CharString>
        <CharString name="itilde">
          -67 callsubr
          69 51 -1 52 -5 -20 hstemhm
          105 60 hintmask 10101010
          -80 callsubr
          hintmask 11010110
          -102 callgsubr
          194 -56 callgsubr
          -14 2 -7 8 14 vvcurveto
          91 493 64 callgsubr
          hintmask 10101010
          8 callsubr
          hintmask 10110010
          31 27 -50 44 hhcurveto
          hintmask 11010110
          51 30 46 39 12 hvcurveto
          endchar
        </CharString>
        <CharString name="j">
          12 callgsubr
          84 96 hstemhm
          61 96 -61 60 hintmask 10110100
          2 callgsubr
          hintmask 11010100
          -89 callsubr
          hintmask 10111000
          1 122 -97 callsubr
        </CharString>
        <CharString name="jacute">
          12 callgsubr
          232 -20 hstemhm
          96 60 hintmask 10111000
          2 callgsubr
          hintmask 11011000
          -89 callsubr
          -88 47 rmoveto
          -90 callsubr
        </CharString>
        <CharString name="jcircumflex">
          12 callgsubr
          hstemhm
          96 60 hintmask 10110000
          2 callgsubr
          hintmask 11010000
          -89 callsubr
          -149 46 -14 callsubr
        </CharString>
        <CharString name="k">
          28 -33 callsubr
          347.5 30 231 -20 29 -20 hstemhm
          95 60 99 192 hintmask 11011100
          -49 callgsubr
          hintmask 11101100
          464 vlineto
          -10 9 rlineto
          hintmask 11011100
          -2 callgsubr
          endchar
        </CharString>
        <CharString name="kcommaaccent">
          28 13 callsubr
          -75 callgsubr
          347.5 30 231 -20 29 -20 hstemhm
          95 60 99 192 -186 52 hintmask 11101110
          -49 callgsubr
          hintmask 11110110
          464 vlineto
          -10 9 rlineto
          hintmask 11101101
          -2 callgsubr
          284 -104 -103 callsubr
        </CharString>
        <CharString name="l">
          -197 0 6 callsubr
          hintmask 11010000
          14 callgsubr
          hintmask 10110000
          -85 callsubr
          endchar
        </CharString>
        <CharString name="lacute">
          -197 0 6 callsubr
          hintmask 11010000
          14 callgsubr
          hintmask 10110000
          -85 callsubr
          89 715 -92 callgsubr
          endchar
        </CharString>
        <CharString name="lcaron">
          -183 0 6 callsubr
          11 callgsubr
          hintmask 11010000
          14 callgsubr
          hintmask 10111000
          -85 callsubr
          85 417 -35 callsubr
        </CharString>
        <CharString name="lcommaaccent">
          -197 13 callsubr
          6 callsubr
          -35 52 hintmask 11101000
          14 callgsubr
          hintmask 11011000
          -85 callsubr
          hintmask 11010100
          17 -166 -103 callsubr
        </CharString>
        <CharString name="ldot">
          -106 0 35 188 94 326 -20 30 -20 hstemhm
          97 60 94 94 hintmask 11101000
          14 callgsubr
          hintmask 11011100
          -85 callsubr
          188 208 -19 callsubr
        </CharString>
        <CharString name="less">
          -26 53 340 hstem
          39 329 vstem
          368 97 rmoveto
          -270 127 270 125 -21 44 -308 -151 rlineto
          -37 vlineto
          308 -152 rlineto
          endchar
        </CharString>
        <CharString name="lessequal">
          -7 0 46 379 -20 hstem
          53 330 vstem
          383 149 rmoveto
          -272 117 272 115 -20 44 -310 -142 rlineto
          -36 vlineto
          310 -142 rlineto
          20 -105 rmoveto
          46 -322 -46 vlineto
          endchar
        </CharString>
        <CharString name="logicalnot">
          31 200 47 hstem
          367 50 vstem
          64 200 rmoveto
          303 -161 50 208 -353 hlineto
          endchar
        </CharString>
        <CharString name="lslash">
          -181 0 35 618 -20 hstem
          107 60 vstem
          22 252 rmoveto
          85 44 rlineto
          -235 12 callsubr
          -56 -7 rlineto
          -32 213 31 vlineto
          -56 8 60 callgsubr
          259 vlineto
          85 42 rlineto
          48 vlineto
          -85 -46 rlineto
          278 -39 callsubr
          -236 vlineto
          -85 -43 rlineto
          endchar
        </CharString>
        <CharString name="m">
          320 -40 callgsubr
          hstem
          105 60 198 68 callgsubr
          cntrmask 00111000
          748 hmoveto
          54 callsubr
          197 vlineto
          109 -29 55 -100 -45 -53 -11 -49 -46 vhcurveto
          39 -17 -32 21 -58 hhcurveto
          -47 -53 -14 -44 -38 hvcurveto
          -4 46 -12 11 -35 -1 -44 -6 -36 -12 rlinecurve
          -30 vlineto
          53 -6 -20 callsubr
          -8 -13 vvcurveto
          -282 58 callsubr
          -47 -7 rlineto
          -32 193 -50 callgsubr
          -7 7 14 vvcurveto
          275 vlineto
          27 34 46 13 38 hhcurveto
          70 10 -46 callsubr
          -45 -7 rlineto
          -32 191 32 vlineto
          -44 7 60 callgsubr
          201 vlineto
          28 -2 25 -5 21 vhcurveto
          29 36 40 11 38 hhcurveto
          73 18 -40 -88 -37 callgsubr
          -45 -7 rlineto
          -32 vlineto
          endchar
        </CharString>
        <CharString name="macron">
          -86 495 46 hstem
          65 234 vstem
          65 495 -37 callsubr
        </CharString>
        <CharString name="minus">
          0 200 47 hstem
          64 322 vstem
          64 200 rmoveto
          322 47 -322 hlineto
          endchar
        </CharString>
        <CharString name="minute">
          -261 417 -20 hstem
          52 101 vstem
          52 417 rmoveto
          32 callgsubr
          endchar
        </CharString>
        <CharString name="multiply">
          -44 76 297 hstem
          57 291 vstem
          92 76 rmoveto
          111 118 111 -118 34 36 -115 112 115 112 -34 37 -111 -118 -111 118 -35 -37 115 -112 -115 -112 rlineto
          endchar
        </CharString>
        <CharString name="n">
          74 -40 callgsubr
          hstem
          105 60 210 60 vstem
          -105 callsubr
          endchar
        </CharString>
        <CharString name="nacute">
          74 -40 callgsubr
          211 -20 hstem
          105 60 210 60 vstem
          -105 callsubr
          -79 459 rmoveto
          -90 callsubr
        </CharString>
        <CharString name="napostrophe">
          74 -40 callgsubr
          219 -20 hstemhm
          25 61 19 60 210 60 hintmask 11101100
          -105 callsubr
          hintmask 11111100
          -223 -27 callsubr
        </CharString>
        <CharString name="ncaron">
          74 -40 callgsubr
          214 22 callsubr
          105 60 210 60 hintmask 11011100
          -105 callsubr
          65 638 rmoveto
          -102 -105 rlineto
          hintmask 11101100
          -111 104 rlineto
          hintmask 11011100
          -55 callsubr
        </CharString>
        <CharString name="ncommaaccent">
          74 13 callsubr
          -75 callgsubr
          341.5 46 hstem
          105 60 104 52 54 60 vstem
          -105 callsubr
          12 -104 -103 callsubr
        </CharString>
        <CharString name="nine">
          2 -8 42 144 46 245 39 hstem
          45 67 220 68 vstem
          220 -55 callgsubr
        </CharString>
        <CharString name="nine.tf">
          -21 -8 42 144 46 245 39 hstem
          33 67 220 68 vstem
          208 -55 callgsubr
        </CharString>
        <CharString name="notequal">
          -31 133 46 89 46 -46 145 hstemhm
          45 329 hintmask 11010000
          374 133 rmoveto
          46 -164 vlineto
          40 89 rlineto
          124 46 -103 hlineto
          hintmask 10110000
          45 99 rlineto
          -42 hlineto
          hintmask 11010000
          -45 -99 rlineto
          -184 -46 163 hlineto
          -40 -89 rlineto
          -123 -46 102 hlineto
          -44 -96 rlineto
          42 hlineto
          44 96 rlineto
          endchar
        </CharString>
        <CharString name="ntilde">
          74 -40 callgsubr
          48 20 callsubr
          105 60 210 60 hintmask 11010110
          -105 callsubr
          hintmask 11101110
          100 556 -34 callsubr
        </CharString>
        <CharString name="numbersign">
          70 0 171 -39 39 164 38 -38 164 hstemhm
          122 50 -31.5 49 -32 49 101 49.5 -15.5 49 hintmask 1010100100000000
          116 hmoveto
          50 hlineto
          hintmask 0110100100000000
          12 132 rlineto
          135 hlineto
          hintmask 1010010100000000
          -11 -132 rlineto
          49 hlineto
          hintmask 0110010100000000
          12 132 rlineto
          hintmask 0110010010000000
          95 39 -91 hlineto
          14 164 rlineto
          93 38 -89 hlineto
          hintmask 0101010010000000
          11 126 rlineto
          -49 hlineto
          hintmask 0110001010000000
          -11 -126 rlineto
          -135 hlineto
          hintmask 0101001100000000
          11 126 rlineto
          -49 hlineto
          hintmask 0110001100000000
          -11 -126 rlineto
          hintmask 0110010100000000
          -93 -38 89 hlineto
          -15 -164 rlineto
          hintmask 0110100100000000
          -86 -39 81 hlineto
          hintmask 0110010100000000
          54 39 rmoveto
          15 164 rlineto
          135 hlineto
          -16 -164 rlineto
          endchar
        </CharString>
        <CharString name="o">
          -5 callsubr
          hstem
          45 67 240 68 vstem
          -102 callsubr
          endchar
        </CharString>
        <CharString name="oacute">
          -5 callsubr
          209 -20 hstem
          45 67 240 68 vstem
          -102 callsubr
          153 253 rmoveto
          -90 callsubr
        </CharString>
        <CharString name="obreve">
          -5 callsubr
          46 53 hstem
          45 67 240 68 vstem
          -102 callsubr
          317 372 -81 callgsubr
        </CharString>
        <CharString name="ocircumflex">
          -5 callsubr
          hstem
          45 67 240 68 vstem
          -102 callsubr
          82 251 -86 callsubr
        </CharString>
        <CharString name="odieresis">
          -5 callsubr
          61 87 hstemhm
          45 67 -1 84 73 84 0 68 hintmask 11110010
          -102 callsubr
          hintmask 11101100
          150 323 -97 callgsubr
        </CharString>
        <CharString name="oe">
          288 -8 39 -39 45 196 35 118 39 hstemhm
          45 67 240 67 209 64 hintmask 10111110
          112 213 rmoveto
          119 38 54 79 95 28 -78 -105 -118 -37 -54 -79 -96 -28 78 104 vhcurveto
          hintmask 01111110
          579 -123 rmoveto
          -25 13 rlineto
          -40 -23 -48 -26 -47 hhcurveto
          -67 -62 42 139 hvcurveto
          5 0 5 5 vvcurveto
          269 hlineto
          3 15 1 21 12 vvcurveto
          98 -66 46 -82 -68 -55 -31 -54 -33 vhcurveto
          54 -25 -50 31 -74 hhcurveto
          -106 -88 -68 -151 hvcurveto
          hintmask 10111110
          -123 50 -91 130 64 61 24 59 33 vhcurveto
          hintmask 01111110
          -51 29 50 -32 72 hhcurveto
          78 60 41 57 19 hvcurveto
          -158 296 rmoveto
          60 35 -39 -61 -7 0 -51 callsubr
          36 59 hhcurveto
          endchar
        </CharString>
        <CharString name="ogonek">
          -86 -187 42 171 -21 hstem
          93 59 vstem
          270 -23 callgsubr
        </CharString>
        <CharString name="ograve">
          -5 callsubr
          209 -20 hstem
          45 67 240 68 vstem
          -102 callsubr
          128 428 -63 callgsubr
        </CharString>
        <CharString name="ohungarumlaut">
          -5 callsubr
          219 -20 23 -20 hstemhm
          45 67 240 68 hintmask 11011100
          -102 callsubr
          111 264 rmoveto
          -31 callsubr
          hintmask 11101100
          -21 callsubr
        </CharString>
        <CharString name="omacron">
          -5 callsubr
          70 46 hstemhm
          45 67 3 234 3 68 hintmask 11110100
          -102 callsubr
          hintmask 11101000
          70 289 -37 callsubr
        </CharString>
        <CharString name="one">
          -115 0 32 469 -20 28 -20 hstemhm
          159 60 hintmask 11010000
          219 -30 callgsubr
        </CharString>
        <CharString name="one.dnom">
          -82 0 33 hstem
          180 51 vstem
          231 340 rmoveto
          -78 callgsubr
          endchar
        </CharString>
        <CharString name="one.numr">
          -82 228 33 307 -20 25 -20 hstemhm
          176 51 hintmask 11010000
          227 568 rmoveto
          hintmask 10110000
          -78 callgsubr
          endchar
        </CharString>
        <CharString name="one.tf">
          -21 0 32 469 -20 28 -20 hstemhm
          206 60 hintmask 11010000
          266 -30 callgsubr
        </CharString>
        <CharString name="onehalf">
          375 0 39 189 33 45 42 220 -20 25 -20 hstemhm
          143 51 519 57 hintmask 11110110
          194 568 rmoveto
          hintmask 11101110
          -78 callgsubr
          64 -284 rmoveto
          hintmask 11110110
          -16 callgsubr
          336 hmoveto
          -80 callgsubr
        </CharString>
        <CharString name="onequarter">
          375 -9 callsubr
          128.5 33 74 11 222 -20 25 -20 hstemhm
          145 51 491 48 hintmask 01111011
          196 568 rmoveto
          hintmask 10110111
          -78 callgsubr
          64 -284 rmoveto
          hintmask 10111011
          -16 callgsubr
          hintmask 01110111
          319 66 rmoveto
          163 hlineto
          hintmask 10110111
          -66 48 vlineto
          hintmask 01110111
          66 62 41 vlineto
          -70 callgsubr
        </CharString>
        <CharString name="onesuperior">
          -123 228 33 307 -20 25 -20 hstemhm
          156 51 hintmask 11010000
          207 568 rmoveto
          hintmask 10110000
          -78 callgsubr
          endchar
        </CharString>
        <CharString name="ordfeminine">
          -54 247 38 98.5 31.5 116 43 hstem
          50 63 132 58 vstem
          163 285 rmoveto
          -34 -16 16 27 35 27 14 48 4 hvcurveto
          57 5 rlineto
          -74 vlineto
          -16 -21 -32 -11 -29 hhcurveto
          -20 -38 rmoveto
          41 38 16 25 25 hvcurveto
          -26 7 18 -14 27 hhcurveto
          18 27 7 3 9 hvcurveto
          26 vlineto
          -33 3 rlineto
          -11 1 -6 4 12 vvcurveto
          157 vlineto
          77 -38 36 -77 -59 -54 -23 -42 -15 vhcurveto
          14 -14 rlineto
          25 28 33 11 37 hhcurveto
          50 23 -20 -58 hvcurveto
          -38 vlineto
          -67 -5 rlineto
          -58 -4 -70 -19 -65 vvcurveto
          -49 40 -26 53 vhcurveto
          endchar
        </CharString>
        <CharString name="ordmasculine">
          -49 244 33 264 33 hstem
          47 65 177 65 vstem
          289 405 rmoveto
          -90 -28 -38 -58 -70 -21 54 82 90 28 38 58 70 21 -53 -83 vhcurveto
          -242 2 rmoveto
          -98 44 -65 104 88 71 50 117 98 -44 65 -104 -87 -72 -50 -117 vhcurveto
          endchar
        </CharString>
        <CharString name="oslash">
          15 -8 37 -5 -21 384 38 -12 -20 hstemhm
          45 67 241 67 hintmask 10011100
          420 209 rmoveto
          81 -22 68 -51 37 vhcurveto
          32 62 -34 18 -32 -62 rlineto
          hintmask 01101100
          8 -21 -25 4 -28 hhcurveto
          -106 -88 -68 -151 -81 22 -68 52 -36 hvcurveto
          -33 -66 33 -18 35 66 rlineto
          hintmask 10101100
          -7 20 24 -4 27 hhcurveto
          hintmask 10011100
          107 88 68 149 hvcurveto
          hintmask 10101100
          -308 4 rmoveto
          120 37 54 80 26 21 -6 -10 17 vhcurveto
          -147 -301 rlineto
          -25 33 -9 51 59 vvcurveto
          124 -184 rmoveto
          -25 -21 6 10 -17 hvcurveto
          147 300 rlineto
          24 -33 9 -50 -59 vvcurveto
          -119 -38 -55 -79 vhcurveto
          endchar
        </CharString>
        <CharString name="otilde">
          -5 callsubr
          46 20 callsubr
          45 67 240 68 hintmask 11010110
          -102 callsubr
          hintmask 11101110
          332 350 -34 callsubr
        </CharString>
        <CharString name="p">
          41 -180 -75 callgsubr
          136.5 37 -3 -21 374 46 -3 -20 hstemhm
          96 60 225 66 hintmask 11010110
          241 29 rmoveto
          -36 -32 10 12 -17 hvcurveto
          285 vlineto
          22 22 34 21 49 hhcurveto
          84 38 -59 -112 -2 hvcurveto
          -131 -1 -55 -48 -84 hhcurveto
          206 198 rmoveto
          139 -71 59 -93 -62 -40 -26 -32 -27 vhcurveto
          hintmask 10101110
          -4 44 -11 11 -39 -1 -38 -6 -38 -12 rlinecurve
          -30 vlineto
          53 -6 rlineto
          13 -2 6 -9 -13 vvcurveto
          -462 -7 callsubr
          -13 29 callsubr
          -8 8 13 vvcurveto
          124 vlineto
          hintmask 11010110
          -10 25 32 -3 26 hhcurveto
          131 77 90 145 hvcurveto
          endchar
        </CharString>
        <CharString name="paragraph">
          59 0 32 497 39 -39 46 -39 32 hstemhm
          197 55 85 55 hintmask 10101100
          103 -119 rmoveto
          118 42 31 44 124 vvcurveto
          438 vlineto
          29 32 -2 -2 24 hvcurveto
          -525 133 32 vlineto
          -59 11 rlineto
          -11 2 -8 8 11 vvcurveto
          hintmask 10011100
          439 vlineto
          11 7 8 13 2 vhcurveto
          54 12 rlineto
          hintmask 11001100
          32 -79 vlineto
          -67 -55 7 -43 hhcurveto
          hintmask 10101100
          -134 -60 -70 -88 -107 88 -55 81 -3 hvcurveto
          -132 vlineto
          -104 -14 -49 -96 -55 vhcurveto
          endchar
        </CharString>
        <CharString name="parenleft">
          -195 -164 907 66 callgsubr
          38 -105 152 5 259 3 224 87 136 40 49 -25 25 rcurveline
          -40 -39 -127 -159 -250 vvcurveto
          -282 136 -149 31 -28 vhcurveto
          endchar
        </CharString>
        <CharString name="parenright">
          -195 -164 907 hstem
          149 62 vstem
          211 283 rmoveto
          282 -137 150 -30 28 vhcurveto
          -26 -25 30 -38 105 -152 -4 -259 rlinecurve
          -4 -224 -87 -136 -40 -49 26 -24 rcurveline
          39 38 128 159 250 vvcurveto
          endchar
        </CharString>
        <CharString name="partialdiff">
          34 -9 46 293 40 225 46 hstem
          44 71 258 66 vstem
          44 159 rmoveto
          -102 61 -66 100 156 78 163 185 172 -67 130 -152 -62 -50 -21 -39 -31 vhcurveto
          15 -21 rlineto
          20 27 33 15 42 hhcurveto
          122 53 -122 -140 4 hvcurveto
          26 -36 -51 11 -42 hhcurveto
          -113 -87 -89 -122 hvcurveto
          176 -122 rmoveto
          -65 -40 53 83 88 45 69 89 37 51 -12 -28 35 hvcurveto
          -135 -5 -50 -118 -97 hhcurveto
          endchar
        </CharString>
        <CharString name="percent">
          237 0 callsubr
          hintmask 10111111
          39 callgsubr
          hintmask 11011111
          -27 callgsubr
          hintmask 10111111
          41 callsubr
          hintmask 11011111
          67 70 56 103 hvcurveto
          hintmask 10111111
          -215 -2 rmoveto
          65 27 45 47 52 5 callsubr
          endchar
        </CharString>
        <CharString name="period">
          -244 -8 95 hstem
          56 94 vstem
          150 39 rmoveto
          -52 callgsubr
        </CharString>
        <CharString name="periodcentered">
          -230 194 95 hstem
          63 94 vstem
          157 241 rmoveto
          -52 callgsubr
        </CharString>
        <CharString name="perthousand">
          566 0 callsubr
          60 56 156 59 hintmask 1011111111000000
          39 callgsubr
          hintmask 1101110100000000
          -27 callgsubr
          hintmask 1010001100000000
          41 callsubr
          hintmask 1101110100000000
          67 70 56 103 hvcurveto
          hintmask 1010001111000000
          -215 -2 rmoveto
          65 27 45 47 52 5 callsubr
          546 2 rmoveto
          84 -52 61 -82 -68 -69 -55 -104 -84 51 -61 82 68 70 56 103 vhcurveto
          -215 -2 rmoveto
          65 27 45 46 53 5 callsubr
          endchar
        </CharString>
        <CharString name="pi">
          83 -6 59 298 62 -8 8 hstemhm
          312 59 hintmask 11010000
          231 239 rmoveto
          22 112 rlineto
          81 hlineto
          -21 -234 rlineto
          -1 -14 0 -15 -8 vvcurveto
          -55 20 -31 43 38 43 24 31 29 vhcurveto
          -17 27 rlineto
          -14 -24 -28 -9 -19 hhcurveto
          -16 -12 10 48 2 hvcurveto
          11 240 rlineto
          107 hlineto
          hintmask 10110000
          17 54 -11 10 rlineto
          hintmask 11010000
          -321 -2 rlineto
          -73 -42 -24 -85 -22 hvcurveto
          28 -16 rlineto
          45 28 34 18 41 hhcurveto
          44 hlineto
          -21 -83 -30 -113 -54 -74 -59 -34 rlinecurve
          -2 -14 38 -42 65 45 52 61 30 142 rlinecurve
          endchar
        </CharString>
        <CharString name="plus">
          -32 200 47 hstem
          184 49 vstem
          233 56 rmoveto
          83 vlineto
          -2 64 64 -3 rlineto
          78 47 -78 hlineto
          -64 -3 2 64 rlineto
          83 -49 -83 vlineto
          3 -64 -64 3 rlineto
          -79 -47 79 hlineto
          64 3 -3 -64 rlineto
          -83 vlineto
          endchar
        </CharString>
        <CharString name="plusminus">
          -6 0 47 186 46 -46 180 hstemhm
          197 50 hintmask 11010000
          247 99 rmoveto
          73 vlineto
          -3 63 64 -2 rlineto
          79 46 -79 hlineto
          -64 -2 rlineto
          hintmask 10110000
          3 64 rlineto
          72 -50 vlineto
          hintmask 11010000
          -72 vlineto
          3 -64 -64 2 rlineto
          -79 -46 79 hlineto
          64 2 -3 -63 rlineto
          -73 vlineto
          186 -99 rmoveto
          47 -322 -47 vlineto
          endchar
        </CharString>
        <CharString name="product">
          146 -79 32 577 38 -32 32 hstemhm
          115 62 243 61 hintmask 11011000
          481 503 rmoveto
          14 7 7 13 3 vhcurveto
          59 9 rlineto
          32 -523 vlineto
          hintmask 10111000
          -32 vlineto
          7 callsubr
          -8 -13 vvcurveto
          -513 -7 callsubr
          -13 -3 vhcurveto
          -58 -11 rlineto
          -32 206 32 vlineto
          -47 10 rlineto
          -13 3 -6 8 13 vvcurveto
          hintmask 11011000
          543 243 -543 -7 callsubr
          -13 -3 vhcurveto
          -45 -10 rlineto
          -32 205 32 vlineto
          -59 11 rlineto
          -13 3 -1 callgsubr
          endchar
        </CharString>
        <CharString name="q">
          22 -180 -75 callgsubr
          136.5 47 348 38 -13 -20 hstemhm
          44 66 225 60 hintmask 11101100
          211 -8 rmoveto
          53 43 25 30 28 hvcurveto
          -166 -7 callsubr
          -14 -1 vhcurveto
          -62 -7 rlineto
          -32 195 32 vlineto
          -32 6 rlineto
          -12 2 -8 8 13 vvcurveto
          hintmask 11011100
          531 vlineto
          hintmask 11101100
          -13 11 -34 -19 rlineto
          12 -26 -34 9 -37 hhcurveto
          -118 -89 -78 -151 -145 75 -59 92 hvcurveto
          20 47 rmoveto
          -63 -58 34 135 136 63 43 78 31 32 -8 -18 21 hvcurveto
          -282 vlineto
          -24 -29 -34 -16 -41 hhcurveto
          endchar
        </CharString>
        <CharString name="question">
          -71 -8 86 517 40 hstemhm
          31 56.5 -75 callgsubr
          85 -79 50.5 102.5 69 hintmask 01101100
          176 163 rmoveto
          7 64 4 41 11 10 42 36 rlinecurve
          56 47 55 44 73 vvcurveto
          80 -66 77 -108 -61 -54 -25 -26 -31 vhcurveto
          -40 6 -45 11 -36 vhcurveto
          36 hlineto
          7 68 1 14 3 11 11 11 rlinecurve
          14 15 31 14 35 hhcurveto
          63 32 -44 -59 -57 -29 -31 -65 -60 hvcurveto
          -38 -35 -21 -17 -41 vvcurveto
          -24 8 -36 7 -28 vhcurveto
          hintmask 11010100
          64 -128 rmoveto
          25 -17 18 -26 -25 50 callsubr
          25 26 66 callsubr
        </CharString>
        <CharString name="questiondown">
          -77 -218 39 518 86 hstemhm
          26 68 74 86 -57 51 41 57 hintmask 11101100
          200 254 rmoveto
          -6 -64 -4 -41 -11 -10 -43 -36 rlinecurve
          -56 -47 -54 -45 -72 vvcurveto
          -80 65 -77 108 61 55 25 25 31 vhcurveto
          41 -7 44 -10 37 vhcurveto
          -37 hlineto
          -6 -68 -2 -15 -3 -10 -10 -11 rlinecurve
          -14 -15 -32 -15 -35 hhcurveto
          -63 -32 45 59 56 29 32 66 60 hvcurveto
          38 35 21 17 40 vvcurveto
          25 -8 36 -8 28 vhcurveto
          hintmask 11110000
          -64 128 rmoveto
          -26 17 -17 26 25 18 17 26 25 -18 18 -25 -26 -17 -18 -25 vhcurveto
          endchar
        </CharString>
        <CharString name="quotedbl">
          -79 349 263 hstem
          65 53 135 53 vstem
          260 349 30 callsubr
          -174 -263 30 callsubr
          endchar
        </CharString>
        <CharString name="quotedblbase">
          -78 -93 225 hstem
          106 57 88 57 vstem
          163 54 -46 callgsubr
        </CharString>
        <CharString name="quotedblleft">
          -103 451 225 hstem
          44 57 88 57 vstem
          189 529 rmoveto
          -50 callsubr
          -145 hmoveto
          -50 callsubr
          endchar
        </CharString>
        <CharString name="quotedblright">
          -102 444 225 hstem
          106 57 88 57 vstem
          163 591 -46 callgsubr
        </CharString>
        <CharString name="quoteleft">
          -249 451 225 hstem
          44 57 vstem
          44 529 rmoveto
          -50 callsubr
          endchar
        </CharString>
        <CharString name="quoteright">
          -247 444 225 hstem
          106 57 vstem
          163 591 rmoveto
          -11 callgsubr
        </CharString>
        <CharString name="quotesinglbase">
          -223 -93 225 hstem
          106 57 vstem
          163 54 rmoveto
          -11 callgsubr
        </CharString>
        <CharString name="quotesingle">
          -267 349 263 hstem
          65 53 vstem
          72 349 30 callsubr
          endchar
        </CharString>
        <CharString name="r">
          33 callgsubr
          hstemhm
          105 60 hintmask 10011000
          -82 callsubr
          hintmask 11001000
          -34 callgsubr
          hintmask 10101000
          33 callsubr
          hintmask 11001000
          -11 callsubr
          endchar
        </CharString>
        <CharString name="racute">
          33 callgsubr
          232 -20 hstemhm
          105 60 hintmask 10011100
          -82 callsubr
          hintmask 11001100
          -34 callgsubr
          hintmask 10101100
          33 callsubr
          hintmask 11001100
          -11 callsubr
          19 112 rmoveto
          -90 callsubr
        </CharString>
        <CharString name="radical">
          99 -136 816 hstem
          1 543 vstem
          15 171 rmoveto
          62 19 13 4 11 -1 5 -13 rlinecurve
          130 -316 49 7 259 809 rlineto
          -54 hlineto
          -226 -731 -120 311 -15 8 -42 -13 -50 -28 -36 -27 rlinecurve
          endchar
        </CharString>
        <CharString name="rcaron">
          33 callgsubr
          235 22 callsubr
          105 60 hintmask 10010110
          -82 callsubr
          hintmask 11000110
          -34 callgsubr
          hintmask 10100110
          33 callsubr
          hintmask 11000110
          -11 callsubr
          163 291 rmoveto
          -102 -105 rlineto
          hintmask 10011010
          -111 104 rlineto
          hintmask 10010110
          -55 callsubr
        </CharString>
        <CharString name="rcommaaccent">
          -67 13 callsubr
          35 331 59 -10 -20 27 -20 hstemhm
          105 60 -23 52 hintmask 11001100
          -82 callsubr
          hintmask 11100100
          -34 callgsubr
          hintmask 11010100
          33 callsubr
          hintmask 11100100
          -11 callsubr
          hintmask 11001010
          31 -451 -103 callsubr
        </CharString>
        <CharString name="registered">
          203 115 34 95 26.5 100.5 32 121 28 93 33 hstem
          47 38 142 49 119 54 119 37 vstem
          85 397 rmoveto
          144 101 104 140 140 102 -104 -144 -144 -102 -104 -140 -140 -101 104 144 vhcurveto
          -38 hmoveto
          -161 120 -121 159 159 120 121 161 160 -120 121 -159 -159 -120 -120 -161 vhcurveto
          280 6 rmoveto
          -17 -17 0 1 -17 hvcurveto
          116 vlineto
          3 17 10 1 13 hhcurveto
          56 23 -16 -41 -44 -25 -20 -43 hvcurveto
          -9 -135 rmoveto
          -29 5 rlineto
          -9 2 -4 5 9 vvcurveto
          82 61 vlineto
          10 -11 7 -14 7 -14 28 -60 rcurveline
          -20 10 6 -8 17 hhcurveto
          54 28 hlineto
          -27 6 -5 4 -8 13 -30 54 rcurveline
          -9 16 -8 9 -12 6 rrcurveto
          42 9 30 30 51 vvcurveto
          57 -41 26 -72 vhcurveto
          -18 -35 -1 -34 hhcurveto
          -61 -27 hlineto
          25 -5 rlineto
          9 -2 5 -5 -9 vvcurveto
          -214 vlineto
          -9 -5 -5 -8 -2 vhcurveto
          -26 -6 rlineto
          -24 130 vlineto
          endchar
        </CharString>
        <CharString name="ring">
          -86 467 33 95 34 hstem
          91 46 90 46 vstem
          273 548 -73 callgsubr
        </CharString>
        <CharString name="s">
          -67 -8 18 callgsubr
          172 56 hintmask 11101000
          -49 callsubr
          hintmask 11011000
          -98 callgsubr
          hintmask 11101000
          -58 callgsubr
          endchar
        </CharString>
        <CharString name="sacute">
          -67 -8 34 365 34 209 -20 63 callgsubr
          172 56 hintmask 11110100
          -49 callsubr
          hintmask 11101100
          -98 callgsubr
          hintmask 11110100
          -58 callgsubr
          106 436 rmoveto
          hintmask 11101100
          -90 callsubr
        </CharString>
        <CharString name="scaron">
          -67 -8 34 365 34 212 -20 21 -20 63 callgsubr
          172 56 hintmask 11011010
          -49 callsubr
          hintmask 11010110
          -98 callgsubr
          hintmask 11011010
          -58 callgsubr
          hintmask 11010110
          250 615 rmoveto
          -102 -105 rlineto
          hintmask 11100110
          -111 104 rlineto
          hintmask 11010110
          -55 callsubr
        </CharString>
        <CharString name="scedilla">
          -67 21 callsubr
          23 18 callgsubr
          80 61 31 56 hintmask 11111011
          50 23 rmoveto
          24 -12 40 -14 45 -4 -18 -54 rcurveline
          -92 callsubr
          hintmask 10110111
          7 23 rlineto
          89 62 44 75 75 -64 30 -66 25 hvcurveto
          -98 callgsubr
          hintmask 10111011
          -38 -30 12 9 -14 hvcurveto
          -10 6 -4 7 -4 17 -14 55 rcurveline
          -34 hlineto
          hintmask 11111011
          -4 -31 -2 -38 5 -40 rrcurveto
          endchar
        </CharString>
        <CharString name="scircumflex">
          -67 -8 18 callgsubr
          172 56 hintmask 11101000
          -49 callsubr
          hintmask 11011000
          -98 callgsubr
          hintmask 11101000
          -58 callgsubr
          35 434 -86 callsubr
        </CharString>
        <CharString name="scommaaccent">
          -67 -167 -21 180 18 callgsubr
          69 52 51 56 hintmask 11110110
          -49 callsubr
          hintmask 11101110
          -98 callgsubr
          hintmask 11110110
          -58 callgsubr
          hintmask 11101110
          183 -127 -103 callsubr
        </CharString>
        <CharString name="second">
          -103 417 -20 hstem
          52 260 vstem
          52 417 rmoveto
          32 callgsubr
          117 hmoveto
          32 callgsubr
          endchar
        </CharString>
        <CharString name="section">
          16 -103 37 627 37 hstemhm
          48 56 -33 58 215 59 -41 56 hintmask 11011000
          65 -60 rmoveto
          -19 32 61 -24 77 hhcurveto
          111 57 54 72 44 -21 27 -37 23 hvcurveto
          hintmask 11010100
          42 22 31 40 53 vvcurveto
          72 -56 33 -91 41 vhcurveto
          -83 37 -59 21 55 vvcurveto
          40 31 30 65 38 37 -10 -12 18 vhcurveto
          10 -8 5 -7 2 -11 12 -71 rcurveline
          38 hlineto
          7 40 3 41 -3 40 rrcurveto
          18 -28 -64 17 -64 hhcurveto
          -113 -52 -54 -68 -43 21 -29 33 -23 hvcurveto
          hintmask 11101000
          -43 -22 -34 -41 -55 vvcurveto
          -70 55 -34 95 -43 vhcurveto
          90 -40 56 -16 -53 vvcurveto
          -43 -35 -30 -65 -44 -39 12 18 -22 vhcurveto
          -11 8 -4 8 -1 9 -13 72 rcurveline
          -38 hlineto
          hintmask 11011000
          -7 -41 -2 -40 2 -40 rrcurveto
          196 217 rmoveto
          hintmask 11100100
          -103 45 -54 25 54 vvcurveto
          31 18 33 27 20 vhcurveto
          18 -10 20 -9 21 -9 rrcurveto
          102 -45 52 -24 -53 vvcurveto
          -31 -18 -32 -26 -21 vhcurveto
          hintmask 11011000
          -17 9 -19 8 -21 9 rrcurveto
          endchar
        </CharString>
        <CharString name="semicolon">
          -209 301 95 hstemhm
          73 94 -49 57 hintmask 10100000
          175 24 rmoveto
          53 -28 24 -29 -26 -19 -21 -24 -24 15 -13 13 -8 vhcurveto
          11 -5 6 -4 -17 vvcurveto
          -32 -19 -37 -40 -34 vhcurveto
          15 -20 rlineto
          60 36 41 60 66 vvcurveto
          hintmask 11000000
          -8 325 16 callsubr
          endchar
        </CharString>
        <CharString name="seven">
          -45 28 callsubr
          148 59 hintmask 10110000
          331 -38 callgsubr
        </CharString>
        <CharString name="seven.tf">
          -21 28 callsubr
          160 59 hintmask 10110000
          343 -38 callgsubr
        </CharString>
        <CharString name="six">
          3 -8 38 246 45 144 43 hstem
          51 69 220 67 vstem
          230 -54 callgsubr
        </CharString>
        <CharString name="six.tf">
          -21 -8 38 246 45 144 43 hstem
          39 69 220 67 vstem
          218 -54 callgsubr
        </CharString>
        <CharString name="slash">
          -107 633 -20 hstem
          29 286 vstem
          85 -105 rmoveto
          230 738 rlineto
          -56 hlineto
          -230 -738 rlineto
          endchar
        </CharString>
        <CharString name="space">
          -225 endchar
        </CharString>
        <CharString name="sterling">
          26 52 callsubr
          123 63 204 43 hintmask 10111100
          433 9 callsubr
          -18 -27 -39 -45 -53 28 -67 31 callgsubr
          43 25 35 19 21 -3 -10 15 34 callgsubr
          -2 38 rrcurveto
          16 -34 -34 8 -29 hhcurveto
          -92 -76 3 callgsubr
          76 55 -56 76 hhcurveto
          56 40 30 66 hvcurveto
          endchar
        </CharString>
        <CharString name="sterling.tf">
          -21 52 callsubr
          101 63 195 43 hintmask 10111100
          402 9 callsubr
          -17 -27 -40 -42 -51 28 -63 31 callgsubr
          39 25 32 18 19 -3 -10 14 34 callgsubr
          -1 38 rrcurveto
          16 -33 -33 8 -29 hhcurveto
          -87 -73 3 callgsubr
          73 52 -56 74 hhcurveto
          55 40 30 66 hvcurveto
          endchar
        </CharString>
        <CharString name="summation">
          41 -79 50 444 153 -36 36 -27 27 hstemhm
          389 33 -9 32 hintmask 10100100
          431 -79 rmoveto
          9 57 4 61 1 46 -32 5 rcurveline
          -25 -90 -3 -10 -6 -7 -11 -4 rlinecurve
          -5 -16 -27 -3 -42 hhcurveto
          -180 hlineto
          206 293 -196 268 rlineto
          154 hlineto
          hintmask 10101000
          37 26 -2 -6 18 hvcurveto
          hintmask 11001000
          11 -5 6 -6 4 -14 20 -84 rcurveline
          33 hlineto
          hintmask 10101000
          5 62 -2 47 -4 44 rrcurveto
          -373 hlineto
          hintmask 10011000
          -17 -27 212 -291 -215 -303 17 -26 rlineto
          endchar
        </CharString>
        <CharString name="t">
          -121 -8 -22 callgsubr
          hintmask 11010000
          -53 callsubr
          hintmask 10110000
          -22 -105 -2 -25 callgsubr
          endchar
        </CharString>
        <CharString name="tbar">
          -119 -8 48 187 41 101 44 -43.5 36.5 hstemhm
          91 61 hintmask 11101000
          29 227 rmoveto
          62 -130 hlineto
          -84 53 -21 55 61 callgsubr
          vhcurveto
          -21 18 rlineto
          -22 -19 -27 -13 -35 hhcurveto
          -39 -24 15 66 hvcurveto
          106 139 41 -139 101 143 44 -143 121 -36 vlineto
          hintmask 11011000
          -21 -105 -3 -25 callgsubr
          -98 -62 vlineto
          endchar
        </CharString>
        <CharString name="tcaron">
          -121 -8 -22 callgsubr
          11 callgsubr
          hintmask 11010000
          -53 callsubr
          hintmask 10111000
          -22 -105 -2 -25 callgsubr
          146 114 -35 callsubr
        </CharString>
        <CharString name="thorn">
          21 -180 -75 callgsubr
          136.5 37 -3 -21 374 46 219 -20 29 -20 hstemhm
          76 60 225 65 hintmask 11011011
          221 29 rmoveto
          -37 -30 10 11 -18 hvcurveto
          290 vlineto
          22 22 36 17 45 hhcurveto
          81 43 -53 -118 -2 hvcurveto
          -129 -2 -53 -50 -85 hhcurveto
          205 198 rmoveto
          140 -70 58 -95 -56 -39 -21 -30 -30 vhcurveto
          270 vlineto
          -10 9 rlineto
          hintmask 10110111
          -40 -1 -47 -7 -40 -12 rrcurveto
          -27 vlineto
          56 -8 rlineto
          13 -2 8 -7 -13 vvcurveto
          -695 -7 callsubr
          -14 29 callsubr
          -1 callgsubr
          124 vlineto
          hintmask 11010111
          -9 24 30 -4 27 hhcurveto
          hintmask 11011011
          132 77 89 146 hvcurveto
          endchar
        </CharString>
        <CharString name="three">
          -33 57 callgsubr
          278 64 -43 70 hintmask 11110100
          369 -59 callgsubr
        </CharString>
        <CharString name="three.dnom">
          -82 -5 38 119 37 119 40 hstemhm
          235 55 -33 57 hintmask 11110000
          49 44 rmoveto
          -27 23 50 -22 57 hhcurveto
          hintmask 11101000
          80 55 43 57 50 -42 33 -61 hvcurveto
          hintmask 11110000
          -53 callgsubr
          -38 -33 -24 -58 hvcurveto
          -16 -37 hlineto
          hintmask 11101000
          -21 callgsubr
          endchar
        </CharString>
        <CharString name="three.numr">
          -82 53 callgsubr
          238 55 -33 57 hintmask 10111000
          52 -51 callgsubr
        </CharString>
        <CharString name="three.tf">
          -21 57 callgsubr
          284 64 -43 70 hintmask 11110100
          375 -59 callgsubr
        </CharString>
        <CharString name="threequarters">
          383 -9 callsubr
          123.5 38 74 11 34 26 -26 37 119 40 -8 -20 hstemhm
          222 55 -33 57 394 48 hintmask 0111011010100000
          36 272 rmoveto
          -27 23 50 -22 57 hhcurveto
          hintmask 0111101001100000
          80 55 43 57 50 -42 33 -61 hvcurveto
          hintmask 0111101010100000
          -53 callgsubr
          hvcurveto
          hintmask 0111011010100000
          -38 -33 -24 -58 vhcurveto
          -16 -37 hlineto
          hintmask 1011010101100000
          -21 callgsubr
          215 -296 rmoveto
          -16 callgsubr
          hintmask 0111011010100000
          319 66 rmoveto
          163 hlineto
          hintmask 1011011010100000
          -66 48 vlineto
          hintmask 0111011010100000
          66 62 41 vlineto
          -70 callgsubr
        </CharString>
        <CharString name="threesuperior">
          -94 53 callgsubr
          232 55 -33 57 hintmask 10111000
          46 -51 callgsubr
        </CharString>
        <CharString name="tilde">
          -86 471 20 callsubr
          37 290 hintmask 10110000
          327 -31 callgsubr
        </CharString>
        <CharString name="tildecomb">
          471 20 callsubr
          -145 290 hintmask 10110000
          145 -31 callgsubr
        </CharString>
        <CharString name="tildecomb.case">
          617 43 callgsubr
          -151 302 hintmask 10010000
          151 702 -12 callgsubr
          hintmask 01110000
          -61 callgsubr
          hintmask 10010000
          37 33 -52 52 hhcurveto
          48 36 46 39 12 hvcurveto
          endchar
        </CharString>
        <CharString name="trademark">
          354 283 27.5 226.5 31 hstem
          158 53 126 116 166 129 vstem
          267 283 rmoveto
          25 vlineto
          -38 5 rlineto
          -12 2 -6 6 11 vvcurveto
          205 52 vlineto
          11 6 -6 -10 2 hvcurveto
          12 -52 rlineto
          25 hlineto
          2 35 0 33 -4 31 rrcurveto
          -262 hlineto
          -6 -31 0 -34 2 -34 rrcurveto
          25 hlineto
          12 52 rlineto
          10 2 7 6 11 hhcurveto
          50 -205 hlineto
          -11 -6 -5 -11 -3 vhcurveto
          -37 -6 rlineto
          -24 vlineto
          349 hmoveto
          25 vlineto
          -41 8 25 206 83 -242 rlineto
          33 hlineto
          76 239 28 -203 -38 -8 rlineto
          -25 129 25 vlineto
          -23 5 -10 3 -6 5 -2 11 rlinecurve
          -27 184 -1 12 7 6 11 2 rlinecurve
          26 4 rlineto
          28 -112 vlineto
          -66 -212 -70 212 rlineto
          -115 -28 hlineto
          26 -4 11 -2 8 -6 -2 -12 rlinecurve
          -23 -184 -1 -11 -6 -5 -11 -3 rlinecurve
          -25 -5 rlineto
          -25 vlineto
          endchar
        </CharString>
        <CharString name="two">
          -57 callgsubr
        </CharString>
        <CharString name="two.dnom">
          -82 0 39 267 42 hstem
          234 57 vstem
          60 hmoveto
          -80 callgsubr
        </CharString>
        <CharString name="two.numr">
          -82 228 39 232 -20 55 42 hstem
          236 57 vstem
          62 228 rmoveto
          -80 callgsubr
        </CharString>
        <CharString name="two.tf">
          -57 callgsubr
        </CharString>
        <CharString name="twosuperior">
          -82 228 39 232 -20 55 42 hstem
          236 57 vstem
          62 228 rmoveto
          -80 callgsubr
        </CharString>
        <CharString name="u">
          51 -8 45 -30 31 334 50 0 57 callsubr
          hintmask 10011100
          473 7 rmoveto
          hintmask 01011100
          -88 callgsubr
          hintmask 10101100
          -106 callgsubr
          -30 6 16 -25 37 hhcurveto
          hintmask 10011100
          21 -4 callsubr
          endchar
        </CharString>
        <CharString name="uacute">
          -45 callsubr
          232 57 callsubr
          hintmask 10001111
          473 7 rmoveto
          hintmask 01001111
          -88 callgsubr
          hintmask 10010111
          -106 callgsubr
          -30 6 16 -25 37 hhcurveto
          hintmask 10001111
          21 -4 callsubr
          -275 452 rmoveto
          hintmask 00101111
          -90 callsubr
        </CharString>
        <CharString name="ubreve">
          -45 callsubr
          69 53 19 callsubr
          hintmask 10001111
          473 7 rmoveto
          hintmask 01001111
          -88 callgsubr
          hintmask 10010111
          -106 callgsubr
          -30 6 16 -25 37 hhcurveto
          hintmask 10001111
          21 -4 callsubr
          hintmask 00101111
          -111 571 -81 callgsubr
        </CharString>
        <CharString name="ucircumflex">
          51 -8 45 -30 31 334 50 0 57 callsubr
          hintmask 10011100
          473 7 rmoveto
          hintmask 01011100
          -88 callgsubr
          hintmask 10101100
          -106 callgsubr
          -30 6 16 -25 37 hhcurveto
          hintmask 10011100
          21 -4 callsubr
          -346 450 -86 callsubr
        </CharString>
        <CharString name="udieresis">
          -45 callsubr
          84 87 hstemhm
          89 60 -38 84 73 84 -5 60 hintmask 1000111001000000
          473 7 rmoveto
          hintmask 0100111001000000
          -88 callgsubr
          hintmask 1001011001000000
          -106 callgsubr
          -30 6 16 -25 37 hhcurveto
          hintmask 1000111001000000
          21 -4 callsubr
          hintmask 0010110110000000
          -278 522 -97 callgsubr
        </CharString>
        <CharString name="ugrave">
          -45 callsubr
          232 57 callsubr
          hintmask 10001111
          473 7 rmoveto
          hintmask 01001111
          -88 callgsubr
          hintmask 10010111
          -106 callgsubr
          -30 6 16 -25 37 hhcurveto
          hintmask 10001111
          21 -4 callsubr
          hintmask 00101111
          -300 627 -63 callgsubr
        </CharString>
        <CharString name="uhungarumlaut">
          -45 callsubr
          242 -20 23 57 callsubr
          hintmask 1000101110000000
          473 7 rmoveto
          hintmask 0100101110000000
          -88 callgsubr
          hintmask 1001001110000000
          -106 callgsubr
          -30 6 16 -25 37 hhcurveto
          hintmask 1000101110000000
          21 -4 callsubr
          -317 463 rmoveto
          hintmask 0010101110000000
          -31 callsubr
          hintmask 0010110110000000
          -21 callsubr
        </CharString>
        <CharString name="umacron">
          -45 callsubr
          93 46 hstemhm
          89 60 -34 234 -2 60 hintmask 1000111010000000
          473 7 rmoveto
          hintmask 0100111010000000
          -88 callgsubr
          hintmask 1001011010000000
          -106 callgsubr
          -30 6 16 -25 37 hhcurveto
          hintmask 1000111010000000
          21 -4 callsubr
          hintmask 0010110100000000
          -358 488 -37 callsubr
        </CharString>
        <CharString name="underscore">
          187 -132 41 hstem
          0 637 vstem
          -91 vmoveto
          -41 637 41 vlineto
          endchar
        </CharString>
        <CharString name="uni000D">
          endchar
        </CharString>
        <CharString name="uni00A0">
          -225 endchar
        </CharString>
        <CharString name="uni00AD">
          -39 194 45 hstem
          63 285 vstem
          63 194 rmoveto
          285 45 -285 hlineto
          endchar
        </CharString>
        <CharString name="uni00B5">
          75 39 callsubr
          86 58 207 60 hintmask 11001110
          149 -66 callsubr
        </CharString>
        <CharString name="uni0162">
          89 21 callsubr
          31 -6 callsubr
          -21 61 131 35 hintmask 10101101
          -41 callgsubr
          hintmask 10110101
          -8 callgsubr
          hintmask 10101101
          0 callgsubr
          hintmask 10110101
          7 callgsubr
          hintmask 10101101
          -59 callsubr
          hintmask 11101011
          115 hlineto
          -20 -61 rlineto
          -92 callsubr
          10 31 rlineto
          endchar
        </CharString>
        <CharString name="uni0163">
          -121 21 callsubr
          23 -22 callgsubr
          36 61 hintmask 10110100
          90 97 rmoveto
          hintmask 11110110
          -61 28 -28 37 -11 vhcurveto
          -19 -58 rlineto
          -92 callsubr
          hintmask 10110110
          8 23 rlineto
          4 4 0 5 hhcurveto
          61 callgsubr
          hvcurveto
          -21 18 rlineto
          -22 -19 -27 -13 -35 hhcurveto
          -39 -24 15 66 hvcurveto
          248 143 44 -143 121 -36 vlineto
          hintmask 10101100
          -22 -105 -2 -25 callgsubr
          endchar
        </CharString>
        <CharString name="uni018F">
          95 -8 39 209 36 264 36 hstem
          46 68 313 69 vstem
          253 -8 rmoveto
          141 102 102 192 193 -100 97 -157 -63 -59 -15 -27 -46 hvcurveto
          -3 -36 6 -55 6 -36 rrcurveto
          36 hlineto
          15 81 1 8 5 8 9 7 rlinecurve
          16 19 35 13 43 hhcurveto
          109 74 -87 -177 1 hvcurveto
          -376 hlineto
          -3 -19 -2 -22 -25 vvcurveto
          -147 89 -71 118 vhcurveto
          6 39 rmoveto
          -88 -57 57 109 20 2 13 1 10 hvcurveto
          309 hlineto
          -139 -8 -62 -70 -97 hhcurveto
          endchar
        </CharString>
        <CharString name="uni0192">
          -67 -171 -21 434 44 -43 38.5 176.5 50 hstemhm
          106 60.5 -50 61 hintmask 11011000
          123 -103 rmoveto
          18 33 10 49 10 125 11 138 rcurveline
          hintmask 11010100
          119 44 -116 hlineto
          5 49 rlineto
          96 8 35 27 47 hhcurveto
          10 15 -3 -8 7 hvcurveto
          6 -6 0 -9 1 -12 4 -43 rcurveline
          33 hlineto
          10 39 9 44 1 31 rrcurveto
          12 -17 -32 5 -19 hhcurveto
          -74 -96 -69 -124 -10 hvcurveto
          hintmask 10110100
          -3 -29 rlineto
          hintmask 10111000
          -76 -9 rlineto
          -30 vlineto
          72 -8 -10 -132 -12 -165 -13 -41 -86 -65 rlinecurve
          19 -28 rlineto
          hintmask 11011000
          51 20 42 31 21 38 rrcurveto
          endchar
        </CharString>
        <CharString name="uni01FC">
          -84 callsubr
          350 446 -92 callgsubr
          endchar
        </CharString>
        <CharString name="uni01FD">
          20 callgsubr
          209 -20 44 callsubr
          63 210 64 hintmask 1010111110000000
          -29 callsubr
          hintmask 1111011110000000
          -33 callgsubr
          hintmask 1010111110000000
          -18 callgsubr
          hintmask 1110111110000000
          27 callsubr
          hintmask 1010111110000000
          -39 -38 -55 -16 -40 hhcurveto
          145 423 rmoveto
          -90 callsubr
        </CharString>
        <CharString name="uni021A">
          89 13 callsubr
          -6 callsubr
          -32 52 151 35 hintmask 11011010
          -41 callgsubr
          hintmask 11101010
          -8 callgsubr
          hintmask 11011010
          0 callgsubr
          hintmask 11101010
          7 callgsubr
          hintmask 11011010
          -59 callsubr
          hintmask 11010110
          187 -104 -103 callsubr
        </CharString>
        <CharString name="uni021B">
          -121 -167 -21 180 -22 callgsubr
          25 52 hintmask 11101000
          -53 callsubr
          hintmask 11011000
          -22 -105 -2 -25 callgsubr
          hintmask 11101100
          138 -470 -103 callsubr
        </CharString>
        <CharString name="uni0259">
          -24 -8 38 139 35 175 46 hstem
          43 62 212 65 vstem
          382 212 rmoveto
          146 -79 67 -104 -58 -57 -22 -49 -30 vhcurveto
          19 -19 rlineto
          26 27 36 18 46 hhcurveto
          66 66 -38 -137 3 hvcurveto
          -270 hlineto
          -3 -16 -1 -23 -14 vvcurveto
          -106 65 -53 87 102 85 70 150 vhcurveto
          -178 -182 rmoveto
          -67 -32 46 62 13 1 10 1 8 hvcurveto
          209 hlineto
          -103 -6 -46 -36 -60 hhcurveto
          endchar
        </CharString>
        <CharString name="uni02BC">
          -154 642 -20 hstem
          132 61 vstem
          193 -27 callsubr
        </CharString>
        <CharString name="uni02C9">
          -86 502 46 hstem
          64 235 vstem
          64 502 rmoveto
          235 46 -235 hlineto
          endchar
        </CharString>
        <CharString name="uni0302">
          457 166 hstem
          -129 261 vstem
          -105 457 -86 callsubr
        </CharString>
        <CharString name="uni0302.case">
          632 -20 hstem
          -135 269 vstem
          -113 606 -93 callsubr
          endchar
        </CharString>
        <CharString name="uni0304">
          495 46 hstem
          -117 234 vstem
          -117 495 -37 callsubr
        </CharString>
        <CharString name="uni0304.case">
          640 46 hstem
          -117 234 vstem
          -117 640 -37 callsubr
        </CharString>
        <CharString name="uni0306">
          471 53 hstem
          -130 260 vstem
          130 578 -81 callgsubr
        </CharString>
        <CharString name="uni0306.case">
          613 53 hstem
          -132 264 vstem
          132 716 -79 callgsubr
          endchar
        </CharString>
        <CharString name="uni0307">
          486 96 hstem
          -41 96 vstem
          55 534 -97 callsubr
        </CharString>
        <CharString name="uni0307.case">
          622 96 hstem
          -48 96 vstem
          48 670 -97 callsubr
        </CharString>
        <CharString name="uni0308">
          486 87 hstem
          -121 84 73 84 vstem
          -37 529 -97 callgsubr
        </CharString>
        <CharString name="uni0308.case">
          622 86 hstem
          -128 84 88 84 vstem
          -44 665 -95 callsubr
          endchar
        </CharString>
        <CharString name="uni030A">
          467 33 95 34 hstem
          -91 46 90 46 vstem
          91 548 -73 callgsubr
        </CharString>
        <CharString name="uni030A.case">
          597 35 96 35 hstem
          -93 47 93 46 vstem
          93 681 -30 callsubr
        </CharString>
        <CharString name="uni030B">
          644 -20 23 -20 hstemhm
          -97 280 hintmask 01100000
          -76 470 rmoveto
          -31 callsubr
          hintmask 10100000
          -21 callsubr
        </CharString>
        <CharString name="uni030B.case">
          599 156 hstem
          -118 316 vstem
          -97 599 -44 callsubr
        </CharString>
        <CharString name="uni030C">
          637 22 callsubr
          -128 262 hintmask 01100000
          110 638 rmoveto
          -102 -105 rlineto
          hintmask 10100000
          -111 104 rlineto
          hintmask 01100000
          -55 callsubr
        </CharString>
        <CharString name="uni030C.case">
          609 137 hstem
          -135 269 vstem
          112 746 -76 callgsubr
        </CharString>
        <CharString name="uni0326">
          -167 -21 hstem
          -1 52 vstem
          51 -104 -103 callsubr
        </CharString>
        <CharString name="uni0327">
          21 callsubr
          hstem
          10 61 vstem
          -15 19 rmoveto
          -26 -80 rlineto
          -92 callsubr
          16 50 rlineto
          endchar
        </CharString>
        <CharString name="uni0328">
          -187 42 171 -21 hstem
          -89 59 vstem
          88 -23 callgsubr
        </CharString>
        <CharString name="uni0394">
          70 0 53 454 63 0 -20 hstemhm
          28 468 hintmask 10110000
          481 -16 callsubr
        </CharString>
        <CharString name="uni03A9">
          247 0 43 494 38 hstemhm
          97 68 370 68 15 32 hintmask 11110000
          285 -77 callsubr
        </CharString>
        <CharString name="uni03BC">
          57 39 callsubr
          79 58 207 60 hintmask 11001110
          142 -66 callsubr
        </CharString>
        <CharString name="uni1E9E">
          152 -8 37 -29 32 468 -20 60 36 hstemhm
          107 62 326 64 hintmask 10111100
          559 156 rmoveto
          105 -80 53 -92 30 vhcurveto
          117 176 -4 22 rlineto
          18 -52 -68 16 -64 hhcurveto
          -153 -56 -93 -155 hvcurveto
          hintmask 01111100
          -262 vlineto
          -12 -6 -9 32 callsubr
          140 343 vlineto
          123 42 74 92 46 48 -18 -22 34 vhcurveto
          -110 -188 5 -13 rlineto
          85 -18 84 -48 -97 vvcurveto
          hintmask 10111100
          -63 -36 -44 -62 -35 -34 15 13 -13 vhcurveto
          -9 8 -2 7 -2 9 -13 81 rcurveline
          -38 hlineto
          -7 -45 -2 -46 2 -46 rrcurveto
          -16 32 56 -17 54 hhcurveto
          114 59 73 91 hvcurveto
          endchar
        </CharString>
        <CharString name="uni2003">
          234 endchar
        </CharString>
        <CharString name="uni2009">
          -326 endchar
        </CharString>
        <CharString name="uni20B9">
          14 64 callsubr
          252 155 -154 68 hintmask 11110100
          391 -63 callsubr
        </CharString>
        <CharString name="uni20B9.tf">
          -21 64 callsubr
          229 155 -154 68 hintmask 11110100
          368 -63 callsubr
        </CharString>
        <CharString name="uni20BA">
          34 0 40 459 -20 hstem
          135 60 189 59 vstem
          187 hmoveto
          158 98 74 137 11 0 8 -2 9 hvcurveto
          -57 -9 rlineto
          -136 -71 -54 -118 23 callsubr
          150 67 rlineto
          42 vlineto
          -150 -67 rlineto
          135 -60 -162 vlineto
          -88 -39 rlineto
          -42 vlineto
          88 39 rlineto
          -64 vlineto
          -91 -40 rlineto
          -42 vlineto
          91 40 rlineto
          -189 vlineto
          endchar
        </CharString>
        <CharString name="uni20BA.tf">
          -21 0 40 459 -20 hstem
          101 59 182 59 vstem
          153 hmoveto
          153 95 73 134 12 0 7 -1 9 hvcurveto
          -58 -9 rlineto
          -133 -68 -53 -114 23 callsubr
          151 67 rlineto
          42 vlineto
          -151 -67 rlineto
          135 -59 -162 vlineto
          -84 -37 rlineto
          -41 vlineto
          84 37 rlineto
          -65 vlineto
          -87 -38 rlineto
          -42 vlineto
          87 38 rlineto
          -189 vlineto
          endchar
        </CharString>
        <CharString name="uni20BD">
          45 42 callsubr
          146 59 188 67 hintmask 10101110
          205 464 rmoveto
          1 18 24 4 30 hhcurveto
          76 40 -22 -74 -81 -48 -30 -93 hvcurveto
          -47 hlineto
          hintmask 01101110
          -144 -133 rmoveto
          85 hlineto
          hintmask 10101110
          -64 vlineto
          -12 -7 -8 -12 13 callgsubr
          244 vlineto
          hintmask 01101110
          32 vlineto
          -89 12 rlineto
          -11 1 -7 9 11 vvcurveto
          64 167 vlineto
          hintmask 10101110
          36 -167 61 64 vlineto
          106 85 46 106 107 -88 20 -83 hvcurveto
          hintmask 10110110
          -44 -29 -6 -42 hhcurveto
          -106 -32 hlineto
          61 -12 rlineto
          10 -2 7 -10 -10 vvcurveto
          -171 -85 -36 85 -61 -85 vlineto
          endchar
        </CharString>
        <CharString name="uni20BD.tf">
          -21 42 callsubr
          115 58 180 67 hintmask 10101110
          173 464 rmoveto
          1 18 20 4 29 hhcurveto
          73 40 -23 -73 -81 -49 -30 -91 hvcurveto
          -40 hlineto
          hintmask 01101110
          -136 -133 rmoveto
          78 hlineto
          hintmask 10101110
          -64 vlineto
          -12 -7 43 callsubr
          244 vlineto
          hintmask 01101110
          32 vlineto
          -88 49 callgsubr
          64 161 vlineto
          hintmask 10101110
          36 -161 61 57 vlineto
          104 86 46 106 107 -89 20 -80 hvcurveto
          hintmask 10110110
          -42 -26 -6 -40 hhcurveto
          -107 -32 hlineto
          62 -12 rlineto
          10 -2 7 -10 -10 vvcurveto
          -171 -78 -36 78 -61 -78 vlineto
          endchar
        </CharString>
        <CharString name="uni2113">
          -54 -8 54 518 40 hstem
          89 60 162 60 vstem
          317 119 rmoveto
          -42 -19 -30 -31 -37 hhcurveto
          -33 -20 25 35 -12 hvcurveto
          133 117 72 151 115 vvcurveto
          84 -38 31 -44 -103 -97 -173 -215 -44 4 -38 8 -31 vhcurveto
          -22 -17 -25 -17 -26 -16 19 -32 rcurveline
          24 14 22 14 21 16 rrcurveto
          -49 22 35 -24 44 hhcurveto
          67 45 56 55 17 hvcurveto
          -195 131 rmoveto
          175 64 155 55 21 22 -22 -67 -96 -46 -123 -110 -106 vhcurveto
          -4 27 -2 29 28 vvcurveto
          endchar
        </CharString>
        <CharString name="uni2126">
          235 0 43 494 38 hstemhm
          90 68 370 68 15 32 hintmask 11110000
          278 -77 callsubr
        </CharString>
        <CharString name="uni2190">
          106 254 49 hstem
          41 474 vstem
          515 254 rmoveto
          49 -349 vlineto
          9 callgsubr
          endchar
        </CharString>
        <CharString name="uni2191">
          55 callsubr
          52 rmoveto
          50 349 hlineto
          -4 38 159 -160 34 33 -214 214 -214 -214 33 -33 160 160 -4 -38 rlineto
          endchar
        </CharString>
        <CharString name="uni2192">
          106 254 49 hstem
          41 474 vstem
          300 64 rmoveto
          215 215 -215 214 -33 -34 161 -160 -38 4 rlineto
          -349 -49 349 hlineto
          38 4 -161 -160 rlineto
          endchar
        </CharString>
        <CharString name="uni2193">
          55 callsubr
          526 rmoveto
          -349 vlineto
          4 -38 -160 160 -33 -33 214 -214 214 214 -34 33 -159 -160 4 38 rlineto
          349 vlineto
          endchar
        </CharString>
        <CharString name="uni2194">
          456 254 49 hstem
          41 863 vstem
          904 279 rmoveto
          -214 214 -33 -34 160 -160 -38 4 rlineto
          -613 hlineto
          9 callgsubr
          613 hlineto
          38 4 -160 -160 33 -34 rlineto
          endchar
        </CharString>
        <CharString name="uni2195">
          106 497 -20 hstem
          253 50 vstem
          278 712 rmoveto
          -214 -215 34 -33 159 160 -4 -37 rlineto
          -614 vlineto
          4 -37 -159 160 -34 -33 214 -214 214 214 -33 33 -160 -161 4 38 rlineto
          614 vlineto
          -4 38 160 -161 33 33 rlineto
          endchar
        </CharString>
        <CharString name="uni2206">
          71 0 53 454 63 0 -20 hstemhm
          27 468 hintmask 10110000
          480 -16 callsubr
        </CharString>
        <CharString name="uni2215">
          4 callgsubr
        </CharString>
        <CharString name="uni25CA">
          -2 21 -21 hstem
          29 391 vstem
          224 81 rmoveto
          -123 182 -12 18 124 174 12 16 123 -174 12 -17 -124 -182 rlineto
          -12 -98 rmoveto
          54 75 142 205 -53 74 -143 197 -53 -72 -142 -200 52 -75 rlineto
          endchar
        </CharString>
        <CharString name="uogonek">
          51 -187 42 137 45 -30 31 -10 -21 365 50 0 -20 hstemhm
          89 60 138 58 2 60 hintmask 1001011010000000
          464 30 callgsubr
          hintmask 1001011100000000
          -8 -18 -19 -4 -16 hhcurveto
          -31 -23 14 30 38 38 37 51 23 hvcurveto
          hintmask 1001011010000000
          15 2 14 4 10 4 rrcurveto
          hintmask 1010011010000000
          -88 callgsubr
          hintmask 1100101010000000
          -106 callgsubr
          4 -23 11 -20 21 -8 rrcurveto
          -1 vlineto
          hintmask 1001011100000000
          -48 62 callsubr
          hintmask 1001011010000000
          33 34 11 16 23 hvcurveto
          endchar
        </CharString>
        <CharString name="uring">
          -45 callsubr
          65 33 95 34 hstemhm
          89 60 -8 46 90 46 24 60 hintmask 1000111100100000
          473 7 rmoveto
          hintmask 0100111100100000
          -88 callgsubr
          hintmask 1001011100100000
          -106 callgsubr
          -30 6 16 -25 37 hhcurveto
          hintmask 1000111100100000
          21 -4 callsubr
          hintmask 0010111011100000
          -150 541 -73 callgsubr
        </CharString>
        <CharString name="utilde">
          -45 callsubr
          69 51 -1 52 -4 57 callsubr
          hintmask 1000101011000000
          473 7 rmoveto
          hintmask 0100101011000000
          -88 callgsubr
          hintmask 1001001011000000
          -106 callgsubr
          -30 6 16 -25 37 hhcurveto
          hintmask 1000101011000000
          21 -4 callsubr
          hintmask 0010110111000000
          -96 549 -23 callsubr
          hintmask 0010101011000000
          -64 callsubr
          hintmask 0010110011000000
          36 32 -50 50 hhcurveto
          hintmask 0010110111000000
          50 30 46 39 12 hvcurveto
          endchar
        </CharString>
        <CharString name="v">
          -5 383 30 hstem
          8 180 89 156 vstem
          199 -6 rmoveto
          53 hlineto
          131 362 4 11 8 5 11 3 rlinecurve
          27 8 rlineto
          30 -156 -30 vlineto
          66 -11 -108 -311 -114 311 67 11 rlineto
          30 -180 -30 vlineto
          27 -8 12 -3 6 -7 4 -10 rlinecurve
          endchar
        </CharString>
        <CharString name="w">
          202 383 30 hstem
          12 162 321 -95 callgsubr
          endchar
        </CharString>
        <CharString name="wacute">
          202 383 30 221 -20 hstem
          12 162 321 -95 callgsubr
          243 103 rmoveto
          -90 callsubr
        </CharString>
        <CharString name="wcircumflex">
          202 383 30 hstem
          12 162 321 -95 callgsubr
          172 101 -86 callsubr
        </CharString>
        <CharString name="wdieresis">
          202 383 30 73 87 hstem
          12 162 38 84 73 84 42 -95 callgsubr
          240 173 -97 callgsubr
        </CharString>
        <CharString name="wgrave">
          202 383 30 221 -20 hstem
          12 162 321 -95 callgsubr
          218 278 -63 callgsubr
        </CharString>
        <CharString name="x">
          8 0 35 343.5 34.5 hstemhm
          18 171 -159 172 58 177 -162 157 hintmask 11100100
          189 hmoveto
          32 vlineto
          -65 6 rlineto
          hintmask 11101000
          97 136 92 -136 -53 -6 rlineto
          -32 177 32 vlineto
          -30 3 -11 2 -7 4 -7 9 rlinecurve
          -120 164 rlineto
          hintmask 11010100
          114 148 6 8 8 5 10 2 rlinecurve
          32 6 rlineto
          30 -157 -30 vlineto
          58 -9 -95 -130 -90 130 54 9 rlineto
          30 -172 -30 vlineto
          29 -6 10 -2 8 -5 6 -9 rlinecurve
          113 -156 rlineto
          hintmask 11100100
          -117 -155 -7 -9 -8 -4 -11 -1 rlinecurve
          -35 -4 rlineto
          -32 vlineto
          endchar
        </CharString>
        <CharString name="y">
          -25 callsubr
          hstemhm
          11 182 92 156 hintmask 10111100
          16 -141 rmoveto
          hintmask 01111100
          -41 vlineto
          hintmask 10111100
          -96 callsubr
          -42 -112 -55 -22 -115 -7 rrcurveto
          endchar
        </CharString>
        <CharString name="yacute">
          -25 callsubr
          221 -20 hstemhm
          11 182 92 156 hintmask 10111110
          16 -141 rmoveto
          hintmask 01111110
          -41 vlineto
          hintmask 10111110
          -96 callsubr
          -42 -112 -55 -22 -115 -7 rrcurveto
          186 600 rmoveto
          -90 callsubr
        </CharString>
        <CharString name="ycircumflex">
          -25 callsubr
          hstemhm
          11 182 92 156 hintmask 10111100
          16 -141 rmoveto
          hintmask 01111100
          -41 vlineto
          hintmask 10111100
          -96 callsubr
          -42 -112 -55 -22 -115 -7 rrcurveto
          115 598 -86 callsubr
        </CharString>
        <CharString name="ydieresis">
          -25 callsubr
          73 87 hstemhm
          11 182 -78 84 73 84 -71 156 hintmask 1011101100000000
          16 -141 rmoveto
          hintmask 0111101100000000
          -41 vlineto
          hintmask 1011110010000000
          -96 callsubr
          hintmask 1011101100000000
          -42 -112 -55 -22 -115 -7 rrcurveto
          183 670 -97 callgsubr
        </CharString>
        <CharString name="yen">
          90 47 callgsubr
          35 200 9 60 21 179 hintmask 01110010
          100 123 rmoveto
          144 hlineto
          hintmask 10110010
          -57 12 callsubr
          -69 -13 rlineto
          -31 238 35 callgsubr
          144 vlineto
          hintmask 10110010
          36 -144 59 144 36 -133 vlineto
          hintmask 10101111
          121 40 callsubr
          -179 -31 vlineto
          68 -13 -110 -180 rlineto
          hintmask 10110110
          -116 176 68 13 rlineto
          31 -200 -31 vlineto
          44 -11 11 -3 6 -5 6 -9 rlinecurve
          129 -186 rlineto
          -131 -36 hlineto
          hintmask 10110010
          144 -59 -144 hlineto
          endchar
        </CharString>
        <CharString name="yen.tf">
          -21 47 callgsubr
          -4 197 -3 59 8 176 hintmask 01110010
          64 123 rmoveto
          126 hlineto
          hintmask 10110010
          -57 12 callsubr
          -69 -13 rlineto
          -31 237 35 callgsubr
          126 vlineto
          hintmask 10110010
          36 -126 59 126 36 -112 vlineto
          hintmask 10101101
          102 40 callsubr
          -176 -31 vlineto
          65 -13 -93 -185 rlineto
          hintmask 10110100
          -100 181 64 13 rlineto
          31 -197 -31 vlineto
          45 -11 11 -3 6 -4 6 -10 rlinecurve
          110 -186 rlineto
          -110 -36 hlineto
          hintmask 10110010
          126 -59 -126 hlineto
          endchar
        </CharString>
        <CharString name="ygrave">
          -25 callsubr
          221 -20 hstemhm
          11 182 92 156 hintmask 10111110
          16 -141 rmoveto
          hintmask 01111110
          -41 vlineto
          hintmask 10111110
          -96 callsubr
          -42 -112 -55 -22 -115 -7 rrcurveto
          161 775 -63 callgsubr
        </CharString>
        <CharString name="z">
          51 callsubr
          hstem
          59 35 246 30 vstem
          -86 callgsubr
          endchar
        </CharString>
        <CharString name="zacute">
          51 callsubr
          221 -20 hstem
          59 35 246 30 vstem
          -86 callgsubr
          -120 80 rmoveto
          -90 callsubr
        </CharString>
        <CharString name="zcaron">
          51 callsubr
          224 22 callsubr
          59 35 246 30 hintmask 11011100
          -86 callgsubr
          24 259 rmoveto
          -102 -105 rlineto
          hintmask 11101100
          -111 104 rlineto
          hintmask 11011100
          -55 callsubr
        </CharString>
        <CharString name="zdotaccent">
          51 callsubr
          73 96 hstem
          59 35 73 96 77 30 vstem
          -86 callgsubr
          -31 155 -97 callsubr
        </CharString>
</ttFont>
